<?xml version="1.0" encoding="UTF-8" standalone="no"?>
<!-- Created with Inkscape (http://www.inkscape.org/) -->

<svg
   xmlns:dc="http://purl.org/dc/elements/1.1/"
   xmlns:cc="http://creativecommons.org/ns#"
   xmlns:rdf="http://www.w3.org/1999/02/22-rdf-syntax-ns#"
   xmlns:svg="http://www.w3.org/2000/svg"
   xmlns="http://www.w3.org/2000/svg"
   xmlns:sodipodi="http://sodipodi.sourceforge.net/DTD/sodipodi-0.dtd"
   xmlns:inkscape="http://www.inkscape.org/namespaces/inkscape"
   width="215.30925mm"
   height="134.74223mm"
   viewBox="0 0 215.30925 134.74223"
   version="1.1"
   id="svg8"
   inkscape:version="0.92.3 (unknown)"
   sodipodi:docname="drawing.svg">
  <defs
     id="defs2" />
  <sodipodi:namedview
     id="base"
     pagecolor="#ffffff"
     bordercolor="#666666"
     borderopacity="1.0"
     inkscape:pageopacity="0.0"
     inkscape:pageshadow="2"
     inkscape:zoom="0.84305403"
     inkscape:cx="296.26748"
     inkscape:cy="239.90575"
     inkscape:document-units="mm"
     inkscape:current-layer="layer1"
     showgrid="false"
     inkscape:snap-global="false"
     fit-margin-top="10"
     fit-margin-left="10"
     fit-margin-right="10"
     fit-margin-bottom="10"
     inkscape:window-width="1920"
     inkscape:window-height="1056"
     inkscape:window-x="0"
     inkscape:window-y="24"
     inkscape:window-maximized="1" />
  <metadata
     id="metadata5">
    <rdf:RDF>
      <cc:Work
         rdf:about="">
        <dc:format>image/svg+xml</dc:format>
        <dc:type
           rdf:resource="http://purl.org/dc/dcmitype/StillImage" />
        <dc:title></dc:title>
      </cc:Work>
    </rdf:RDF>
  </metadata>
  <g
     inkscape:label="Layer 1"
     inkscape:groupmode="layer"
     id="layer1"
     transform="translate(5.1079089,-52.100844)">
    <path
       style="fill:none;stroke:#000000;stroke-width:0.82073748;stroke-linecap:butt;stroke-linejoin:miter;stroke-miterlimit:4;stroke-dasharray:none;stroke-opacity:1"
       d="m 4.8921807,176.21863 c 65.0251753,0.0142 131.6973693,-0.21788 195.3063793,0.21409"
       id="path836"
       inkscape:connector-curvature="0" />
    <path
       style="fill:none;stroke:#000000;stroke-width:0.26458332px;stroke-linecap:butt;stroke-linejoin:miter;stroke-opacity:1"
       d="m 108.99617,129.72425 c -18.767457,-2.34594 -39.072127,2.54935 -58.057145,1.1122 10.400162,-7.12284 21.097115,-13.63058 32.031528,-20.46458 9.323194,5.06571 20.017607,10.94116 26.025617,19.35238 z"
       id="path838"
       inkscape:connector-curvature="0" />
    <path
       style="fill:none;stroke:#000000;stroke-width:0.26458332px;stroke-linecap:butt;stroke-linejoin:miter;stroke-opacity:1"
       d="m 55.45772,131.01833 c -1.044892,10.71961 0.597452,21.64234 0.597452,32.51697 13.537779,1.57864 39.00993,7.35323 52.051228,1.55709 1.6557,-11.60127 -0.75292,-23.86935 0.88977,-35.36814"
       id="path840"
       inkscape:connector-curvature="0"
       sodipodi:nodetypes="cccc" />
    <path
       style="fill:none;stroke:#000000;stroke-width:0.26458332px;stroke-linecap:butt;stroke-linejoin:miter;stroke-opacity:1"
       d="m 76.96464,165.98215 c 0,-5.47267 -0.466614,-11.08623 -0.222441,-16.68308 3.579336,-1.17675 7.90144,-0.66732 11.789383,-0.66732 v 18.68505"
       id="path842"
       inkscape:connector-curvature="0" />
    <path
       style="fill:none;stroke:#000000;stroke-width:0.26458332px;stroke-linecap:butt;stroke-linejoin:miter;stroke-opacity:1"
       d="m 93.870168,148.85418 c 3.410765,0 6.821532,0 10.232292,0 0.37213,3.23128 0.22244,6.52717 0.22244,9.78742 -3.22151,0.41503 -8.381844,0.25911 -10.45473,0 0.488461,-3.45606 -0.896517,-7.3967 -2e-6,-9.78742 z"
       id="path844"
       inkscape:connector-curvature="0" />
    <path
       style="fill:none;stroke:#000000;stroke-width:0.26458332px;stroke-linecap:butt;stroke-linejoin:miter;stroke-opacity:1"
       d="m 60.726436,150.18883 c 3.656928,-0.0364 8.546052,0.34981 11.344499,0 0.79588,3.36101 -0.456897,7.40064 -0.889764,9.56497"
       id="path846"
       inkscape:connector-curvature="0" />
    <path
       style="fill:none;stroke:#000000;stroke-width:0.26458332px;stroke-linecap:butt;stroke-linejoin:miter;stroke-opacity:1"
       d="m 71.181171,159.7538 c -2.072196,1.7315 -9.09991,0.22244 -10.009852,0.22244 0.990093,-3.2627 0.191377,-7.24237 -0.444883,-9.78741"
       id="path848"
       inkscape:connector-curvature="0" />
    <path
       style="fill:none;stroke:#000000;stroke-width:0.26458332px;stroke-linecap:butt;stroke-linejoin:miter;stroke-opacity:1"
       d="m 60.503995,135.73016 c 4.166497,0.1243 8.438904,0.1651 12.456705,0.66732 -0.735423,2.75081 -0.444882,7.71913 -0.444882,9.12009 -3.57095,1.05547 -7.908583,0.67974 -11.56694,0.22244"
       id="path850"
       inkscape:connector-curvature="0" />
    <path
       style="fill:none;stroke:#000000;stroke-width:0.26458332px;stroke-linecap:butt;stroke-linejoin:miter;stroke-opacity:1"
       d="m 60.948876,145.74001 c -0.636193,-3.27876 -1.169411,-6.74947 -0.444881,-10.00985"
       id="path852"
       inkscape:connector-curvature="0" />
    <path
       style="fill:none;stroke:#000000;stroke-width:0.26458332px;stroke-linecap:butt;stroke-linejoin:miter;stroke-opacity:1"
       d="m 91.868198,135.50772 c 3.781499,0 7.563001,0 11.344502,0 -0.30535,2.9046 -0.22244,6.35999 -0.22244,9.56497 -3.403051,1.34004 -7.213589,0.43295 -10.677178,0 -0.894529,-3.52582 -1.643603,-7.46721 -0.444884,-9.56497 z"
       id="path858"
       inkscape:connector-curvature="0" />
    <path
       style="fill:none;stroke:#000000;stroke-width:0.26458332px;stroke-linecap:butt;stroke-linejoin:miter;stroke-opacity:1"
       d="m 76.742199,166.42704 c -1.934059,3.34953 -3.493601,6.35915 -5.783469,9.56497"
       id="path860"
       inkscape:connector-curvature="0" />
    <path
       style="fill:none;stroke:#000000;stroke-width:0.26458332px;stroke-linecap:butt;stroke-linejoin:miter;stroke-opacity:1"
       d="m 88.086699,167.3168 c -1.184622,2.70314 -1.188162,5.91187 -2.224413,8.67521"
       id="path862"
       inkscape:connector-curvature="0" />
    <path
       style="fill:none;stroke:#000000;stroke-width:0.26458332px;stroke-linecap:butt;stroke-linejoin:miter;stroke-opacity:1"
       d="m 110.99814,138.39945 c 3.86961,-1.51762 4.62643,-3.09923 8.6752,-4.44882 6.82215,-2.27405 19.1355,-11.7866 27.58271,-7.563 2.81569,1.40785 22.03682,15.61442 26.24806,20.24214 3.28537,3.6103 23.09239,4.18537 21.1319,5.33859"
       id="path864"
       inkscape:connector-curvature="0"
       sodipodi:nodetypes="cscsc" />
    <path
       style="fill:none;stroke:#000000;stroke-width:0.26458332px;stroke-linecap:butt;stroke-linejoin:miter;stroke-opacity:1"
       d="m 158.82299,133.06086 c 16.15879,-6.8454 19.24538,-16.09812 38.25988,-11.34449"
       id="path866"
       inkscape:connector-curvature="0"
       sodipodi:nodetypes="cc" />
    <path
       style="fill:none;stroke:#000000;stroke-width:0.26458332px;stroke-linecap:butt;stroke-linejoin:miter;stroke-opacity:1"
       d="M 54.498083,140.17898 C 39.963473,132.28122 21.581959,132.36509 5.3385878,134.39551"
       id="path868"
       inkscape:connector-curvature="0" />
    <path
       style="fill:none;stroke:#000000;stroke-width:0.26458332px;stroke-linecap:butt;stroke-linejoin:miter;stroke-opacity:1"
       d="m 136.57887,83.011602 c 0.99835,-3.934828 5.60628,-8.007882 9.78741,-8.007882 2.48989,0 6.07332,-0.633619 8.23032,0.444884 22.65568,11.327838 -6.8648,37.654306 -17.12797,17.127968 -1.30333,-2.606667 -2.08124,-7.090595 -0.66732,-9.56497"
       id="path870"
       inkscape:connector-curvature="0"
       sodipodi:nodetypes="csccc" />
    <path
       style="fill:none;stroke:#000000;stroke-width:0.26458332px;stroke-linecap:butt;stroke-linejoin:miter;stroke-opacity:1"
       d="m 148.36825,62.102134 c -0.0275,2.819614 -0.15336,6.0598 0.44488,8.452763"
       id="path872"
       inkscape:connector-curvature="0" />
    <path
       style="fill:none;stroke:#000000;stroke-width:0.26458332px;stroke-linecap:butt;stroke-linejoin:miter;stroke-opacity:1"
       d="m 166.38599,85.903339 c 4.67126,0 9.34252,0 14.01379,0"
       id="path874"
       inkscape:connector-curvature="0" />
    <path
       style="fill:none;stroke:#000000;stroke-width:0.26458332px;stroke-linecap:butt;stroke-linejoin:miter;stroke-opacity:1"
       d="m 150.37022,103.69863 c 0.14422,4.30663 1.11221,8.18635 1.11221,12.45671"
       id="path876"
       inkscape:connector-curvature="0" />
    <path
       style="fill:none;stroke:#000000;stroke-width:0.26458332px;stroke-linecap:butt;stroke-linejoin:miter;stroke-opacity:1"
       d="m 131.90761,87.682868 c -4.89371,0 -9.78741,0 -14.68112,0"
       id="path878"
       inkscape:connector-curvature="0" />
    <path
       style="fill:none;stroke:#000000;stroke-width:0.26458332px;stroke-linecap:butt;stroke-linejoin:miter;stroke-opacity:1"
       d="m 162.38204,77.673014 c 1.9206,-1.008962 3.69966,-2.08008 5.56103,-3.114175"
       id="path880"
       inkscape:connector-curvature="0" />
    <path
       style="fill:none;stroke:#000000;stroke-width:0.26458332px;stroke-linecap:butt;stroke-linejoin:miter;stroke-opacity:1"
       d="m 161.26984,97.025395 c 2.84207,1.605447 4.96597,3.038685 7.563,4.893705"
       id="path882"
       inkscape:connector-curvature="0" />
    <path
       style="fill:none;stroke:#000000;stroke-width:0.26458332px;stroke-linecap:butt;stroke-linejoin:miter;stroke-opacity:1"
       d="m 136.80131,78.562778 c -2.40564,-1.701395 -5.04468,-3.031352 -7.34056,-4.671263"
       id="path884"
       inkscape:connector-curvature="0" />
    <path
       style="fill:none;stroke:#000000;stroke-width:0.26458332px;stroke-linecap:butt;stroke-linejoin:miter;stroke-opacity:1"
       d="m 138.80328,100.36201 c -1.40587,3.24955 -4.12121,5.64325 -6.22835,8.45277"
       id="path886"
       inkscape:connector-curvature="0" />
    <path
       style="opacity:1;fill:#ffdd55;fill-opacity:1;stroke:none;stroke-width:2.60792112;stroke-miterlimit:4;stroke-dasharray:none;stroke-opacity:1"
       d="m 570.70417,179.77257 c -15.67312,-3.72318 -29.76241,-19.03663 -34.47773,-37.47334 -1.83024,-7.15619 -2.15162,-15.98266 -0.74683,-20.51121 0.5011,-1.61534 1.06561,-4.01529 1.25448,-5.33323 1.12724,-7.86591 12.03405,-20.216419 22.33447,-25.29081 6.22964,-3.068968 6.81324,-3.187929 19.24282,-3.922471 15.48564,-0.915145 20.68202,-0.215404 28.35919,3.818834 17.02043,8.943987 27.1556,23.156187 27.31275,38.299727 0.13203,12.72286 -4.55978,22.87739 -15.74495,34.07697 -6.09824,6.1061 -8.98476,8.2886 -14.73059,11.13783 -3.93038,1.94899 -9.40099,4.11189 -12.15693,4.80644 -5.35133,1.34866 -15.78416,1.54636 -20.64668,0.39126 z"
       id="path890"
       inkscape:connector-curvature="0"
       transform="matrix(0.26458333,0,0,0.26458333,-5.1079089,52.100844)" />
    <path
       style="opacity:1;fill:#ff9955;fill-opacity:1;stroke:none;stroke-width:3.67947936;stroke-miterlimit:4;stroke-dasharray:none;stroke-opacity:1"
       d="m 355.10119,400.16554 v -35.59377 l -5.50329,-0.75431 c -14.33399,-1.96469 -37.87738,0.18786 -40.50253,3.70311 -1.20097,1.60817 -1.35059,8.52935 -0.70468,32.59778 l 0.82001,30.55613 h -2.52341 c -2.17061,0 -60.47421,-8.29072 -70.90441,-10.08253 l -3.66736,-0.63002 -0.81665,-23.4082 c -0.44916,-12.8745 -1.28285,-33.283 -1.85265,-45.35221 -0.5698,-12.06922 -0.74432,-28.65102 -0.38783,-36.84845 l 0.64817,-14.90442 20.88505,-0.25085 c 11.48677,-0.13797 39.30024,-1.65171 61.80769,-3.36385 42.38663,-3.22436 96.56699,-4.37763 110.73383,-2.35705 l 6.94451,0.99047 -0.92776,6.71959 c -0.51026,3.69577 -0.80223,29.40497 -0.6488,57.13154 0.15342,27.72657 -0.0866,54.33743 -0.53342,59.13524 -0.80431,8.63679 -0.85498,8.74114 -5.10954,10.52591 -9.35337,3.92366 -25.56519,6.38212 -46.70253,7.08226 l -21.0544,0.69739 z m -68.79749,8.80982 c 2.45183,-1.23969 3.3223,-3.1369 5.0261,-10.95453 1.18502,-5.43727 1.94109,-13.23553 1.77925,-18.35139 l -0.28145,-8.89622 -22.37925,-0.32323 -22.37925,-0.32322 1.02831,5.66096 c 0.56556,3.11353 1.0283,11.9087 1.0283,19.54484 v 13.88388 l 4.74466,0.43939 c 11.9147,1.1034 28.62049,0.74174 31.43333,-0.68048 z m 125.46548,-5.1516 c 2.68219,-0.71862 2.6957,-0.83173 2.37233,-19.85205 l -0.32522,-19.12931 -20.31582,-0.32393 c -20.25216,-0.32291 -20.31807,-0.31548 -21.03341,2.37233 -0.39468,1.48294 -0.37845,10.27611 0.0361,19.54038 0.70958,15.85925 0.89907,16.87279 3.24096,17.33438 4.04389,0.79705 33.09221,0.84398 36.02512,0.0582 z m -120.9962,-48.95731 3.24079,-0.86324 0.65245,-17.71059 c 0.35885,-9.74083 0.46607,-17.95923 0.23826,-18.26312 -0.79247,-1.05711 -17.59201,-2.26669 -32.49368,-2.33956 -12.62553,-0.0617 -15.11052,0.22333 -15.71667,1.80293 -1.18767,3.095 -0.81402,20.22756 0.63211,28.98425 l 1.35211,8.1873 4.87525,0.6405 c 10.23611,1.34481 14.6698,1.52524 24.17158,0.9837 5.39386,-0.30741 11.26537,-0.94739 13.0478,-1.42217 z m 114.44362,-1.35497 4.44812,-1.23531 0.0163,-16.25399 c 0.009,-8.9397 0.33805,-17.45499 0.73143,-18.92287 l 0.71522,-2.66886 h -22.7048 -22.70481 l -1.15681,3.04262 c -1.74245,4.583 -1.3931,15.97937 0.79512,25.93789 l 1.95193,8.88315 5.46159,0.71525 c 3.00388,0.39339 6.26226,0.8863 7.24085,1.09535 4.33154,0.92536 21.16432,0.52919 25.20597,-0.59323 z"
       id="path892"
       inkscape:connector-curvature="0"
       transform="matrix(0.26458333,0,0,0.26458333,-5.1079089,52.100844)" />
    <path
       style="opacity:1;fill:#00ff00;fill-opacity:1;stroke:none;stroke-width:3.67947936;stroke-miterlimit:4;stroke-dasharray:none;stroke-opacity:1"
       d=""
       id="path894"
       inkscape:connector-curvature="0"
       transform="matrix(0.26458333,0,0,0.26458333,-5.1079089,52.100844)" />
  </g>
</svg>
