<svg width="200" height="200" viewBox="0 0 200 200"
   xmlns="http://www.w3.org/2000/svg"
   xmlns:xlink="http://www.w3.org/1999/xlink">
   <title>Spring Flower</title>
   <desc>Image used in chapter 11 of 'SVG Essentials' by J. David Eisenberg</desc>

    <!-- stalk and leaf -->
    <path
       style="fill:#0a7f05;;stroke:none;stroke-width:0.02827222;stroke-linecap:round;stroke-miterlimit:4;"
       d="m 92.380859,66.416016 c -0.314046,0.0042 -0.739387,0.01802 -1.199218,0.04102 l -1.671875,0.08398 -0.355469,1.109375 c -0.705602,2.202747 -1.320312,5.081333 -1.625,7.613281 -0.166404,1.382835 -0.197515,5.328852 -0.05469,6.816406 l 0.164063,1.125 0.08203,0.546875 c 0.166297,1.115611 0.747573,3.164817 1.271485,4.482422 3.594402,9.039705 13.093565,21.755505 26.609375,35.623045 1.43424,1.47157 3.13328,3.3084 3.77539,4.08203 4.30444,5.18616 7.14845,11.00516 8.11328,16.59571 0.49937,2.89357 0.51393,6.23962 0.0391,8.80468 -0.22396,1.20969 -0.7917,3.35915 -1.08203,4.09571 -0.11795,0.31345 -0.25391,0.60547 -0.25391,0.60547 l -0.0508,0.0918 -0.11719,0.28907 c -1.12492,2.75659 -2.75295,5.4002 -4.78906,7.77734 -1.04233,1.21692 -2.33769,2.5078 -3.63281,3.62109 -0.74101,0.63698 -1.45629,1.2126 -2.56446,2.06446 -0.82513,0.63428 -1.22624,0.95711 -1.42968,1.15039 l -0.15626,0.14843 0.29493,0.30274 c 0.1622,0.16579 0.54585,0.55473 0.85351,0.86523 0.30767,0.3105 0.56527,0.56446 0.57227,0.56446 0.007,0 0.0333,-0.0235 0.0606,-0.0527 0.17262,-0.18596 0.68632,-0.60005 2.0332,-1.63672 2.30355,-1.77302 3.50135,-2.7643 4.93359,-4.08789 2.57362,-2.37839 4.6156,-4.88033 5.95117,-7.29297 0.54793,-0.98982 1.15493,-2.36325 1.55469,-3.51172 l 0.0703,-0.20117 0.21875,-0.84375 c 0.78236,-2.66506 1.08794,-4.84299 1.08594,-7.74023 -0.005,-5.96326 -1.74914,-11.90113 -5.1543,-17.55274 -1.68136,-2.79058 -2.91693,-5.3718 -6.28196,-8.8406 0,0 0.12983,-0.32617 0.58275,-1.23752 3.50996,-7.06279 7.66607,-12.58662 11.88671,-15.79492 0.68974,-0.5243 5.22918,-3.45715 6.77735,-4.37891 2.54871,-1.51746 4.68115,-2.394975 7.49804,-3.083984 3.04123,-0.74388 7.70655,-1.301878 13.25977,-1.585937 0.99423,-0.05086 2.18379,-0.118731 2.64453,-0.150391 0.98924,-0.06797 1.23239,-0.0072 -2.55664,-0.644531 -3.04809,-0.512735 -6.36533,-0.990536 -8.28906,-1.195313 -1.82664,-0.194438 -5.66594,-0.268204 -7.11524,-0.136718 -3.25948,0.295713 -6.27255,1.076372 -11.18164,2.896484 -3.97122,1.472389 -6.11239,2.62761 -8.68554,4.68359 -1.12476,0.89869 -3.13457,2.92129 -4.08594,4.11328 -2.48307,3.11107 -4.53001,7.01409 -5.6543,10.78321 v 0 c -8.25492,-8.99694 -15.127022,-17.21487 -19.471949,-24.446057 -2.947623,-4.905678 -2.872475,-5.296202 -2.872475,-5.296202 -0.603727,-1.143395 -1.264951,-3.934693 -1.264951,-4.267509 0,-0.03773 -0.01538,-0.06242 -0.03516,-0.08789 -0.01138,-0.228693 -0.116534,-0.672723 -0.277343,-1.47461 -0.151203,-0.859802 -0.195966,-1.805435 -0.197266,-4.05664 -0.0015,-2.557404 0.0323,-3.123144 0.261719,-4.404297 0.428707,-2.394092 1.252043,-5.220467 1.878906,-6.449219 0.12536,-0.245733 0.199316,-0.472559 0.166015,-0.505859 -0.01665,-0.01665 -0.219156,-0.02371 -0.533203,-0.01953 z"
       id="stalk_leaf" />

  <!-- flower head -->
  <g id="flower_head">

    <!-- flower center -->
    <circle r="11.22532" cy="66.091652" cx="80.610168" id="flower_center"
       style="fill:#847f7f;stroke:none;stroke-width:0.60000002;stroke-linecap:round;stroke-linejoin:bevel;stroke-miterlimit:4;" />

    <!-- petal 01 -->
    <g transform="matrix(1.0252955,0,0,1.0267586,121.10461,-10.100232)" id="petal01">
      <path
         style="fill:#fdff01;stroke:#000000;stroke-width:0.60000002;stroke-linecap:butt;stroke-linejoin:bevel;stroke-miterlimit:4;"
         d="m -32.621122,31.705037 c 1.972099,0.59163 14.850935,18.804214 -5.048802,32.512712" />
      <path
         style="fill:#fdff01;stroke:#000000;stroke-width:0.60000002;stroke-linecap:butt;stroke-linejoin:bevel;stroke-miterlimit:4;"
         d="m -32.360373,31.705037 c -3.138694,1.491656 -20.16833,8.728021 -5.042095,32.37363" />
    </g>

    <!-- petal 02 -->
    <g id="petal02" transform="matrix(0.7249934,0.7249934,-0.72602797,0.72602797,161.60082,38.668576)">
      <path
         d="m -32.621122,31.705037 c 1.972099,0.59163 14.850935,18.804214 -5.048802,32.512712"
         style="fill:#fdff01;stroke:#000000;stroke-width:0.60000002;stroke-linecap:butt;stroke-linejoin:bevel;stroke-miterlimit:4;" />
      <path
         id="path873"
         d="m -32.360373,31.705037 c -3.138694,1.491656 -20.16833,8.728021 -5.042095,32.37363"
         style="fill:#fdff01;;stroke:#000000;stroke-width:0.60000002;stroke-linecap:butt;stroke-linejoin:bevel;stroke-miterlimit:4;" />
    </g>

    <!-- petal 03 -->
    <g id="petal03" transform="matrix(0.265366,1.0151268,-0.99177265,0.17317942,165.0538,92.984576)">
      <path
         d="m -32.621122,31.705037 c 1.972099,0.59163 14.850935,18.804214 -5.048802,32.512712"
         style="fill:#fdff01;stroke:#000000;stroke-width:0.60000002;stroke-linecap:butt;stroke-linejoin:bevel;stroke-miterlimit:4;" />
      <path
         d="m -32.360373,31.705037 c -3.138694,1.491656 -20.16833,8.728021 -5.042095,32.37363"
         style="fill:#fdff01;stroke:#000000;stroke-width:0.60000002;stroke-linecap:butt;stroke-linejoin:bevel;stroke-miterlimit:4;" />
    </g>

    <!-- petal 04 -->
    <g id="petal04" transform="matrix(-0.22788443,0.91404806,-0.85168992,-0.52847898,135.35133,140.46951)">
      <path
         d="m -32.621122,31.705037 c 1.972099,0.59163 14.850935,18.804214 -5.048802,32.512712"
         style="fill:#fdff01;stroke:#000000;stroke-width:0.60000002;stroke-linecap:butt;stroke-linejoin:bevel;stroke-miterlimit:4;" />
      <path
         d="m -32.360373,31.705037 c -3.138694,1.491656 -20.16833,8.728021 -5.042095,32.37363"
         style="fill:#fdff01;stroke:#000000;stroke-width:0.60000002;stroke-linecap:butt;stroke-linejoin:bevel;stroke-miterlimit:4;" />
    </g>

    <!-- petal 05 -->
    <g id="petal05" transform="matrix(-1.0252955,0,-0.24964359,-1.0267586,61.640935,141.84794)">
      <path
         d="m -32.621122,31.705037 c 1.972099,0.59163 14.850935,18.804214 -5.048802,32.512712"
         style="fill:#fdff01;stroke:#000000;stroke-width:0.60000002;stroke-linecap:butt;stroke-linejoin:bevel;stroke-miterlimit:4;" />
      <path
         d="m -32.360373,31.705037 c -3.138694,1.491656 -20.16833,8.728021 -5.042095,32.37363"
         style="fill:#fdff01;stroke:#000000;stroke-width:0.60000002;stroke-linecap:butt;stroke-linejoin:bevel;stroke-miterlimit:4;" />
    </g>

    <!-- petal 09 -->
    <g id="petal09" transform="matrix(0.75765865,-0.69078523,0.69177098,0.75873983,60.526975,-18.380063)">
      <path
         d="m -32.621122,31.705037 c 1.972099,0.59163 14.850935,18.804214 -5.048802,32.512712"
         style="fill:#fdff01;stroke:#000000;stroke-width:0.60000002;stroke-linecap:butt;stroke-linejoin:bevel;stroke-miterlimit:4;" />
      <path
         d="m -32.360373,31.705037 c -3.138694,1.491656 -20.16833,8.728021 -5.042095,32.37363"
         style="fill:#fdff01;stroke:#000000;stroke-width:0.60000002;stroke-linecap:butt;stroke-linejoin:bevel;stroke-miterlimit:4;" />
    </g>

    <!-- petal 08 -->
    <g id="petal08" transform="matrix(0.23734823,-0.99744508,0.99886843,0.23768693,15.796347,9.4091024)">
      <path
         d="m -32.621122,31.705037 c 1.972099,0.59163 14.850935,18.804214 -5.048802,32.512712"
         style="fill:#fdff01;stroke:#000000;stroke-width:0.60000002;stroke-linecap:butt;stroke-linejoin:bevel;stroke-miterlimit:4;" />
      <path
         d="m -32.360373,31.705037 c -3.138694,1.491656 -20.16833,8.728021 -5.042095,32.37363"
         style="fill:#fdff01;stroke:#000000;stroke-width:0.60000002;stroke-linecap:butt;stroke-linejoin:bevel;stroke-miterlimit:4;" />
    </g>

    <!-- petal 07 -->
    <g id="petal07" transform="matrix(-0.265366,-0.9631166,0.99177265,-0.36756127,-2.1705051,58.148359)">
      <path
         d="m -32.621122,31.705037 c 1.972099,0.59163 14.850935,18.804214 -5.048802,32.512712"
         style="fill:#fdff01;stroke:#000000;stroke-width:0.60000002;stroke-linecap:butt;stroke-linejoin:bevel;stroke-miterlimit:4;" />
      <path
         d="m -32.360373,31.705037 c -3.138694,1.491656 -20.16833,8.728021 -5.042095,32.37363"
         style="fill:#fdff01;stroke:#000000;stroke-width:0.60000002;stroke-linecap:butt;stroke-linejoin:bevel;stroke-miterlimit:4;" />
    </g>

    <!-- petal 06 -->
    <g id="petal06" transform="matrix(-0.88793195,-0.51264775,0.5133793,-0.88919903,10.262564,113.98894)">
      <path
         d="m -32.621122,31.705037 c 1.972099,0.59163 14.850935,18.804214 -5.048802,32.512712"
         style="fill:#fdff01;stroke:#000000;stroke-width:0.60000002;stroke-linecap:butt;stroke-linejoin:bevel;stroke-miterlimit:4;" />
      <path
         d="m -32.360373,31.705037 c -3.138694,1.491656 -20.16833,8.728021 -5.042095,32.37363"
         style="fill:#fdff01;stroke:#000000;stroke-width:0.60000002;stroke-linecap:butt;stroke-linejoin:bevel;stroke-miterlimit:4;" />
    </g>
  </g>
</svg>
