<svg width="300" height="360" viewBox="0 0 72 87"
   id="vector_rosa" xmlns="http://www.w3.org/2000/svg">
    <g>
      <path
         style="fill:#d0022b;stroke-width:0.35277778"
         d="m 34.219447,76.188813 c -0.873125,-0.182157 -2.8575,-0.948602 -4.409722,-1.703207 -2.763099,-1.343272 -2.922481,-1.37565 -7.607979,-1.545534 -2.918576,-0.105819 -5.120777,-0.35197 -5.644445,-0.630904 -1.170353,-0.623394 -5.879133,-4.878197 -6.134144,-5.542742 -0.334358,-0.871323 -1.2516442,-7.382704 -1.2425609,-8.820355 0.00461,-0.728881 0.3986982,-2.274806 0.8757609,-3.435392 L 10.923745,52.400521 9.4574014,50.277345 C 8.6509122,49.109598 7.2244157,47.329672 6.2874092,46.321959 c -2.1127668,-2.2722 -2.4072989,-3.033473 -2.405111,-6.216453 0.00134,-1.929133 0.2582239,-3.250967 1.0753246,-5.532943 1.3420638,-3.748079 1.532361,-4.032924 5.2943182,-7.924761 2.34673,-2.427751 3.178512,-3.548892 3.487685,-4.700975 0.303328,-1.130305 1.154868,-2.303093 3.367289,-4.637613 2.989614,-3.154606 4.059753,-4.932243 4.059753,-6.743765 0,-1.5803684 0.814227,-2.0992265 3.288394,-2.0954962 2.072438,0.00314 5.239929,0.94037 16.389386,4.8495432 1.379129,0.483543 1.567068,0.477437 2.172628,-0.07058 0.364596,-0.329956 0.855416,-1.064692 1.090715,-1.632748 0.257094,-0.62068 0.690803,-1.03283 1.086856,-1.03283 0.999998,0 5.247393,1.761328 6.840079,2.836473 0.776111,0.523915 3.043834,1.771138 5.039385,2.771606 4.059051,2.035004 4.480515,2.576612 4.122011,5.29708 -0.286244,2.172152 -1.501076,6.292592 -1.934167,6.560256 -0.705334,0.435921 -0.303386,1.351586 1.523509,3.470647 1.029364,1.193986 2.68223,3.282133 3.673038,4.640327 0.990808,1.358195 2.259161,2.807307 2.818561,3.220251 1.547336,1.142227 1.807937,2.523419 1.310015,6.943104 -0.428289,3.801629 -0.525451,4.049702 -2.317125,5.916069 -0.319793,0.333125 -0.69553,1.137783 -0.834972,1.788128 -0.139443,0.650346 -1.136721,2.452448 -2.216172,4.00467 -4.108383,5.907737 -5.192388,6.816969 -10.516574,8.820986 -2.975685,1.120045 -3.205907,1.317142 -3.487854,2.985961 -0.290541,1.719707 -1.25239,2.641621 -2.444006,2.342543 -0.710068,-0.178216 -1.038441,-0.01147 -1.676213,0.851161 -0.436235,0.590038 -1.54577,1.55575 -2.465635,2.146025 -1.384935,0.888711 -2.115125,1.096281 -4.247032,1.207308 -1.416001,0.07374 -3.288923,-0.01496 -4.162048,-0.197115 z"
         />
      <path
         style="fill:#a4021e;stroke-width:0.35277778"
         d="m 32.79055,75.535433 c -1.94444,-0.622261 -5.626659,-2.780897 -5.626659,-3.298532 0,-0.148629 0.426129,-0.270235 0.946953,-0.270235 1.550583,0 3.799175,-1.312164 6.442614,-3.759584 3.20936,-2.971373 3.362116,-4.635726 0.333742,-3.636271 -1.13563,0.374791 -1.541823,0.369954 -2.343652,-0.02791 -0.533464,-0.264703 -1.287434,-0.488579 -1.67549,-0.497508 -0.517919,-0.01192 -0.736859,-0.297688 -0.823265,-1.074565 -0.15085,-1.356307 -1.045061,-2.363438 -1.866864,-2.102608 -0.655642,0.208093 -3.676168,-0.676748 -4.421363,-1.295203 -0.292901,-0.243088 -0.701835,-0.172833 -1.308764,0.224843 -1.220105,0.79944 -2.74864,0.559724 -3.281477,-0.514629 -0.236056,-0.475957 -0.735826,-1.110957 -1.1106,-1.411111 -0.374774,-0.300154 -0.937137,-0.951011 -1.249694,-1.44635 l -0.568288,-0.900613 3.081824,0.654367 c 2.396423,0.508836 3.925249,0.609667 6.874185,0.45338 l 3.792361,-0.200988 v 1.593761 c 0,1.775372 0.610901,2.155229 0.926703,0.576224 0.139804,-0.699022 0.947533,-1.629629 2.580376,-2.972915 2.018801,-1.660803 2.492412,-2.27227 3.143866,-4.058944 0.847259,-2.323684 1.371071,-4.874412 1.607055,-7.825603 0.08533,-1.067152 0.311961,-2.350403 0.503618,-2.851668 0.208834,-0.546188 0.221721,-1.111638 0.03217,-1.411111 -0.173969,-0.274846 -0.318742,-1.171194 -0.321713,-1.991886 -0.0055,-1.514803 -0.92003,-4.328668 -1.406878,-4.328668 -0.303681,0 -0.7152,2.633599 -0.7152,4.577087 0,0.716986 0.333146,2.31842 0.740325,3.558748 0.602672,1.835831 0.660704,2.382629 0.31211,2.940816 -0.235518,0.377126 -0.800442,1.711903 -1.255385,2.966176 -0.878443,2.421859 -2.562068,5.416046 -4.051948,7.206054 -0.729089,0.875962 -1.273909,1.133669 -2.822222,1.334961 -2.258108,0.293564 -2.998023,0.127649 -2.438311,-0.546763 0.286985,-0.345797 0.202595,-0.514717 -0.343774,-0.688129 -0.398271,-0.126407 -0.724129,-0.377881 -0.724129,-0.558835 0,-0.18095 -0.277813,-0.334052 -0.617361,-0.340222 -0.339549,-0.0062 -0.925516,-0.244299 -1.302149,-0.529167 -0.376633,-0.284872 -0.90833,-0.517948 -1.181549,-0.517948 -0.273219,0 -1.405199,-0.560719 -2.515511,-1.246043 -1.464946,-0.904215 -2.186588,-1.626457 -2.630565,-2.632756 -0.701301,-1.589536 -0.873896,-5.485726 -0.269771,-6.089851 0.221659,-0.221661 0.403016,-1.006267 0.403016,-1.743572 0,-1.233043 -0.07922,-1.340556 -0.987778,-1.340556 -1.118577,0 -1.834444,-0.563312 -1.834444,-1.443517 0,-0.736061 1.680572,-2.963214 4.188925,-5.551318 1.560658,-1.610276 1.829273,-2.062786 1.519212,-2.559272 -0.289457,-0.463495 -0.231909,-0.734122 0.248575,-1.168954 0.343878,-0.311205 0.761251,-0.565828 0.927496,-0.565828 0.166245,0 0.682804,-0.357187 1.147909,-0.79375 1.0997,-1.032212 3.422347,-0.989411 6.823903,0.12575 2.08116,0.682284 2.524948,0.732549 2.782886,0.315197 0.477465,-0.772555 1.944346,0.180867 3.094833,2.011533 0.816377,1.29903 3.111797,3.280159 3.800528,3.280159 0.283115,0 -0.116067,-1.285452 -0.951953,-3.065477 C 37.811942,28.845533 37.43781,28.528928 35.972452,28.042215 34.745817,27.634792 33.78501,26.960746 32.681735,25.733638 31.697852,24.639323 30.191702,23.527124 28.595532,22.71623 26.007491,21.401439 24.9494,21.296014 22.224998,22.081487 c -0.878796,0.253367 -0.879546,0.251558 -0.209907,-0.506664 0.413485,-0.468184 1.092103,-0.762433 1.763889,-0.764822 0.600518,-0.0022 1.689102,-0.102596 2.419076,-0.223246 1.138571,-0.188183 1.263932,-0.295687 0.881944,-0.75632 -0.769595,-0.928042 -2.82019,-1.599225 -5.532601,-1.810882 -1.439832,-0.112354 -2.675579,-0.379334 -2.746105,-0.593289 -0.199742,-0.605961 2.428739,-2.96238 3.304403,-2.96238 1.153167,0 1.338668,-0.612842 0.600434,-1.983659 -0.574251,-1.066321 -0.590142,-1.259649 -0.127574,-1.552067 0.927565,-0.586372 1.225547,-0.383195 2.081201,1.419059 0.601568,1.267076 1.040262,1.763889 1.557543,1.763889 1.864114,0 5.185736,1.489718 6.882646,3.086806 0.670004,0.63059 1.581519,1.146527 2.025588,1.146527 0.44407,0 1.02458,0.217181 1.290024,0.482624 0.265444,0.265444 0.797758,0.582644 1.182924,0.704891 1.047754,0.332544 1.027462,1.792875 -0.03457,2.488755 -1.298575,0.850859 -1.007883,3.015123 0.690802,5.143175 0.508678,0.637263 2.314731,6.004527 2.314731,6.878987 0,0.340917 0.456822,1.432923 1.015164,2.42668 0.558341,0.993758 1.764739,3.503062 2.680882,5.576235 0.916142,2.073173 1.967445,4.042463 2.336225,4.376205 0.36878,0.333742 0.670507,0.820321 0.670507,1.081292 0,0.757611 0.700948,0.548411 1.015989,-0.30323 0.459433,-1.241968 -0.243113,-3.478724 -1.697813,-5.405462 -1.507893,-1.997185 -2.075678,-3.804381 -1.437034,-4.573902 0.316541,-0.381406 0.307277,-0.789993 -0.03966,-1.749439 -0.248965,-0.688496 -0.554041,-1.251811 -0.677943,-1.251811 -0.33685,0 -1.044092,-1.6954 -1.044092,-2.502888 0,-0.388191 -0.436563,-1.110436 -0.970139,-1.60499 -0.937842,-0.869253 -0.970291,-1.021373 -0.974704,-4.569266 -0.0042,-3.399883 0.04587,-3.670078 0.680509,-3.670078 0.942975,0 2.946777,0.642516 4.509227,1.445876 1.592238,0.818678 2.399552,0.854921 2.399552,0.107725 0,-1.405819 -1.207488,-4.471781 -2.4722,-6.277213 -1.253155,-1.788937 -1.316299,-1.979166 -0.656975,-1.979166 0.943346,0 2.66022,1.842959 2.951244,3.16798 0.124693,0.567721 0.554599,1.44906 0.955347,1.95853 0.524334,0.666581 0.753865,1.536739 0.818611,3.103372 0.09513,2.301955 0.682798,5.00091 1.870018,8.588419 0.396427,1.197912 0.830475,3.672416 0.964544,5.498894 0.239145,3.257885 0.259733,3.317822 1.085374,3.15999 0.507086,-0.09694 0.89777,-0.459744 0.982917,-0.912785 0.688357,-3.662563 1.060693,-6.74893 1.034446,-8.574717 -0.0285,-1.983792 0.0403,-2.196347 0.770435,-2.3796 1.12527,-0.282424 2.200664,-3.606041 1.564944,-4.836607 -0.757513,-1.466315 -1.742631,-2.311729 -4.070636,-3.493364 -1.475857,-0.749105 -2.288808,-1.380762 -2.323208,-1.805114 -0.0291,-0.359027 -0.06879,-0.851213 -0.08819,-1.093748 -0.02289,-0.286047 0.491469,-0.44869 1.464028,-0.462941 0.824618,-0.01208 1.499305,0.10698 1.499305,0.264584 0,0.157603 0.413858,0.286552 0.919689,0.286552 0.700786,0 0.867769,-0.135293 0.701565,-0.568412 -0.314491,-0.819556 1.386061,-0.344045 2.905965,0.81257 1.132921,0.862129 1.17003,0.967334 1.016836,2.88295 -0.149535,1.869893 -1.208041,5.470295 -2.009196,6.834077 -0.609819,1.038077 -0.405458,1.857989 0.732141,2.937397 0.6006,0.569877 2.22227,2.544265 3.60371,4.387529 1.381442,1.843264 3.147568,3.924413 3.92472,4.624775 1.370079,1.234701 1.410402,1.335716 1.327164,3.324903 -0.04722,1.128331 -0.248384,2.247356 -0.447037,2.486723 -0.213035,0.256685 -0.266379,1.149943 -0.130048,2.177648 0.204107,1.53863 0.113186,1.919672 -0.777321,3.257695 -1.532072,2.301991 -1.879533,2.953222 -1.885209,3.53338 -0.0068,0.694139 -3.060993,4.115011 -3.384819,3.791182 -0.136786,-0.136786 -0.03362,-0.507876 0.229295,-0.824649 0.724751,-0.87327 0.447316,-5.938309 -0.418193,-7.634845 -0.373535,-0.732191 -0.818998,-1.331257 -0.989919,-1.331257 -0.170917,0 -0.683631,0.58195 -1.139356,1.293224 -0.455729,0.711274 -1.098473,1.704537 -1.42832,2.207249 -0.329847,0.502716 -0.726722,1.93729 -0.881944,3.187944 -0.265028,2.135367 -0.368202,2.332312 -1.693334,3.232351 -1.35418,0.919762 -2.955519,1.774355 -6.646058,3.546824 -1.546973,0.742971 -3.408109,2.420891 -3.408109,3.072606 0,1.317943 2.796596,2.327194 5.044024,1.820316 1.11107,-0.250585 1.268981,-0.220172 0.936551,0.180379 -0.219915,0.264982 -0.701552,0.577543 -1.0703,0.694577 -0.440259,0.139735 -0.861963,0.871562 -1.228238,2.131497 -0.592028,2.036512 -1.32086,2.712064 -2.572766,2.384683 -0.597017,-0.156126 -1.080407,0.153109 -2.16443,1.384624 -0.767655,0.872106 -1.93984,1.843836 -2.604854,2.159406 -1.655008,0.785354 -6.470831,0.737076 -9.057774,-0.0908 z m -4.619221,-26.46476 c 1.128454,-0.766318 2.656531,-2.186365 3.395726,-3.155665 0.739195,-0.969295 1.630408,-1.837256 1.980474,-1.928798 1.052452,-0.275223 2.080249,-2.354069 2.08171,-4.210516 C 35.629966,38.854062 35.471808,38.1 35.27778,38.1 c -0.194027,0 -0.352777,0.371394 -0.352777,0.825316 0,0.513387 -0.300003,0.962212 -0.79375,1.18751 -0.440778,0.20113 -1.338957,1.415497 -2.019788,2.730821 -1.512287,2.921646 -3.805781,5.168526 -5.001717,4.900059 -2.282967,-0.512484 -3.463035,-1.056502 -5.237524,-2.414524 -2.686242,-2.055791 -3.427152,-2.248115 -3.897262,-1.011633 -0.203517,0.535291 -0.322703,1.617515 -0.264857,2.404936 0.0938,1.27683 0.257801,1.507963 1.516285,2.136944 1.029301,0.514435 2.095786,0.701502 3.941557,0.691364 2.397774,-0.01316 2.511224,0.02201 2.163821,0.671145 -0.4967,0.928095 0.183922,0.652145 2.839561,-1.151265 z M 33.513891,37.90279 c 0,-0.473618 -0.148052,-0.861123 -0.329004,-0.861123 -0.431462,0 -0.838019,1.302621 -0.551335,1.766485 0.35564,0.575437 0.880339,0.03582 0.880339,-0.905362 z m -7.613435,-3.29884 c 0.335393,-0.370606 0.994997,-0.770505 1.465787,-0.888666 0.984327,-0.24705 1.168454,-1.259729 0.229046,-1.259729 -0.694848,0 -2.900843,1.862808 -2.900843,2.449558 0,0.575597 0.533007,0.442497 1.20601,-0.301163 z M 22.225002,16.227778 c 0,-0.194028 -0.07001,-0.352778 -0.155569,-0.352778 -0.08556,0 -0.253682,0.15875 -0.373598,0.352778 -0.119916,0.194027 -0.04991,0.352777 0.155569,0.352777 0.205479,0 0.373598,-0.15875 0.373598,-0.352777 z m 31.750002,48.869208 c 1.185281,-1.290306 3.50495,-2.466481 3.962348,-2.009084 0.192842,0.192843 0.264932,0.489268 0.160199,0.658728 -0.228508,0.369736 -2.886445,1.693813 -4.122547,2.053685 L 53.09306,66.057081 Z M 12.170834,52.563889 c -0.119916,-0.194028 0.02946,-0.352778 0.331958,-0.352778 0.302493,0 0.549987,0.15875 0.549987,0.352778 0,0.194027 -0.149381,0.352777 -0.331958,0.352777 -0.182577,0 -0.430071,-0.15875 -0.549987,-0.352777 z M 8.3003499,46.441265 C 7.8718822,46.127963 7.7297628,45.746091 7.8880835,45.333514 c 0.1625099,-0.423495 0.00803,-0.793231 -0.4718474,-1.129351 -1.027773,-0.719882 -0.9167298,-2.643328 0.32244,-5.585174 0.6483171,-1.539131 1.495048,-2.855242 2.2630799,-3.5176 0.67495,-0.582084 1.282181,-1.37401 1.349403,-1.759838 0.06722,-0.385828 0.398211,-0.754655 0.735532,-0.819617 0.803,-0.154644 0.831044,1.224972 0.04261,2.096181 -1.3566,1.499027 -3.2167187,8.459357 -2.8205255,10.554056 0.2486991,1.314884 -0.1902803,1.867338 -1.0084256,1.269094 z"
         />
      <path
         style="fill:#66000a;stroke-width:0.35277778"
         d="m 35.454169,75.587137 c -1.068629,-0.130599 -5.240854,-1.608396 -6.120272,-2.167795 -0.345119,-0.219534 0.07857,-0.61987 1.542378,-1.457378 2.877589,-1.646389 9.33051,-8.38279 9.338137,-9.748365 0.0014,-0.264167 -0.585555,-0.364472 -1.692413,-0.289179 -0.93207,0.0634 -1.890494,-0.0057 -2.129829,-0.153663 -0.239335,-0.14792 -0.494584,-1.049662 -0.567221,-2.003876 -0.07264,-0.954215 -0.146088,-1.853999 -0.163226,-1.99952 -0.01714,-0.145521 -0.339295,-0.264583 -0.7159,-0.264583 -0.376605,0 -0.800262,-0.186923 -0.94146,-0.415389 -0.315995,-0.511288 1.797342,-2.349885 3.037307,-2.642447 1.390307,-0.328034 3.527778,-1.61218 3.527778,-2.119415 0,-0.253668 0.3175,-0.659497 0.705555,-0.901841 0.421954,-0.263514 0.705556,-0.822688 0.705556,-1.391137 0,-0.522777 0.148904,-1.342157 0.330902,-1.820841 0.241388,-0.634905 0.09824,-1.809905 -0.529167,-4.343675 -0.47304,-1.910334 -0.860069,-3.838162 -0.860069,-4.284066 0,-0.445901 -0.396875,-1.556258 -0.881944,-2.467459 -0.48507,-0.9112 -0.881945,-1.884101 -0.881945,-2.162001 0,-0.988136 1.664822,1.039879 2.818064,3.432841 0.625143,1.297167 1.278692,2.634142 1.452336,2.971059 0.173641,0.336917 0.315712,0.773776 0.315712,0.970795 0,0.197023 0.772597,1.985116 1.716885,3.973537 0.944284,1.988425 1.838819,4.012191 1.98785,4.497261 0.455873,1.48379 1.930936,4.116042 2.693042,4.805736 0.702204,0.635487 0.734342,0.635395 1.201455,-0.0035 0.688975,-0.94223 0.274712,-4.823696 -0.794932,-7.448151 -1.492966,-3.663114 -1.867087,-5.196875 -2.103677,-8.624323 -0.182048,-2.637236 -0.398036,-3.580197 -1.035085,-4.518942 -0.442772,-0.652456 -0.723929,-1.397643 -0.624802,-1.655971 0.274479,-0.715279 -1.795674,-2.850568 -3.574048,-3.686502 -0.870846,-0.409236 -1.583355,-0.979189 -1.583355,-1.266453 0,-0.46639 0.748266,-3.713819 0.920856,-3.996456 0.152809,-0.250242 2.99521,0.788693 3.359863,1.228074 0.572018,0.68924 1.865094,0.576864 2.59092,-0.225165 0.865999,-0.956919 1.24225,-0.595107 1.24225,1.19458 0,1.823982 0.552387,3.542852 1.597424,4.970712 0.426018,0.582083 0.955256,1.59796 1.17608,2.257504 0.522873,1.561696 0.514086,6.327142 -0.0164,8.89553 -0.336014,1.626831 -0.327551,2.132154 0.0432,2.578876 0.581702,0.70091 1.917171,0.718295 2.486438,0.03238 0.399693,-0.481601 0.880907,-3.455169 1.250234,-7.725604 0.08193,-0.947339 0.390881,-2.666722 0.686555,-3.820852 0.295673,-1.154148 0.537587,-2.403114 0.537587,-2.775498 0,-0.92159 0.20065,-0.860979 1.554128,0.469465 1.200358,1.179929 1.482908,1.929114 1.927983,5.112074 0.168917,1.208006 0.527347,2.099321 1.034045,2.571383 0.426529,0.397376 0.775511,0.875065 0.775511,1.061537 0,0.186467 0.277813,0.344074 0.617361,0.350234 0.339549,0.0062 1.150405,0.547045 1.801901,1.201967 l 1.18454,1.190766 -0.799758,0.428018 c -0.494767,0.264792 -1.46207,0.349575 -2.536515,0.222324 -1.533867,-0.181666 -1.830818,-0.104203 -2.541901,0.663071 -0.442832,0.47782 -0.916595,0.868764 -1.052813,0.868764 -0.557516,0 -2.670037,1.886391 -2.670037,2.384231 0,0.295127 -0.239702,0.712848 -0.53267,0.928268 -0.292968,0.215417 -0.599384,1.026668 -0.680925,1.802779 -0.278617,2.651929 -1.695087,5.461995 -2.755156,5.465826 -0.339548,0.0011 -0.617361,0.14545 -0.617361,0.320495 0,0.175049 -0.436562,0.475337 -0.970139,0.667304 -0.533576,0.191971 -1.331055,0.693409 -1.772176,1.114309 -0.441124,0.420899 -1.393624,1.007113 -2.116666,1.302695 -5.106657,2.087615 -5.645821,2.659041 -4.438055,4.703629 0.780317,1.320972 4.203796,3.535464 5.465626,3.535464 1.170121,0 1.166851,-0.01577 0.472024,2.274821 -0.616787,2.033302 -1.013658,2.370776 -2.474278,2.103949 -0.94089,-0.171884 -1.17687,-0.0351 -1.940278,1.124701 -1.400828,2.128182 -2.301597,2.592215 -5.278837,2.719412 -1.455208,0.06217 -3.122083,0.05484 -3.704167,-0.0163 z m 6.879168,-3.620471 c 0,-0.194027 -0.238125,-0.352777 -0.529167,-0.352777 -0.291042,0 -0.529167,0.15875 -0.529167,0.352777 0,0.194028 0.238125,0.352778 0.529167,0.352778 0.291042,0 0.529167,-0.15875 0.529167,-0.352778 z M 32.498591,58.083795 C 32.069769,57.567096 32.313172,57.15 33.043521,57.15 c 0.525533,0 0.643954,0.909411 0.157565,1.210017 -0.172043,0.106331 -0.488166,-0.01796 -0.702495,-0.276222 z m -2.710541,-4.0322 C 29.411916,53.705668 28.350106,53.136913 27.428474,52.787694 26.506842,52.43848 25.75278,52.036835 25.75278,51.895156 c 0,-0.819104 4.645279,-3.917378 5.873376,-3.917378 0.262143,0 0.476624,-0.238125 0.476624,-0.529167 0,-0.291042 0.135569,-0.529167 0.301264,-0.529167 0.165696,0 0.711802,-0.380474 1.213569,-0.845495 0.501767,-0.465021 1.043788,-0.901584 1.20449,-0.970139 0.160702,-0.06856 0.64647,-0.582616 1.079487,-1.142358 1.049461,-1.3566 0.987224,-0.662146 -0.279068,3.113881 -1.156003,3.447154 -1.545504,4.157656 -3.41158,6.223177 -1.429011,1.581742 -1.498417,1.603318 -2.422892,0.753085 z M 64.558338,52.94552 c 0,-1.051454 0.380284,-1.792742 0.919689,-1.792742 0.611318,0 0.611109,0.0045 -0.06358,1.35691 -0.63875,1.2804 -0.856107,1.391056 -0.856107,0.435832 z M 23.304645,51.354842 c -0.532426,-0.641534 -0.334793,-1.030609 0.432073,-0.850611 0.329648,0.07738 0.426614,0.34864 0.275582,0.770943 -0.213193,0.59611 -0.27342,0.60289 -0.707655,0.07967 z m 2.977301,-4.636661 c -0.582083,-0.302331 -1.956209,-1.457237 -3.053612,-2.566458 -1.674811,-1.692847 -2.035453,-2.284653 -2.245398,-3.684672 -0.275171,-1.834967 0.213928,-2.869759 1.207372,-2.55445 0.782222,0.248267 2.451904,-0.718355 4.790895,-2.773569 1.568535,-1.378234 2.248833,-1.742284 3.374486,-1.805798 0.775438,-0.04375 1.495127,0.05837 1.599309,0.226941 0.104182,0.16857 -0.06305,0.306492 -0.371637,0.306492 -0.308582,0 -0.652435,0.238125 -0.764118,0.529166 -0.111683,0.291042 -0.582951,0.529167 -1.047262,0.529167 -0.46431,0 -1.084942,0.277812 -1.37918,0.617361 -3.186494,3.67719 -3.698355,4.420521 -3.698355,5.370816 0,1.206553 0.296982,1.460948 1.376088,1.178754 0.628215,-0.164282 0.749328,-0.381268 0.582907,-1.044346 -0.162516,-0.647513 0.20443,-1.375329 1.621027,-3.215199 1.825495,-2.370945 2.569522,-2.747366 3.653016,-1.848146 0.958287,0.795309 -0.46354,7.054649 -1.602484,7.054649 -0.202287,0 -0.255352,0.386387 -0.124607,0.907316 0.181184,0.721896 -0.01182,1.154462 -0.944427,2.116667 -1.331557,1.373819 -1.513484,1.413905 -2.97402,0.655309 z M 31.97234,32.587287 c -1.42547,-0.741594 -2.086112,-0.870617 -3.880556,-0.757867 -1.189438,0.07474 -2.480115,0.258177 -2.868171,0.407646 -0.625426,0.240899 -0.635442,0.226682 -0.08819,-0.125181 0.339548,-0.218319 0.617361,-0.687118 0.617361,-1.041774 0,-1.104978 0.944895,-1.507778 3.981353,-1.697216 2.286842,-0.142671 3.177792,-0.05689 4.03999,0.38897 1.382657,0.714999 1.617125,1.086965 1.188583,1.88559 -0.186438,0.347441 -0.424958,0.909524 -0.530046,1.249073 -0.243531,0.786869 -0.388414,0.768658 -2.46032,-0.309241 z m 3.490575,-5.26948 c -1.433718,-0.74759 -2.941611,-2.622184 -2.737397,-3.403099 0.09135,-0.349323 -0.03402,-0.876249 -0.278595,-1.170946 -0.778681,-0.938254 -0.105316,-0.952325 1.358301,-0.02838 1.340597,0.846282 2.358696,1.979318 3.759499,4.183928 0.609148,0.958684 0.606576,0.970113 -0.217897,0.967965 -0.458879,-0.0012 -1.306636,-0.248454 -1.883911,-0.549464 z M 59.972227,20.65832 c 0,-0.49652 0.15875,-0.902765 0.352778,-0.902765 0.194027,0 0.352777,0.308131 0.352777,0.684736 0,0.376605 -0.15875,0.782849 -0.352777,0.902764 -0.200082,0.123657 -0.352778,-0.172725 -0.352778,-0.684735 z"
         />
    </g>
</svg>
