<?xml version="1.0" encoding="UTF-8" standalone="no"?>
<!-- Created with Inkscape (http://www.inkscape.org/) -->

<svg
   xmlns:dc="http://purl.org/dc/elements/1.1/"
   xmlns:cc="http://creativecommons.org/ns#"
   xmlns:rdf="http://www.w3.org/1999/02/22-rdf-syntax-ns#"
   xmlns:svg="http://www.w3.org/2000/svg"
   xmlns="http://www.w3.org/2000/svg"
   xmlns:sodipodi="http://sodipodi.sourceforge.net/DTD/sodipodi-0.dtd"
   xmlns:inkscape="http://www.inkscape.org/namespaces/inkscape"
   width="300"
   height="300"
   viewBox="0 0 79.375 79.375"
   version="1.1"
   id="svg8"
   inkscape:version="0.92.3 (unknown)"
   sodipodi:docname="logo.svg">
  <defs
     id="defs2" />
  <sodipodi:namedview
     id="base"
     pagecolor="#ffffff"
     bordercolor="#666666"
     borderopacity="1.0"
     inkscape:pageopacity="0"
     inkscape:pageshadow="2"
     inkscape:zoom="1"
     inkscape:cx="155.84166"
     inkscape:cy="215.40191"
     inkscape:document-units="px"
     inkscape:current-layer="layer1"
     showgrid="false"
     fit-margin-top="0"
     fit-margin-left="0"
     fit-margin-right="0"
     fit-margin-bottom="0"
     units="px"
     inkscape:pagecheckerboard="false"
     inkscape:window-width="1920"
     inkscape:window-height="1056"
     inkscape:window-x="0"
     inkscape:window-y="24"
     inkscape:window-maximized="1" />
  <metadata
     id="metadata5">
    <rdf:RDF>
      <cc:Work
         rdf:about="">
        <dc:format>image/svg+xml</dc:format>
        <dc:type
           rdf:resource="http://purl.org/dc/dcmitype/StillImage" />
        <dc:title></dc:title>
      </cc:Work>
    </rdf:RDF>
  </metadata>
  <g
     inkscape:label="Layer 1"
     inkscape:groupmode="layer"
     id="layer1">
    <path
       style="fill:#000000;fill-opacity:1;stroke:none;stroke-width:0.26458332;stroke-opacity:1"
       d="M 29.518417,64.010006 C 35.005894,63.24677 41.54678,60.30913 46.155163,56.538122 l 0.779118,-0.637548 -1.70516,0.266853 C 42.32765,56.621497 34.07922,56.523959 31.284746,56.002529 24.048884,54.65237 17.892656,51.332376 13.838742,46.59407 11.438724,43.788872 9.0258694,39.611573 7.0221483,34.792708 6.4578688,33.435639 6.2415679,33.78051 5.6964604,36.906391 c -1.3857838,7.946673 1.347515,16.978505 6.5875046,21.767561 4.75046,4.341654 10.836371,6.225945 17.234452,5.336054 z"
       id="path909"
       inkscape:connector-curvature="0" />
    <path
       style="fill:#000000;fill-opacity:1;stroke:none;stroke-width:0.26458332;stroke-opacity:1"
       d="M 29.457227,51.924479 C 27.710757,49.782651 24.730798,45.20941 23.552374,42.8625 19.663807,35.118162 18.737729,28.008966 20.636648,20.479428 c 0.585792,-2.322769 3.072075,-7.634379 4.88623,-10.438775 l 1.179007,-1.8225579 -1.378547,0.5386377 c -5.00734,1.9565112 -10.637251,6.4082722 -13.263819,10.4881492 -2.02089,3.139072 -2.5953155,4.960888 -2.7375883,8.682389 -0.1915057,5.009311 0.7270433,8.474194 3.2773143,12.362442 1.656736,2.525927 5.214432,6.021014 8.193919,8.049726 2.729902,1.858769 8.033386,4.602207 9.835402,5.087752 0.03805,0.01024 -0.489048,-0.665967 -1.171339,-1.502712 z"
       id="path905"
       inkscape:connector-curvature="0" />
    <path
       style="fill:#000000;fill-opacity:1;stroke:none;stroke-width:0.26458332;stroke-opacity:1"
       d="M 74.239313,38.364583 C 73.967792,32.654944 72.850412,28.125124 70.684681,23.954241 68.456368,19.66283 64.19696,16.066335 60.194494,15.096694 58.732608,14.742536 54.57153,14.662646 52.51872,14.949324 c -5.667941,0.791537 -11.399843,3.170419 -15.306048,6.352392 -1.378172,1.122652 -3.346005,3.383155 -3.346005,3.843647 0,0.109139 0.902967,-0.08831 2.006592,-0.438777 3.668106,-1.16484 6.500841,-1.548509 11.222574,-1.519995 3.813003,0.02303 4.698156,0.114137 6.992573,0.719759 4.767921,1.258518 9.39089,3.954317 12.16932,7.096321 2.374833,2.685592 5.779521,8.488109 7.191748,12.256704 l 0.495744,1.322917 0.219395,-1.5875 c 0.120669,-0.873125 0.154284,-2.956719 0.0747,-4.630209 z"
       id="path901"
       inkscape:connector-curvature="0" />
    <path
       style="fill:#000000;fill-opacity:1;stroke:none;stroke-width:0.26458332;stroke-opacity:1"
       d="m 26.040473,34.692913 c 1.242254,-5.010976 3.921925,-9.827508 7.623703,-13.703097 3.902771,-4.086019 8.415417,-6.894859 13.563949,-8.442708 2.219595,-0.667296 2.735681,-0.71784 7.602149,-0.744523 5.96316,-0.0327 5.833763,0.108109 1.992865,-2.168542 C 54.178785,8.0666291 51.227659,6.8301158 48.268721,6.0497646 46.303946,5.5316009 45.280294,5.429051 42.201042,5.4419003 c -3.282937,0.0137 -3.944869,0.095705 -5.820834,0.7211263 -2.385134,0.7951727 -5.564738,2.7304818 -7.578894,4.6129974 -3.916357,3.66039 -6.19596,8.887945 -6.492519,14.888559 -0.210756,4.264449 0.500293,8.276006 2.128387,12.007829 0.56056,1.284883 0.564771,1.287881 0.743193,0.529167 0.09869,-0.419672 0.485735,-1.99857 0.860098,-3.508666 z"
       id="path893"
       inkscape:connector-curvature="0" />
    <path
       style="opacity:1;fill:#6cb94f;fill-opacity:1;stroke:none;stroke-width:1.13077176;stroke-miterlimit:4;stroke-dasharray:none;stroke-opacity:1"
       d="M 29.405762,53.537252 C 27.007126,52.614412 22.463365,50.155879 20.260864,48.589144 17.716505,46.779227 14.403971,43.663454 12.901736,41.667139 10.209852,38.089903 8.9663098,34.453044 8.74879,29.521457 8.6395404,27.04456 8.6876937,26.367262 9.0844544,24.800188 10.400488,19.602289 14.388677,14.598008 20.161074,10.901519 c 2.212978,-1.417132 6.843541,-3.504822 7.13262,-3.2157428 0.06551,0.065512 -0.550717,1.2308457 -1.369402,2.5896298 -1.643999,2.728574 -3.537503,6.614461 -4.392199,9.013756 -0.949664,2.66589 -1.172735,4.356644 -1.159241,8.786426 0.01421,4.663194 0.324536,6.472873 1.776452,10.35929 1.620994,4.338994 3.79359,8.160009 7.200284,12.663371 1.110594,1.468112 2.019779,2.744366 2.020414,2.836124 0.0019,0.272444 -0.473985,0.176236 -1.96424,-0.397121 z"
       id="path923"
       inkscape:connector-curvature="0" />
    <path
       style="opacity:1;fill:#ef7542;fill-opacity:1;stroke:none;stroke-width:1.13077176;stroke-miterlimit:4;stroke-dasharray:none;stroke-opacity:1"
       d="m 24.102731,38.075546 c -0.441603,-0.955791 -1.063118,-2.700641 -1.381146,-3.877442 -0.537535,-1.989047 -0.90889,-3.369909 -0.813852,-6.889046 -0.0037,0.827379 0.28046,-5.006358 0.722268,-6.595087 0.988959,-3.556251 2.737536,-6.541474 5.565322,-9.501284 1.97631,-2.0685804 3.216351,-3.0151294 5.292891,-4.0401702 5.910678,-2.9176853 12.901118,-2.6817748 20.326464,0.6859688 2.186035,0.9914705 4.822198,2.5443864 5.898232,3.4745454 l 0.860425,0.74378 -3.546161,0.147067 c -1.950386,0.08089 -4.512431,0.147401 -5.693433,0.147809 -1.88141,6.35e-4 -2.432235,0.09889 -4.448823,0.793497 -5.201397,1.791593 -8.727459,3.95056 -12.317474,7.541846 -4.41956,4.421127 -7.16983,9.540771 -8.707558,16.209184 -0.314895,1.365549 -0.658419,2.576036 -0.763388,2.689973 -0.111002,0.120489 -0.526784,-0.519919 -0.993767,-1.530641 z"
       id="path925"
       inkscape:connector-curvature="0"
       sodipodi:nodetypes="ssccssssccccsscs" />
    <path
       style="opacity:1;fill:#ea545f;fill-opacity:1;stroke:none;stroke-width:1.13077176;stroke-miterlimit:4;stroke-dasharray:none;stroke-opacity:1"
       d="M 73.626278,44.675259 C 72.310463,41.508311 71.80967,40.419167 70.711305,38.335687 68.146924,33.471325 65.120019,29.75286 62.149926,27.818282 57.196793,24.592043 52.256642,23.295535 45.718608,23.505998 c -3.808884,0.12261 -6.404544,0.55517 -10.732786,1.788589 -2.224786,0.633998 -2.344603,0.538106 -1.243145,-0.994929 2.509777,-3.493169 7.203284,-6.682896 12.365418,-8.403591 3.813884,-1.271282 6.229678,-1.668224 10.176468,-1.672107 4.07303,-0.004 5.096666,0.244544 7.933597,1.926369 6.038525,3.579839 9.613665,10.737771 10.418607,20.859512 0.245686,3.089394 0.02122,7.383209 -0.42749,8.177549 -0.179256,0.317336 -0.272347,0.235558 -0.582999,-0.512131 z"
       id="path927"
       inkscape:connector-curvature="0" />
    <path
       style="opacity:1;fill:#eb589f;fill-opacity:1;stroke:none;stroke-width:1.13077176;stroke-miterlimit:4;stroke-dasharray:none;stroke-opacity:1"
       d="m 50.365346,73.537 c 0.0019,-0.09176 0.827617,-1.12876 1.835139,-2.304455 4.730131,-5.519642 7.343048,-9.968608 8.441524,-14.373222 0.640775,-2.569355 0.693105,-8.998966 0.09458,-11.621619 -1.394421,-6.110197 -4.836943,-12.807103 -9.244243,-17.983284 -0.866341,-1.017479 -1.575162,-1.951344 -1.575162,-2.075256 0,-0.274683 0.822311,-0.111347 3.225395,0.640661 11.166464,3.494371 20.550052,16.007048 19.241177,25.657421 -1.08327,7.986961 -7.172343,15.49387 -16.233034,20.012877 -2.040953,1.01792 -5.068721,2.213708 -5.605177,2.213708 -0.100914,0 -0.182004,-0.07507 -0.180202,-0.166831 z"
       id="path929"
       inkscape:connector-curvature="0" />
    <path
       style="opacity:1;fill:#2fb7e9;fill-opacity:1;stroke:none;stroke-width:1.13077176;stroke-miterlimit:4;stroke-dasharray:none;stroke-opacity:1"
       d="m 33.637274,75.358088 c -3.390749,-0.293174 -7.659919,-1.753487 -11.006661,-3.764936 -3.70299,-2.225564 -7.908052,-6.421353 -5.94067,-5.927572 1.901081,0.477142 7.323011,1.29376 9.273111,1.396662 2.688319,0.141853 5.668917,-0.244481 8.786425,-1.138862 2.623005,-0.752515 7.285937,-3.051612 9.745083,-4.804892 2.381009,-1.697572 6.18114,-5.605224 8.217654,-8.450167 1.388272,-1.939367 4.61504,-7.91931 4.61504,-8.552725 0,-0.151596 0.148489,-0.398862 0.329978,-0.549481 0.272354,-0.226036 0.364416,-0.18224 0.527219,0.250814 0.830717,2.209665 1.063424,9.643994 0.401225,12.81797 -1.886006,9.039799 -7.407384,15.72937 -14.888522,18.038587 -1.316022,0.406218 -6.226728,0.981676 -7.589721,0.889397 -0.257506,-0.01744 -1.369076,-0.109593 -2.470161,-0.204795 z"
       id="path931"
       inkscape:connector-curvature="0" />
    <path
       style="opacity:1;fill:#148e9b;fill-opacity:1;stroke:none;stroke-width:1.13077176;stroke-miterlimit:4;stroke-dasharray:none;stroke-opacity:1"
       d="M 21.147006,64.584572 C 17.437232,63.517321 13.869148,61.219575 11.196137,58.554012 8.6649035,56.029831 6.2142663,52.432525 5.4633735,47.836863 5.1887654,46.15619 4.7644256,45.425914 4.7644256,41.485813 c 0,-3.556003 0.2557087,-4.797976 0.569391,-5.953675 0.4667705,-1.719723 1.024804,-2.781872 1.024804,-2.781872 0.5967333,0.04188 1.1876873,2.340972 2.4972108,4.812265 2.9854936,5.63413 4.0357356,7.706927 6.6341856,10.182265 5.408037,5.151811 12.266704,7.501437 19.966854,8.310946 3.787108,0.398134 9.919732,-0.211651 11.791021,-0.654304 0.777674,-0.183959 1.159555,0.451911 0,1.436349 -3.918421,3.665958 -11.451289,7.058418 -16.210399,7.815982 -2.466438,0.392612 -9.890487,0.377794 -9.890487,-0.0692 z"
       id="path933"
       inkscape:connector-curvature="0"
       sodipodi:nodetypes="csssscsssscssc" />
  </g>
</svg>
