<svg width="1866.6667" height="1866.6667" viewBox="0 0 493.8889 493.88892"
  xmlns="http://www.w3.org/2000/svg">
  <title>Freecodecamp Logo</title>

  <g
     id="freecodecamp-logo">
     <rect x="0" y="0" width="493.8889" height="493.8889"
       style="fill: #306203; stroke: none;" />
    <path
       style="opacity:1;fill:#ffffff;fill-opacity:1;stroke:none;stroke-width:17.09513283;stroke-miterlimit:4;stroke-dasharray:none;stroke-opacity:1"
       d="m 446.64384,1394.3951 c -20.03176,-6.8866 -47.815,-30.483 -76.33725,-64.8333 -83.11417,-100.0972 -125.62833,-197.0864 -142.36909,-324.7922 -5.93759,-45.29441 -6.75698,-128.71412 -1.67238,-170.25903 4.99834,-40.84011 22.49025,-112.222 33.35306,-136.10884 24.41592,-53.68958 33.16919,-71.12113 46.43835,-92.47888 33.70576,-54.25207 83.05182,-112.27934 116.34216,-136.80966 17.40917,-12.82813 21.79123,-14.52098 37.58843,-14.52098 15.31263,0 18.88329,1.2731 24.85173,8.86074 14.0735,17.89155 8.16332,29.83042 -40.42974,81.67027 -47.02845,50.17071 -70.4301,82.80523 -95.44453,133.10117 -37.76462,75.93246 -52.20349,141.50705 -52.20349,237.08375 0,119.22426 26.51266,216.14336 83.25396,304.34156 19.48099,30.2811 36.11651,50.7412 68.35644,84.0722 44.55509,46.0629 51.48692,62.2196 35.06686,81.7337 -10.04279,11.9352 -20.61145,14.5029 -36.79451,8.9395 z"
       id="path1" transform="scale(0.26458333)" />
    <path
       style="opacity:1;fill:#ffffff;fill-opacity:1;stroke:none;stroke-width:17.09513283;stroke-miterlimit:4;stroke-dasharray:none;stroke-opacity:1"
       d="m 847.39343,1172.4942 c -30.67803,-11.2645 -61.89294,-31.0587 -87.88114,-55.7279 -42.16439,-40.0243 -62.59162,-79.1276 -69.50777,-133.05688 -7.27939,-56.76158 6.09225,-94.99677 67.3088,-192.4644 60.66154,-96.58398 76.32137,-133.93877 73.38052,-175.04111 -2.32141,-32.44473 -14.78849,-57.76718 -40.21145,-81.67534 -17.31241,-16.28086 -19.83185,-20.06162 -16.24713,-24.38095 8.68892,-10.46951 53.68032,-3.55311 88.8228,13.65448 40.97512,20.06355 76.15733,59.17469 92.02116,102.2975 3.7423,10.17274 11.64175,42.7087 17.55433,72.30213 5.91257,29.59343 13.56092,60.2439 16.99633,68.11216 10.01067,22.92786 32.56582,26.74631 47.34762,8.01567 9.0662,-11.48816 6.8012,-30.64848 -7.1467,-60.45446 -12.1508,-25.96574 -12.488,-30.80637 -2.1457,-30.80637 10.3687,0 29.3526,14.18315 54.5036,40.72049 54.4682,57.47051 75.7946,112.91859 76.0613,197.7573 0.2711,86.20418 -22.8158,138.45498 -85.9309,194.48108 -30.9771,27.4978 -53.8456,39.8611 -64.6367,34.9444 -4.4425,-2.0241 -8.0773,-6.1186 -8.0773,-9.0987 0,-2.9802 10.3754,-17.0107 23.0565,-31.1789 46.2586,-51.6833 59.1126,-92.0563 45.7181,-143.59565 -6.3556,-24.45477 -20.9903,-51.16533 -32.9091,-60.064 -11.5559,-8.62777 -13.441,-6.06171 -8.8732,12.07855 6.353,25.23015 3.3851,39.97337 -9.8344,48.85217 -16.88719,11.34215 -37.44808,10.4863 -51.57447,-2.14684 l -10.98245,-9.82148 v -48.42478 c 0,-46.71256 -0.31409,-48.89972 -8.88289,-61.8569 -12.62969,-19.09776 -29.40907,-35.04081 -42.74209,-40.61171 -15.30533,-6.39496 -21.60463,-0.93627 -11.44053,9.91386 16.40421,17.51143 18.97636,47.99535 6.31722,74.86884 -5.72187,12.14673 -18.45125,26.58331 -45.85466,52.00454 -45.51402,42.22182 -53.68806,56.32733 -53.73858,92.7339 -0.0428,30.8644 7.38162,58.4787 22.34583,83.1125 11.72875,19.3076 31.34409,36.9693 46.06108,41.4735 12.19259,3.7316 16.24648,8.3665 11.8993,13.6045 -4.72194,5.6896 -14.30446,5.5273 -30.77733,-0.5212 z"
       id="path2" transform="scale(0.26458333)" />
    <path
       style="opacity:1;fill:#ffffff;fill-opacity:1;stroke:none;stroke-width:17.09513283;stroke-miterlimit:4;stroke-dasharray:none;stroke-opacity:1"
       d="m 594.37555,1324.2829 c -12.40259,-5.4053 -17.88857,-11.7665 -21.7455,-25.2149 -4.02363,-14.0295 1.41602,-32.0878 12.22748,-40.5921 8.67793,-6.8261 11.33271,-6.8788 346.59406,-6.8788 h 337.84911 l 9.5093,10.1797 c 5.23,5.5988 10.4629,14.5219 11.6285,19.829 3.0018,13.6667 -5.8441,32.4575 -19.0777,40.5258 -10.9678,6.6869 -15.9602,6.7851 -339.0135,6.6678 -262.41993,-0.095 -329.89625,-0.997 -337.97175,-4.5165 z"
       id="path3" transform="scale(0.26458333)" />
    <path
       style="opacity:1;fill:#ffffff;fill-opacity:1;stroke:none;stroke-width:17.09513283;stroke-miterlimit:4;stroke-dasharray:none;stroke-opacity:1"
       d="m 1335.0533,1395.932 c -3.2368,-1.8853 -8.1837,-7.8726 -10.9929,-13.3052 -7.6787,-14.8488 -1.2634,-26.2656 38.7307,-68.9261 91.4032,-97.4971 130.518,-174.9582 148.5309,-294.143 13.1552,-87.0434 2.7747,-198.34854 -26.1366,-280.25213 -26.2363,-74.32524 -56.8312,-122.78912 -122.6108,-194.22175 -40.2808,-43.74252 -47.1651,-56.82525 -38.6087,-73.37156 13.8135,-26.71226 44.067,-22.4954 81.7629,11.39645 41.3219,37.15195 96.1167,113.20466 123.6174,171.57545 43.2581,91.81604 58.8072,167.90422 58.7059,287.27175 -0.096,112.61079 -13.8623,173.04039 -60.6711,266.31789 -37.0724,73.8754 -110.8955,164.0375 -151.1082,184.5524 -14.2571,7.2735 -31.7952,8.5949 -41.2195,3.1058 z"
       id="path4" transform="scale(0.26458333)" />
  </g>
</svg>
