<svg width="100" height="100" viewBox="0 0 26.458332 26.458334"
   xmlns="http://www.w3.org/2000/svg">

  <g transform="translate(0,-102.81403)">
    <g transform="matrix(0.2045145,0,0,0.2045145,0,102.91163)">
      <path
         transform="matrix(0.26458333,0,0,0.26458333,0,1.2536284e-6)"
         d="M 156.79492,85.882812 C 70.199443,85.882725 -8.7261161e-5,156.08225 0,242.67773 c -9.3888592e-5,86.59548 70.199438,156.79502 156.79492,156.79493 84.75805,-0.0518 154.1319,-67.45067 156.63086,-152.17188 V 217.30664 H 169.54492 c 0,0 -3.99454,1.24325 -5.43945,2.56055 -1.4812,1.35038 -2.70117,4.93359 -2.70117,4.93359 v 44.71875 c -0.0234,2.22708 1.17881,3.28968 2.38476,4.47266 0.99367,0.97474 3.72071,1.89258 3.72071,1.89258 h 81.32421 c -12.24563,40.38313 -49.75801,69.78068 -94.14062,69.78125 -54.32578,3.9e-4 -98.36563,-44.03946 -98.365235,-98.36524 6.88e-4,-54.32502 44.040215,-98.36367 98.365235,-98.36328 24.5692,0.0219 48.18231,9.23428 66.24414,25.73047 1.10899,1.01285 2.26333,1.47716 3.53125,1.42383 1.07594,-0.0453 2.88477,-1.45508 2.88477,-1.45508 l 15.99804,-15.99805 c 7.50993,-7.51018 14.48089,-14.4701 21.35156,-21.32812 1.37728,-1.37473 2.06371,-2.61141 2.06836,-4.16016 0.004,-1.43235 -0.55515,-2.58374 -1.89062,-3.85937 C 235.81597,101.52851 197.12971,85.937021 156.79492,85.882812 Z"
         style="fill:#f34a38;stroke:none;" />
    </g>
    <path
       style="fill:#f34a38;stroke:none;"
       d="M 81.194261,64.958342 C 80.965734,64.841812 80.665822,64.592613 80.52779,64.404563 80.2886,64.0787 80.27398,63.868307 80.216235,59.921033 l -0.06059,-4.141621 -4.202205,-0.06059 c -5.739063,-0.08275 -5.309682,0.324274 -5.30996,-5.033442 -1.83e-4,-3.536584 0.0076,-3.655006 0.272459,-4.171622 C 71.412263,45.545845 71.443527,45.54 76.124639,45.54 h 4.091596 l 1.94e-4,-4.089706 c 2.18e-4,-4.69316 0.0066,-4.727479 0.964606,-5.210588 0.524707,-0.264595 0.646389,-0.272569 4.12,-0.269986 3.267411,0.0024 3.623985,0.02293 4.09182,0.235308 0.295903,0.134324 0.615788,0.402064 0.7569,0.633515 0.232502,0.381347 0.244427,0.602982 0.244857,4.551163 l 4.47e-4,4.150294 4.089706,1.94e-4 c 4.500703,2.06e-4 4.622966,0.01831 5.171681,0.765817 0.238804,0.325321 0.252798,0.522035 0.288784,4.059413 0.02373,2.332383 -0.0091,3.877423 -0.08818,4.146673 -0.0693,0.236033 -0.294313,0.590474 -0.500033,0.787647 l -0.374038,0.358491 -4.263667,0.06059 -4.263667,0.06059 -0.06059,4.125585 c -0.06704,4.565047 -0.06008,4.525518 -0.885113,5.02857 -0.361817,0.220614 -0.63386,0.236133 -4.143711,0.23638 -3.337439,2.43e-4 -3.802819,-0.02337 -4.171974,-0.211605 z"
       transform="matrix(0.26458333,0,0,0.26458333,0,102.81403)" />
  </g>
</svg>
