<svg	width="211"	height="105"	viewBox="0 0 211.66666 105.83334"
	xmlns="http://www.w3.org/2000/svg"
	xmlns:xlink="http://www.w3.org/1999/xlink" preserveAspectRatio="none">
	<title>Infinity Symbol</title>

  <path
     style="fill: none; stroke: #000; stroke-width: 3px; stroke-opacity: 1" id="infinity"
     d="m 103.81117,52.984018 c 0,0 12.09729,15.045973 27.39828,27.214036 11.84234,9.417591 17.86541,16.512488 36.61861,16.669777 16.8294,0.141154 38.53596,-14.62794 37.9068,-44.198392 -0.62916,-29.570455 -27.52569,-40.580731 -37.74951,-40.738021 -10.22383,-0.157289 -27.52569,6.606166 -42.15363,21.705974 -14.62794,15.099805 -44.51297,45.299417 -44.51297,45.299417 0,0 -17.773732,18.40289 -38.221385,17.931022 C 22.64971,96.395962 5.1905585,75.476438 5.0332687,54.242334 4.8759792,33.008231 22.177841,12.560577 43.726523,12.245998 c 21.548682,-0.31458 42.782786,22.49242 42.782786,22.49242 z" />

</svg>
