<?xml version="1.0" encoding="UTF-8" standalone="no"?>
<!-- Created with Inkscape (http://www.inkscape.org/) -->

<svg
   xmlns:dc="http://purl.org/dc/elements/1.1/"
   xmlns:cc="http://creativecommons.org/ns#"
   xmlns:rdf="http://www.w3.org/1999/02/22-rdf-syntax-ns#"
   xmlns:svg="http://www.w3.org/2000/svg"
   xmlns="http://www.w3.org/2000/svg"
   xmlns:sodipodi="http://sodipodi.sourceforge.net/DTD/sodipodi-0.dtd"
   xmlns:inkscape="http://www.inkscape.org/namespaces/inkscape"
   width="36.176304mm"
   height="54.976429mm"
   viewBox="0 0 36.176304 54.976429"
   version="1.1"
   id="svg8"
   inkscape:version="0.92.2 (unknown)"
   sodipodi:docname="parrot.svg">
  <defs
     id="defs2">
    <clipPath
       clipPathUnits="userSpaceOnUse"
       id="clipPath20">
      <path
         d="M 0,800 H 800 V 0 H 0 Z"
         id="path18"
         inkscape:connector-curvature="0" />
    </clipPath>
  </defs>
  <sodipodi:namedview
     id="base"
     pagecolor="#ffffff"
     bordercolor="#666666"
     borderopacity="1.0"
     inkscape:pageopacity="0.0"
     inkscape:pageshadow="2"
     inkscape:zoom="4.6682885"
     inkscape:cx="68.364669"
     inkscape:cy="103.89246"
     inkscape:document-units="mm"
     inkscape:current-layer="g16"
     showgrid="false"
     showborder="false"
     inkscape:window-width="1920"
     inkscape:window-height="1176"
     inkscape:window-x="0"
     inkscape:window-y="24"
     inkscape:window-maximized="1"
     fit-margin-top="0"
     fit-margin-left="0"
     fit-margin-right="0"
     fit-margin-bottom="0" />
  <metadata
     id="metadata5">
    <rdf:RDF>
      <cc:Work
         rdf:about="">
        <dc:format>image/svg+xml</dc:format>
        <dc:type
           rdf:resource="http://purl.org/dc/dcmitype/StillImage" />
        <dc:title></dc:title>
      </cc:Work>
    </rdf:RDF>
  </metadata>
  <g
     inkscape:label="Layer 1"
     inkscape:groupmode="layer"
     id="layer1"
     style="display:inline"
     transform="translate(346.45969,11.187943)">
    <g
       id="g10"
       transform="matrix(0.35277777,0,0,-0.35277777,-352.77778,255.92641)"
       inkscape:groupmode="layer">
      <path
         d="m 122.49703,-162.93486 h 800 v 799.999 h -800 z"
         style="display:none;fill:#ede1dd;fill-opacity:1;fill-rule:nonzero;stroke:none"
         id="path12"
         inkscape:connector-curvature="0" />
      <g
         id="g14"
         style="display:inline">
        <g
           id="g16"
           clip-path="url(#clipPath20)"
           style="display:inline"
           inkscape:groupmode="layer">
          <g
             id="g174"
             transform="translate(399.9014,758.9893)">
            <path
               d="M 0,0 C 0.077,0.132 0.164,0.287 0.261,0.464 0.357,0.642 0.456,0.826 0.56,1.017 0.662,1.208 0.771,1.396 0.888,1.58 1.004,1.764 1.113,1.929 1.217,2.074 L 3.909,5.694 6.167,5.717 2.68,1.107 6.779,-4.35 4.364,-4.374 1.319,-0.32 0.193,-1.667 0.222,-4.416 -1.781,-4.436 -1.883,5.636 0.12,5.657 0.154,2.221 C 0.158,1.854 0.14,1.458 0.098,1.032 0.057,0.606 0.023,0.262 0,0"
               style="fill:#68a284;fill-opacity:1;fill-rule:nonzero;stroke:none"
               id="path176"
               inkscape:connector-curvature="0" />
          </g>
          <g
             transform="translate(-93.87609,277.73512)"
             id="g5305">
            <path
               inkscape:connector-curvature="0"
               id="path5303"
               style="fill:#68a284;fill-opacity:1;fill-rule:nonzero;stroke:none"
               d="m 0,0 c -21.328,0 -40.051,14.83 -50.748,37.181 1.986,-23.119 13.07,-50.885 50.914,-50.885 37.336,0 48.982,28.381 50.947,51.647 C 40.48,15.166 21.57,0 0,0" />
          </g>
          <g
             transform="translate(-43.34099,335.56522)"
             id="g5309">
            <path
               inkscape:connector-curvature="0"
               id="path5307"
               style="fill:#5eea99;fill-opacity:1;fill-rule:nonzero;stroke:none"
               d="m 0,0 c -10.732,-22.104 -29.35,-36.738 -50.535,-36.738 -20.903,0 -39.313,14.238 -50.108,35.847 -0.685,-3.712 -1.002,-7.549 -1.002,-11.43 0,-2.662 0.116,-5.461 0.362,-8.328 10.697,-22.351 29.42,-37.181 50.748,-37.181 21.57,0 40.48,15.166 51.113,37.943 0.219,2.601 0.324,5.14 0.324,7.566 C 0.902,-8.129 0.641,-3.987 0,0" />
          </g>
          <g
             transform="translate(-93.71009,369.93732)"
             id="g5313">
            <path
               inkscape:connector-curvature="0"
               id="path5311"
               style="fill:#b6382f;fill-opacity:1;fill-rule:nonzero;stroke:none"
               d="m 0,0 c -32.949,0 -46.701,-15.891 -50.273,-35.263 10.794,-21.609 29.205,-35.847 50.107,-35.847 21.186,0 39.803,14.634 50.535,36.738 C 47.318,-15.407 35.467,0 0,0" />
          </g>
          <g
             transform="translate(-83.48749,419.14722)"
             id="g5317">
            <path
               inkscape:connector-curvature="0"
               id="path5315"
               style="fill:#b6382f;fill-opacity:1;fill-rule:nonzero;stroke:none"
               d="m 0,0 c 0.289,-1.715 -0.289,-6.049 -4.449,-10.762 -1.834,-2.076 -1.668,-1.654 -2.369,-2.699 -0.703,-1.049 -1.571,-1.986 -2.627,-2.797 -1.076,-0.797 -1.436,-1.265 -3.143,-1.637 -0.295,1.719 -0.517,2.049 -0.639,4.182 -0.072,1.328 0.223,3.188 0.928,4.231 0.709,1.043 1.492,2.152 3.192,3.31 C -8.027,-5.375 -1.531,-2.896 0,0" />
          </g>
          <g
             transform="translate(-95.64369,322.92552)"
             id="g5321">
            <path
               inkscape:connector-curvature="0"
               id="path5319"
               style="fill:#b6382f;fill-opacity:1;fill-rule:nonzero;stroke:none"
               d="M 0,0 H 0.004 C 0.367,-0.052 0.734,-0.09 1.115,-0.101 0.734,-0.09 0.365,-0.052 0,0 m -27.314,53.251 -0.014,0.018 c 0,0 0.002,-0.086 0.002,-0.219 -0.061,-0.788 -0.117,-1.579 -0.117,-2.384 0,-0.244 0.023,-0.484 0.029,-0.729 -0.166,-2.961 -0.606,-7.585 -1.893,-12.461 -0.908,-3.42 -2.226,-6.964 -4.179,-10.146 -1.418,-2.318 -2.541,-4.951 -3.442,-7.665 -3.533,-10.631 -3.547,-22.592 -3.547,-22.592 0.555,-22.955 19.323,-56.69 42.409,-56.69 v 59.569 23.062 57.029 c -15.352,0 -27.938,-11.78 -29.248,-26.792" />
          </g>
          <g
             style="display:inline"
             transform="translate(-54.68079,342.12382)"
             id="g5325">
            <path
               inkscape:connector-curvature="0"
               id="path5323"
               style="fill:#ea575b;fill-opacity:1;fill-rule:nonzero;stroke:none"
               d="m 0,0 c -0.92,2.876 -2.084,5.675 -3.58,8.132 -1.783,2.927 -3.047,6.157 -3.941,9.313 -1.532,5.39 -1.995,10.572 -2.145,13.667 0,0.119 0.014,0.238 0.014,0.356 0,0.535 -0.053,1.059 -0.08,1.588 -0.012,0.632 -0.002,1.014 -0.002,1.014 L -9.779,34.004 C -11.07,49.042 -23.66,60.845 -39.029,60.845 V 3.815 -19.246 -78.815 c 23.105,0 41.883,33.766 42.406,56.742 0,0 -0.012,11.576 -3.377,22.073" />
          </g>
          <g
             transform="translate(-103.08899,378.42852)"
             id="g5329">
            <path
               inkscape:connector-curvature="0"
               id="path5327"
               style="fill:#caba9f;fill-opacity:1;fill-rule:nonzero;stroke:none"
               d="m 0,0 c -1.377,-2.412 -2.814,-6.37 -1.504,-8.573 l 8.33,-13.988 c 0.656,-1.106 1.522,-1.658 2.387,-1.658 V 9.572 C 6.379,9.572 0.906,1.587 0,0" />
          </g>
          <g
             transform="translate(-91.49139,355.86792)"
             id="g5333">
            <path
               inkscape:connector-curvature="0"
               id="path5331"
               style="fill:#ddd2c0;fill-opacity:1;fill-rule:nonzero;stroke:none"
               d="m 0,0 8.33,13.987 c 1.315,2.203 0.145,5.638 -1.504,8.574 -0.685,1.221 -6.846,9.572 -9.211,9.572 V -1.658 c 0.864,0 1.731,0.552 2.385,1.658" />
          </g>
          <g
             transform="translate(-115.48359,382.73322)"
             id="g5337">
            <path
               inkscape:connector-curvature="0"
               id="path5335"
               style="fill:#07171b;fill-opacity:1;fill-rule:nonzero;stroke:none"
               d="M 0,0 C 0,-2.979 1.492,-5.394 3.336,-5.394 5.178,-5.394 6.67,-2.979 6.67,0 6.67,2.979 5.178,5.393 3.336,5.393 1.492,5.393 0,2.979 0,0" />
          </g>
          <g
             transform="translate(-111.90929,384.82402)"
             id="g5341">
            <path
               inkscape:connector-curvature="0"
               id="path5339"
               style="fill:#ffffff;fill-opacity:1;fill-rule:nonzero;stroke:none"
               d="m 0,0 c 0,-0.799 -0.65,-1.448 -1.449,-1.448 -0.801,0 -1.449,0.649 -1.449,1.448 0,0.801 0.648,1.448 1.449,1.448 C -0.65,1.448 0,0.801 0,0" />
          </g>
          <g
             transform="translate(-78.60859,382.73322)"
             id="g5345">
            <path
               inkscape:connector-curvature="0"
               id="path5343"
               style="fill:#07171b;fill-opacity:1;fill-rule:nonzero;stroke:none"
               d="M 0,0 C 0,-2.979 1.492,-5.394 3.334,-5.394 5.176,-5.394 6.67,-2.979 6.67,0 6.67,2.979 5.176,5.393 3.334,5.393 1.492,5.393 0,2.979 0,0" />
          </g>
          <g
             transform="translate(-75.03629,384.82402)"
             id="g5349">
            <path
               inkscape:connector-curvature="0"
               id="path5347"
               style="fill:#ffffff;fill-opacity:1;fill-rule:nonzero;stroke:none"
               d="m 0,0 c 0,-0.799 -0.65,-1.448 -1.449,-1.448 -0.799,0 -1.447,0.649 -1.447,1.448 0,0.801 0.648,1.448 1.447,1.448 C -0.65,1.448 0,0.801 0,0" />
          </g>
          <g
             transform="translate(-110.49139,266.29762)"
             id="g5353">
            <path
               inkscape:connector-curvature="0"
               id="path5351"
               style="fill:#caba9f;fill-opacity:1;fill-rule:nonzero;stroke:none"
               d="m 0,0 c 0,-1.65 -1.338,-2.989 -2.988,-2.989 -1.653,0 -2.991,1.339 -2.991,2.989 v 5.396 c 0,1.65 1.338,2.989 2.991,2.989 C -1.338,8.385 0,7.046 0,5.396 Z" />
          </g>
          <g
             transform="translate(-104.50899,266.29762)"
             id="g5357">
            <path
               inkscape:connector-curvature="0"
               id="path5355"
               style="fill:#caba9f;fill-opacity:1;fill-rule:nonzero;stroke:none"
               d="m 0,0 c 0,-1.65 -1.34,-2.989 -2.99,-2.989 -1.653,0 -2.992,1.339 -2.992,2.989 v 5.396 c 0,1.65 1.339,2.989 2.992,2.989 C -1.34,8.385 0,7.046 0,5.396 Z" />
          </g>
          <g
             transform="translate(-98.52849,266.29762)"
             id="g5361">
            <path
               inkscape:connector-curvature="0"
               id="path5359"
               style="fill:#caba9f;fill-opacity:1;fill-rule:nonzero;stroke:none"
               d="m 0,0 c 0,-1.65 -1.338,-2.989 -2.99,-2.989 -1.653,0 -2.99,1.339 -2.99,2.989 v 5.396 c 0,1.65 1.337,2.989 2.99,2.989 C -1.338,8.385 0,7.046 0,5.396 Z" />
          </g>
          <g
             transform="translate(-82.91329,266.29762)"
             id="g5365">
            <path
               inkscape:connector-curvature="0"
               id="path5363"
               style="fill:#ddd2c0;fill-opacity:1;fill-rule:nonzero;stroke:none"
               d="m 0,0 c 0,-1.65 -1.338,-2.989 -2.99,-2.989 -1.653,0 -2.99,1.339 -2.99,2.989 v 5.396 c 0,1.65 1.337,2.989 2.99,2.989 C -1.338,8.385 0,7.046 0,5.396 Z" />
          </g>
          <g
             transform="translate(-76.93279,266.29762)"
             id="g5369">
            <path
               inkscape:connector-curvature="0"
               id="path5367"
               style="fill:#ddd2c0;fill-opacity:1;fill-rule:nonzero;stroke:none"
               d="M 0,0 C 0,-1.65 -1.338,-2.989 -2.988,-2.989 -4.643,-2.989 -5.98,-1.65 -5.98,0 v 5.396 c 0,1.65 1.337,2.989 2.992,2.989 C -1.338,8.385 0,7.046 0,5.396 Z" />
          </g>
          <g
             transform="translate(-70.95039,266.29762)"
             id="g5373">
            <path
               inkscape:connector-curvature="0"
               id="path5371"
               style="fill:#ddd2c0;fill-opacity:1;fill-rule:nonzero;stroke:none"
               d="m 0,0 c 0,-1.65 -1.34,-2.989 -2.992,-2.989 -1.651,0 -2.99,1.339 -2.99,2.989 v 5.396 c 0,1.65 1.339,2.989 2.99,2.989 C -1.34,8.385 0,7.046 0,5.396 Z" />
          </g>
          <g
             transform="translate(-79.71789,413.70582)"
             id="g5377">
            <path
               inkscape:connector-curvature="0"
               id="path5375"
               style="fill:#ea575b;fill-opacity:1;fill-rule:nonzero;stroke:none"
               d="m 0,0 c 0.293,-1.713 -1.836,-8.194 -4.098,-10.682 -0.896,-0.984 -5.269,-5.559 -9.746,-6.425 -0.295,1.72 -0.65,4.506 -0.314,5.803 0.353,1.282 1.322,3.355 4.769,4.882 C -4.393,-4.211 -2.277,-2.896 0,0" />
          </g>
          <g
             id="g5495"
             transform="translate(-332.67396,330.37966)">
            <g
               id="g5421"
               transform="translate(401.6934,285.3828)">
              <path
                 d="m 0,0 c -21.328,0 -40.051,14.83 -50.748,37.181 1.986,-23.119 13.07,-50.885 50.914,-50.885 37.336,0 48.982,28.381 50.947,51.647 C 40.48,15.166 21.57,0 0,0"
                 style="fill:#68a284;fill-opacity:1;fill-rule:nonzero;stroke:none"
                 id="path5419"
                 inkscape:connector-curvature="0" />
            </g>
            <g
               id="g5425"
               transform="translate(452.2285,343.2129)">
              <path
                 d="m 0,0 c -10.732,-22.104 -29.35,-36.738 -50.535,-36.738 -20.903,0 -39.313,14.238 -50.108,35.847 -0.685,-3.712 -1.002,-7.549 -1.002,-11.43 0,-2.662 0.116,-5.461 0.362,-8.328 10.697,-22.351 29.42,-37.181 50.748,-37.181 21.57,0 40.48,15.166 51.113,37.943 0.219,2.601 0.324,5.14 0.324,7.566 C 0.902,-8.129 0.641,-3.987 0,0"
                 style="fill:#5eea99;fill-opacity:1;fill-rule:nonzero;stroke:none"
                 id="path5423"
                 inkscape:connector-curvature="0" />
            </g>
            <g
               id="g5429"
               transform="translate(401.8594,377.585)">
              <path
                 d="m 0,0 c -32.949,0 -46.701,-15.891 -50.273,-35.263 10.794,-21.609 29.205,-35.847 50.107,-35.847 21.186,0 39.803,14.634 50.535,36.738 C 47.318,-15.407 35.467,0 0,0"
                 style="fill:#b6382f;fill-opacity:1;fill-rule:nonzero;stroke:none"
                 id="path5427"
                 inkscape:connector-curvature="0" />
            </g>
            <g
               id="g5433"
               transform="translate(412.082,426.7949)">
              <path
                 d="m 0,0 c 0.289,-1.715 -0.289,-6.049 -4.449,-10.762 -1.834,-2.076 -1.668,-1.654 -2.369,-2.699 -0.703,-1.049 -1.571,-1.986 -2.627,-2.797 -1.076,-0.797 -1.436,-1.265 -3.143,-1.637 -0.295,1.719 -0.517,2.049 -0.639,4.182 -0.072,1.328 0.223,3.188 0.928,4.231 0.709,1.043 1.492,2.152 3.192,3.31 C -8.027,-5.375 -1.531,-2.896 0,0"
                 style="fill:#b6382f;fill-opacity:1;fill-rule:nonzero;stroke:none"
                 id="path5431"
                 inkscape:connector-curvature="0" />
            </g>
            <g
               id="g5437"
               transform="translate(399.9258,330.5732)">
              <path
                 d="M 0,0 H 0.004 C 0.367,-0.052 0.734,-0.09 1.115,-0.101 0.734,-0.09 0.365,-0.052 0,0 m -27.314,53.251 -0.014,0.018 c 0,0 0.002,-0.086 0.002,-0.219 -0.061,-0.788 -0.117,-1.579 -0.117,-2.384 0,-0.244 0.023,-0.484 0.029,-0.729 -0.166,-2.961 -0.606,-7.585 -1.893,-12.461 -0.908,-3.42 -2.226,-6.964 -4.179,-10.146 -1.418,-2.318 -2.541,-4.951 -3.442,-7.665 -3.533,-10.631 -3.547,-22.592 -3.547,-22.592 0.555,-22.955 19.323,-56.69 42.409,-56.69 v 59.569 23.062 57.029 c -15.352,0 -27.938,-11.78 -29.248,-26.792"
                 style="fill:#b6382f;fill-opacity:1;fill-rule:nonzero;stroke:none"
                 id="path5435"
                 inkscape:connector-curvature="0" />
            </g>
            <g
               id="g5441"
               transform="translate(440.8887,349.7715)"
               style="display:inline">
              <path
                 d="m 0,0 c -0.92,2.876 -2.084,5.675 -3.58,8.132 -1.783,2.927 -3.047,6.157 -3.941,9.313 -1.532,5.39 -1.995,10.572 -2.145,13.667 0,0.119 0.014,0.238 0.014,0.356 0,0.535 -0.053,1.059 -0.08,1.588 -0.012,0.632 -0.002,1.014 -0.002,1.014 L -9.779,34.004 C -11.07,49.042 -23.66,60.845 -39.029,60.845 V 3.815 -19.246 -78.815 c 23.105,0 41.883,33.766 42.406,56.742 0,0 -0.012,11.576 -3.377,22.073"
                 style="fill:#ea575b;fill-opacity:1;fill-rule:nonzero;stroke:none"
                 id="path5439"
                 inkscape:connector-curvature="0" />
            </g>
            <g
               id="g5445"
               transform="translate(392.4805,386.0762)">
              <path
                 d="m 0,0 c -1.377,-2.412 -2.814,-6.37 -1.504,-8.573 l 8.33,-13.988 c 0.656,-1.106 1.522,-1.658 2.387,-1.658 V 9.572 C 6.379,9.572 0.906,1.587 0,0"
                 style="fill:#caba9f;fill-opacity:1;fill-rule:nonzero;stroke:none"
                 id="path5443"
                 inkscape:connector-curvature="0" />
            </g>
            <g
               id="g5449"
               transform="translate(404.0781,363.5156)">
              <path
                 d="m 0,0 8.33,13.987 c 1.315,2.203 0.145,5.638 -1.504,8.574 -0.685,1.221 -6.846,9.572 -9.211,9.572 V -1.658 c 0.864,0 1.731,0.552 2.385,1.658"
                 style="fill:#ddd2c0;fill-opacity:1;fill-rule:nonzero;stroke:none"
                 id="path5447"
                 inkscape:connector-curvature="0" />
            </g>
            <g
               id="g5453"
               transform="translate(380.0859,390.3809)">
              <path
                 d="M 0,0 C 0,-2.979 1.492,-5.394 3.336,-5.394 5.178,-5.394 6.67,-2.979 6.67,0 6.67,2.979 5.178,5.393 3.336,5.393 1.492,5.393 0,2.979 0,0"
                 style="fill:#07171b;fill-opacity:1;fill-rule:nonzero;stroke:none"
                 id="path5451"
                 inkscape:connector-curvature="0" />
            </g>
            <g
               id="g5457"
               transform="translate(383.6602,392.4717)">
              <path
                 d="m 0,0 c 0,-0.799 -0.65,-1.448 -1.449,-1.448 -0.801,0 -1.449,0.649 -1.449,1.448 0,0.801 0.648,1.448 1.449,1.448 C -0.65,1.448 0,0.801 0,0"
                 style="fill:#ffffff;fill-opacity:1;fill-rule:nonzero;stroke:none"
                 id="path5455"
                 inkscape:connector-curvature="0" />
            </g>
            <g
               id="g5461"
               transform="translate(416.9609,390.3809)">
              <path
                 d="M 0,0 C 0,-2.979 1.492,-5.394 3.334,-5.394 5.176,-5.394 6.67,-2.979 6.67,0 6.67,2.979 5.176,5.393 3.334,5.393 1.492,5.393 0,2.979 0,0"
                 style="fill:#07171b;fill-opacity:1;fill-rule:nonzero;stroke:none"
                 id="path5459"
                 inkscape:connector-curvature="0" />
            </g>
            <g
               id="g5465"
               transform="translate(420.5332,392.4717)">
              <path
                 d="m 0,0 c 0,-0.799 -0.65,-1.448 -1.449,-1.448 -0.799,0 -1.447,0.649 -1.447,1.448 0,0.801 0.648,1.448 1.447,1.448 C -0.65,1.448 0,0.801 0,0"
                 style="fill:#ffffff;fill-opacity:1;fill-rule:nonzero;stroke:none"
                 id="path5463"
                 inkscape:connector-curvature="0" />
            </g>
            <g
               id="g5469"
               transform="translate(385.0781,273.9453)">
              <path
                 d="m 0,0 c 0,-1.65 -1.338,-2.989 -2.988,-2.989 -1.653,0 -2.991,1.339 -2.991,2.989 v 5.396 c 0,1.65 1.338,2.989 2.991,2.989 C -1.338,8.385 0,7.046 0,5.396 Z"
                 style="fill:#caba9f;fill-opacity:1;fill-rule:nonzero;stroke:none"
                 id="path5467"
                 inkscape:connector-curvature="0" />
            </g>
            <g
               id="g5473"
               transform="translate(391.0605,273.9453)">
              <path
                 d="m 0,0 c 0,-1.65 -1.34,-2.989 -2.99,-2.989 -1.653,0 -2.992,1.339 -2.992,2.989 v 5.396 c 0,1.65 1.339,2.989 2.992,2.989 C -1.34,8.385 0,7.046 0,5.396 Z"
                 style="fill:#caba9f;fill-opacity:1;fill-rule:nonzero;stroke:none"
                 id="path5471"
                 inkscape:connector-curvature="0" />
            </g>
            <g
               id="g5477"
               transform="translate(397.041,273.9453)">
              <path
                 d="m 0,0 c 0,-1.65 -1.338,-2.989 -2.99,-2.989 -1.653,0 -2.99,1.339 -2.99,2.989 v 5.396 c 0,1.65 1.337,2.989 2.99,2.989 C -1.338,8.385 0,7.046 0,5.396 Z"
                 style="fill:#caba9f;fill-opacity:1;fill-rule:nonzero;stroke:none"
                 id="path5475"
                 inkscape:connector-curvature="0" />
            </g>
            <g
               id="g5481"
               transform="translate(412.6562,273.9453)">
              <path
                 d="m 0,0 c 0,-1.65 -1.338,-2.989 -2.99,-2.989 -1.653,0 -2.99,1.339 -2.99,2.989 v 5.396 c 0,1.65 1.337,2.989 2.99,2.989 C -1.338,8.385 0,7.046 0,5.396 Z"
                 style="fill:#ddd2c0;fill-opacity:1;fill-rule:nonzero;stroke:none"
                 id="path5479"
                 inkscape:connector-curvature="0" />
            </g>
            <g
               id="g5485"
               transform="translate(418.6367,273.9453)">
              <path
                 d="M 0,0 C 0,-1.65 -1.338,-2.989 -2.988,-2.989 -4.643,-2.989 -5.98,-1.65 -5.98,0 v 5.396 c 0,1.65 1.337,2.989 2.992,2.989 C -1.338,8.385 0,7.046 0,5.396 Z"
                 style="fill:#ddd2c0;fill-opacity:1;fill-rule:nonzero;stroke:none"
                 id="path5483"
                 inkscape:connector-curvature="0" />
            </g>
            <g
               id="g5489"
               transform="translate(424.6191,273.9453)">
              <path
                 d="m 0,0 c 0,-1.65 -1.34,-2.989 -2.992,-2.989 -1.651,0 -2.99,1.339 -2.99,2.989 v 5.396 c 0,1.65 1.339,2.989 2.99,2.989 C -1.34,8.385 0,7.046 0,5.396 Z"
                 style="fill:#ddd2c0;fill-opacity:1;fill-rule:nonzero;stroke:none"
                 id="path5487"
                 inkscape:connector-curvature="0" />
            </g>
            <g
               id="g5493"
               transform="translate(415.8516,421.3535)">
              <path
                 d="m 0,0 c 0.293,-1.713 -1.836,-8.194 -4.098,-10.682 -0.896,-0.984 -5.269,-5.559 -9.746,-6.425 -0.295,1.72 -0.65,4.506 -0.314,5.803 0.353,1.282 1.322,3.355 4.769,4.882 C -4.393,-4.211 -2.277,-2.896 0,0"
                 style="fill:#ea575b;fill-opacity:1;fill-rule:nonzero;stroke:none"
                 id="path5491"
                 inkscape:connector-curvature="0" />
            </g>
          </g>
        </g>
      </g>
    </g>
  </g>
</svg>
