<svg version="1.1" height="540" width="175" xmlns="http://www.w3.org/2000/svg" 
    style="stroke:black;stroke-width:1.5px;stroke-linejoin:round;stroke-linecap:round">

<path fill="black" d="m 103.9,504.5 -0.5,10.4 c 9.5,3.9 35.9,12.5 62.1,3.7 2.5,-0.9 2.3,-7.2 0.9,-11.3 -16.4,-26.9 -64.9,-25.7 -62.5,-2.8 z"/>
<path fill="#808080" d="m 103.9,504.5 -0.5,10.4 c 9.5,3.9 35.9,12.5 62.1,3.7 2.5,-0.9 2.3,-7.2 0.9,-11.3 -13.8,10.4 -46.1,2.1 -62.5,-2.8 z"/>
<path fill="black" d="m 45,507.5 c -2.5,-1.1 -3.2,10.3 -0.3,11.9 23.8,11.1 58.2,17.6 76.7,9.5 2.2,-1.4 3.1,-6.9 0.4,-12 C 98.4,484.3 
    48.3,490.2 45,507.5 Z"/>
<path fill="#808080" d="m 45,507.5 c -2.5,-1.1 -3.2,10.3 -0.3,11.9 23.8,11.1 58.2,17.6 76.7,9.5 2.2,-1.4 3.1,-6.9 0.4,-12 -22.2,11.1 
    -55.2,0.2 -76.8,-9.4 z"/>
<path fill="white" d="m 125.7,489.7 c 1.5,-3.3 26.3,2 24.3,7.9 -1.6,4.3 -26.6,-1.9 -24.3,-7.9 z"/>
<path fill="none" d="m 138.9,498.5 c 1.4,-2.6 3.6,-5.8 7.5,-6.3"/>
<path fill="none" d="m 130.2,495.6 c 1.3,-2.6 3.9,-5.3 6.4,-6.7"/>
<path fill="white" d="m 80.3,496.2 c 2.7,-4 33.8,7.6 26.7,12.4 -6.2,2.9 -30.7,-6.5 -26.7,-12.4 z"/>
<path fill="none" d="m 87.7,505.7 c 2.3,-2.9 4.8,-5.7 10.4,-6.8"/>
<path fill="none" d="m 97,508.5 c 2.3,-3.5 5.3,-4.6 8.2,-5.7"/>
<path fill="#f0aa7d" d="m 139.2,313 c 7.3,20.2 5.8,38.2 -6.6,45.9 l -13.7,-46.3 z"/>
<path fill="none" d="m 128,342.8 c 7.4,2.9 9.4,1.1 8.4,-8.5 -0.3,-3 -0.9,-6.1 1.6,-8.7"/>
<path fill="#006c7c" d="m 128.4,304.4 c -27.9,7.2 -79.7,4.6 -91.2,2.2 13.1,61.1 13.7,125.8 3.6,193.3 -0.6,4.2 -1.5,7.9 3.7,8.1 
    8.8,-0.1 17.2,-2.9 23.6,-6.5 9.8,-5.7 19.7,-6.7 29.5,-2.4 4.8,2.6 13.8,-1 19.2,-4.2 6.2,-3.6 12.6,-5.4 
    19,-6.7 0,-5 -1.5,-6.9 -3,-8.5 13.6,-57.2 4.9,-107.2 -7.1,-156.1 -1.3,-6.4 1.1,-12.8 2.6,-19.2 z"/>
<path fill="#f0aa7d" d="m 29.3,331.1 c -4.7,5.6 -3.9,12.7 -1.9,17.7 2,4.8 -0.4,8.7 -3.9,14.4 -2.4,4.4 -0.6,8.7 3,8.2 -0.1,3 2.6,5.8 
    7,3.1 7.1,-5.3 9.8,-12.4 11.6,-19.9 0.7,5.1 0.1,10.1 -2.4,15.2 -2.2,4.5 6.4,6.5 8.2,2.1 6,-15.6 6.8,-30.6 -0.7,-44.5 z"/>
<path fill="none" d="m 26.6,371.5 c 5.6,-3.7 9.3,-8.8 11.1,-15.3"/>
<path fill="#f0aa7d" d="m 71.2,161.7 c 6.1,-16.5 5,-32.3 3.3,-48.1 -4.7,0.3 -9.2,-0.2 -11.3,-8.2 L 59.1,97.8 73.7,43 131.9,50.6 
    c 3,7.1 4.7,14.9 3.4,24.2 3.1,1.5 5.1,3.9 4.4,8.6 l -2,23.7 c 5.8,0.6 10.8,9.4 3.3,12.5 1.7,5.7 4.2,10.7 
    8,14.6 2.1,2.6 5.4,9.5 -1.3,9.4 -8.6,-0.1 -16.9,-0.9 -24.5,-3.4 0.4,3.5 -1.5,5.4 -4.3,7.4 -5.1,3.7 -6.8,10.7 -6.7,19.7 
    l -18.5,4.4 z"/>
<path fill="none" d="m 123.3,140.1 c -9.5,-2.8 -18.2,-6 -26.1,-9.6"/>
<path fill="none" d="m 94.5,132.9 5.2,-5.2"/>
<path fill="#d78023" d="M 85.7,105.7 C 76.2,82 63.4,91.2 63.2,105.5 41.9,93.9 39.3,78.8 52.6,60.6 L 38,44 53.8,48.1 V 27.2 l 11.4,14.6 
    c 11.4,-19.3 37.1,-19.3 50.3,-4.9 2,-11.7 -0.7,-21.7 -4,-31.5 10.5,5.4 19.6,14.2 26.3,28 1.4,-9 -1,-17.7 
    -4.9,-26.3 11.1,9 19.3,20.8 19.7,42.9 0.2,26.6 -13.7,21.7 -29.5,13.4 -11.2,-6 -27.6,-15.9 -42.9,-10.3 
    5.2,5.5 8.3,11.7 10.6,18.3 -5.6,-3.1 -10.8,-7.8 -17.4,-7.2 11.8,16.4 12.8,29.1 12.1,41.3 z"/>
<path fill="none" d="M 76.7,101.7 C 76,97.8 73.9,95.6 67.8,97.7"/>
<path fill="none" d="m 72.9,97 c -5.5,1.5 -5,11.8 3.1,9.4"/>
<path fill="none" d="m 141,119.6 c -5.9,0.9 -11,-1.3 -16.3,-2.2"/>
<path fill="white" d="m 69.8,151.6 c 2,12 36.2,24.8 44.9,5.4 l 13.7,147.3 c -30.1,14.6 -71.3,6.6 -91.2,2.2 z"/>
<path fill="white" d="m 120.4,88 c 3.8,-7.9 11.9,-6.7 18.9,-5 7.1,2.3 7.3,20.2 -1.6,24.1 l -7.2,-1.4 c -1.8,-4.3 -4,-8.3 -8.4,-9.4 z"/>
<ellipse fill="white" ry="15.10939" rx="13.174129" cy="94.886116" cx="109.9"/>
<ellipse fill="black" ry="2.4966211" rx="2.0987005" cy="94.942169" cx="115.7"/>
<ellipse fill="black" ry="2.4966211" rx="2.0987005" cy="94.606995" cx="140.1"/>
<path fill="#961e1e" d="m 75.4,141.7 c -6.7,4 -12.7,8.1 -16.8,14.7 -22.3,12.3 -34.7,19.3 -40.3,38.9 -8.1,28.5 -16.3,57.1 -8,105 
    1.8,9.3 6.9,17 12.3,25.1 0.3,3.4 1.3,6 3.1,7.5 8.6,1.3 21.7,1.5 29,-5.2 0.3,-2.5 -0.2,-3.9 -0.7,-5.3 
    0.7,-1.6 1,-3.2 1.1,-4.8 11.1,4.2 18.6,3.5 27,3.9 11.5,0.5 12.3,-8.9 11.2,-14.3 2.6,-17.9 3.4,-35.7 1,-53.2 
    -2.1,-16.5 -1.1,-32.3 -0.9,-47.9 C 93.5,196 89.4,184.9 83.5,175.6 78.6,167.1 71.6,161 75.4,141.7 Z"/>
<path fill="none" d="m 22.6,325.4 c 11.5,1.7 22.7,2.5 31.4,-2.93255"/>
<path fill="none" d="m 55.1,317.7 c 0,-12.4 -3,-23.8 -6.2,-35.2 -3.8,-16.4 -3.5,-37.7 -2.2,-56.6 0.9,-14.6 -3,-34.3 -14.6,-46.9"/>
<path fill="none" d="m 54.2,304.3 c 10.7,2.3 22.2,4.2 39,3.04121"/>
<path fill="none" d="m 58.7,156.4 c -2.3,11.7 -1.1,22.6 0.7,33.4 8.6,-9.8 17.3,-16.6 26.5,-3.4"/>
<path fill="#961e1e" d="m 115.5,151.5 c -4.4,7.4 -2.8,19.3 -3.2,31.6 -0.1,19.3 0.1,38.4 2.6,55.4 2.7,16.7 3.6,40.3 1.2,62.3 -0.4,2.4 
    -0,3.9 1.9,4.4 -1.8,3.6 -1.8,7.3 0.1,10.9 3.3,-0.1 6.6,-0.3 9.1,-2.8 -0.6,1.2 -1.3,2.5 -1.2,3.5 5,0.8 
    10.3,-0.6 15.3,-1.5 1.6,-0.4 1.7,-4.4 1.4,-6.7 3.6,-14.8 -0,-35.2 -3.8,-55.8 -3.1,-17 -4.4,-34.3 -5.3,-52.4 
    -0.5,-11.3 -2.4,-21.1 -8.3,-28.7 -2.9,-9.1 -6.4,-15.4 -9.9,-20.2 z"/>
<path fill="none" d="m 127.3,313.3 c 5.2,-18.2 8.2,-37 1.5,-59.2 -4,-14.3 -4.6,-41 -4.9,-71"/>
<path fill="none" d="m 118,305.2 c 6.2,-0.1 9.7,-1.7 12.2,-3.9"/>
<path fill="none" d="m 128.1,310.7 c 4.4,0 8.7,0.3 14.7,-2.0"/>
<path fill="none" d="m 125.4,171.7 c 1.1,3.7 2.2,7.4 2,12 -0.2,2.8 -2.1,2 -3.5,-0.6 -3.2,-7 -7.3,-5.6 -9.7,4.3"/>
<path fill="none" d="m 97.6,499.1 c 1.5,-6.5 -1,-8.8 -3.4,-11.3 8.5,-46.4 14.4,-92.7 5.8,-138.1 4.9,-1.3 8.6,-4.8 12.5,-8"/>

</svg>
