<?xml version="1.0" encoding="UTF-8" standalone="no"?>
<!-- Created with Inkscape (http://www.inkscape.org/) -->

<svg
   xmlns:dc="http://purl.org/dc/elements/1.1/"
   xmlns:cc="http://creativecommons.org/ns#"
   xmlns:rdf="http://www.w3.org/1999/02/22-rdf-syntax-ns#"
   xmlns:svg="http://www.w3.org/2000/svg"
   xmlns="http://www.w3.org/2000/svg"
   xmlns:sodipodi="http://sodipodi.sourceforge.net/DTD/sodipodi-0.dtd"
   xmlns:inkscape="http://www.inkscape.org/namespaces/inkscape"
   width="100"
   height="100"
   viewBox="0 0 100 100"
   version="1.1"
   id="svg8"
   inkscape:version="0.92.3 (unknown)"
   sodipodi:docname="ship resized.svg">
  <defs
     id="defs2">
    <inkscape:path-effect
       effect="skeletal"
       id="path-effect864"
       is_visible="true"
       pattern="m 63.610148,34.56001 c 0,-2.76 2.24,-5 5,-5 2.76,0 5,2.24 5,5 0,2.76 -2.24,5 -5,5 -2.76,0 -5,-2.24 -5,-5 z"
       copytype="single_stretched"
       prop_scale="0.1165253"
       scale_y_rel="false"
       spacing="0"
       normal_offset="0"
       tang_offset="0"
       prop_units="false"
       vertical_pattern="false"
       fuse_tolerance="0" />
    <inkscape:path-effect
       effect="skeletal"
       id="path-effect856"
       is_visible="true"
       pattern="m 63.610148,34.56001 c 0,-2.76 2.24,-5 5,-5 2.76,0 5,2.24 5,5 0,2.76 -2.24,5 -5,5 -2.76,0 -5,-2.24 -5,-5 z"
       copytype="single_stretched"
       prop_scale="0.1165253"
       scale_y_rel="false"
       spacing="0"
       normal_offset="0"
       tang_offset="0"
       prop_units="false"
       vertical_pattern="false"
       fuse_tolerance="0" />
    <inkscape:path-effect
       effect="skeletal"
       id="path-effect852"
       is_visible="true"
       pattern="m 63.610148,34.56001 c 0,-2.76 2.24,-5 5,-5 2.76,0 5,2.24 5,5 0,2.76 -2.24,5 -5,5 -2.76,0 -5,-2.24 -5,-5 z"
       copytype="single_stretched"
       prop_scale="0.1165253"
       scale_y_rel="false"
       spacing="0"
       normal_offset="0"
       tang_offset="0"
       prop_units="false"
       vertical_pattern="false"
       fuse_tolerance="0" />
    <inkscape:path-effect
       effect="skeletal"
       id="path-effect848"
       is_visible="true"
       pattern="m 63.610148,34.56001 c 0,-2.76 2.24,-5 5,-5 2.76,0 5,2.24 5,5 0,2.76 -2.24,5 -5,5 -2.76,0 -5,-2.24 -5,-5 z"
       copytype="single_stretched"
       prop_scale="0.50851604"
       scale_y_rel="false"
       spacing="0"
       normal_offset="0"
       tang_offset="0"
       prop_units="false"
       vertical_pattern="false"
       fuse_tolerance="0" />
    <inkscape:path-effect
       effect="skeletal"
       id="path-effect844"
       is_visible="true"
       pattern="m 63.610148,34.56001 c 0,-2.76 2.24,-5 5,-5 2.76,0 5,2.24 5,5 0,2.76 -2.24,5 -5,5 -2.76,0 -5,-2.24 -5,-5 z"
       copytype="single_stretched"
       prop_scale="0.38335897"
       scale_y_rel="false"
       spacing="0"
       normal_offset="0"
       tang_offset="0"
       prop_units="false"
       vertical_pattern="false"
       fuse_tolerance="0" />
    <inkscape:path-effect
       effect="skeletal"
       id="path-effect840"
       is_visible="true"
       pattern="m 63.142426,33.437478 c 0,-2.76 2.24,-5 5,-5 2.76,0 5,2.24 5,5 0,2.76 -2.24,5 -5,5 -2.76,0 -5,-2.24 -5,-5 z"
       copytype="single_stretched"
       prop_scale="0.26458333"
       scale_y_rel="false"
       spacing="0"
       normal_offset="0"
       tang_offset="0"
       prop_units="false"
       vertical_pattern="false"
       fuse_tolerance="0" />
    <inkscape:path-effect
       effect="skeletal"
       id="path-effect836"
       is_visible="true"
       pattern="m 65.481035,32.689123 c 0,-2.76 2.24,-5 5,-5 2.76,0 5,2.24 5,5 0,2.76 -2.24,5 -5,5 -2.76,0 -5,-2.24 -5,-5 z"
       copytype="single_stretched"
       prop_scale="0.26458333"
       scale_y_rel="false"
       spacing="0"
       normal_offset="0"
       tang_offset="0"
       prop_units="false"
       vertical_pattern="false"
       fuse_tolerance="0" />
    <inkscape:path-effect
       effect="skeletal"
       id="path-effect832"
       is_visible="true"
       pattern="m 63.610148,34.56001 c 0,-2.76 2.24,-5 5,-5 2.76,0 5,2.24 5,5 0,2.76 -2.24,5 -5,5 -2.76,0 -5,-2.24 -5,-5 z"
       copytype="single_stretched"
       prop_scale="0.43628429"
       scale_y_rel="false"
       spacing="0"
       normal_offset="0"
       tang_offset="0"
       prop_units="false"
       vertical_pattern="false"
       fuse_tolerance="0" />
    <inkscape:path-effect
       effect="skeletal"
       id="path-effect828"
       is_visible="true"
       pattern="m 63.610148,34.56001 c 0,-2.76 2.24,-5 5,-5 2.76,0 5,2.24 5,5 0,2.76 -2.24,5 -5,5 -2.76,0 -5,-2.24 -5,-5 z"
       copytype="single_stretched"
       prop_scale="0.26458333"
       scale_y_rel="false"
       spacing="0"
       normal_offset="0"
       tang_offset="0"
       prop_units="false"
       vertical_pattern="false"
       fuse_tolerance="0" />
  </defs>
  <sodipodi:namedview
     id="base"
     pagecolor="#ffffff"
     bordercolor="#666666"
     borderopacity="1.0"
     inkscape:pageopacity="0.0"
     inkscape:pageshadow="2"
     inkscape:zoom="1.2015291"
     inkscape:cx="23.408574"
     inkscape:cy="240.09584"
     inkscape:document-units="px"
     inkscape:current-layer="layer1"
     showgrid="false"
     showborder="true"
     fit-margin-top="0"
     fit-margin-left="0"
     fit-margin-right="0"
     fit-margin-bottom="0"
     inkscape:window-width="1920"
     inkscape:window-height="1056"
     inkscape:window-x="0"
     inkscape:window-y="24"
     inkscape:window-maximized="1"
     units="px" />
  <metadata
     id="metadata5">
    <rdf:RDF>
      <cc:Work
         rdf:about="">
        <dc:format>image/svg+xml</dc:format>
        <dc:type
           rdf:resource="http://purl.org/dc/dcmitype/StillImage" />
        <dc:title></dc:title>
      </cc:Work>
    </rdf:RDF>
  </metadata>
  <g
     inkscape:label="Layer 1"
     inkscape:groupmode="layer"
     id="layer1"
     transform="translate(-232.54639,-505.27867)">
    <g
       id="g875"
       transform="matrix(1.17725,0,0,1.17725,-46.041427,223.05559)">
      <path
         sodipodi:nodetypes="cc"
         inkscape:original-d="m 239.55792,309.68289 c 41.05311,9.32249 57.8736,-3.9048 79.11057,-13.02232"
         inkscape:path-effect="#path-effect828"
         inkscape:connector-curvature="0"
         id="path826"
         d="m 239.55792,309.68289 c 0.12613,-0.55543 11.18196,2.27549 26.68229,1.93871 0,-10e-6 0,0 0,0 4.38349,-0.0939 9.06541,-0.51605 13.91311,-1.42288 2.07515,-0.38818 4.09108,-0.84846 6.04586,-1.37308 0,0 10e-6,0 10e-6,0 8.37716,-2.23382 18.11596,-6.73252 22.96009,-8.79008 5.77998,-2.45508 9.36884,-3.70195 9.50921,-3.37499 0.11984,0.27913 -3.21263,2.07901 -8.7727,4.94451 -4.93736,2.54457 -14.00092,7.21783 -23.00646,9.74275 0,-10e-6 0,0 0,0 -2.01834,0.56254 -4.10312,1.0494 -6.24956,1.45102 -5.01495,0.93836 -9.85972,1.31698 -14.37643,1.30601 0,0 0,0 0,0 -16.10843,-0.0444 -26.73787,-4.27907 -26.70542,-4.42197 z"
         style="fill:#0000ff;fill-opacity:0.61349697;stroke:none;stroke-width:0.26458332px;stroke-linecap:butt;stroke-linejoin:miter;stroke-opacity:1" />
      <path
         sodipodi:nodetypes="cccc"
         inkscape:original-d="m 297.7048,308.93276 c -2.09266,3.22744 -2.66533,6.88915 -2.77745,10.68244 -16.90784,-0.51609 -33.79331,-0.96502 -50.42107,-0.64095 -3.06359,-2.10896 -3.60251,-3.93736 -4.16615,-5.76853"
         inkscape:path-effect="#path-effect832"
         inkscape:connector-curvature="0"
         id="path830"
         d="m 297.7048,308.93276 c 0.53392,0.34619 -1.42491,4.23691 -1.99824,11.50992 -5.99245,0.0724 -14.62131,0.10188 -23.77483,0.0931 -11.22108,-0.0107 -21.70344,-0.0703 -27.79286,-0.33796 -1.67623,-1.22569 -2.77829,-2.51661 -3.4127,-3.74163 0,0 0,0 0,0 -0.89967,-1.99879 -0.54119,-3.20276 -0.38604,-3.25051 0.30419,-0.0936 0.77798,1.04435 1.90515,2.30967 0,0 0,0 0,0 0.62519,0.80118 1.40798,1.46861 2.62841,2.23525 6.65673,-0.54938 15.55288,-0.66122 26.51764,-0.26029 8.34425,0.3051 16.92777,0.87235 22.75681,1.29737 -0.17678,-6.83299 2.99286,-10.22053 3.55666,-9.85496 z"
         style="fill:#0000ff;fill-opacity:0.61349697;stroke:none;stroke-width:0.43628427px;stroke-linecap:butt;stroke-linejoin:miter;stroke-opacity:1" />
      <path
         sodipodi:nodetypes="ccc"
         inkscape:original-d="m 285.92172,266.14058 c 5.5652,11.73943 11.18336,23.40823 18.44828,32.88135 -4.93528,1.04644 -9.4974,0.72462 -13.56491,-1.41075"
         inkscape:path-effect="#path-effect836"
         inkscape:connector-curvature="0"
         id="path834"
         d="m 285.92172,266.14058 c 0.34732,-0.16465 1.84451,2.33834 4.05181,6.58826 1.84135,3.54533 5.45378,10.89605 8.61508,16.4683 2.17648,3.83634 4.25755,7.11506 6.36889,10.04179 -4.49724,1.20136 -8.18929,0.94455 -10.6883,0.25134 -2.47231,-0.6858 -3.56325,-1.69025 -3.46411,-1.87909 0.14006,-0.26679 1.42845,0.32335 3.69264,0.84693 2.33756,0.54055 5.44918,0.91066 9.28477,0.34682 -2.31418,-2.84512 -4.62754,-6.03941 -6.92983,-9.68787 -3.72522,-5.90336 -6.61948,-11.74459 -8.45762,-15.87104 -1.86999,-4.19796 -2.79834,-6.95137 -2.47333,-7.10544 z"
         style="fill:#0000ff;fill-opacity:0.61349697;stroke:none;stroke-width:0.26458332px;stroke-linecap:butt;stroke-linejoin:miter;stroke-opacity:1" />
      <path
         sodipodi:nodetypes="ccc"
         inkscape:original-d="m 280.97865,269.49341 c 2.49236,12.0439 2.16017,25.43283 10.20081,34.83469 -3.74385,0.54268 -7.41695,1.1662 -13.13084,-0.54259"
         inkscape:path-effect="#path-effect840"
         inkscape:connector-curvature="0"
         id="path838"
         d="m 280.97865,269.49341 c 0.30175,-0.0624 0.99548,1.82387 1.73198,5.09521 0.73483,3.26396 1.40813,7.90054 2.54142,13.05636 0,0 0,0 0,0 0.38952,2.05776 0.86918,4.24472 1.49441,6.4016 1.23698,4.26732 2.8446,7.72223 4.96066,10.47993 -8.55669,1.75819 -13.85913,-0.0701 -13.6585,-0.741 0.0815,-0.27256 1.40406,-0.008 3.6077,0.23504 2.3889,0.26296 5.1363,0.40402 8.99548,0.10914 -2.54632,-2.6947 -4.61022,-6.01094 -6.13764,-10.00248 -0.77592,-2.02769 -1.34495,-4.05027 -1.76931,-5.96915 0,0 0,0 0,0 -0.90739,-4.77441 -1.40916,-10.61479 -1.64305,-13.31943 -0.28493,-3.29485 -0.42213,-5.28335 -0.12315,-5.34522 z"
         style="fill:#0000ff;fill-opacity:0.61349697;stroke:none;stroke-width:0.26458332px;stroke-linecap:butt;stroke-linejoin:miter;stroke-opacity:1" />
      <path
         sodipodi:nodetypes="cccc"
         inkscape:original-d="m 276.00092,307.70543 c -0.55485,-11.15014 -0.44886,-22.30026 2.20794,-33.4504 -4.74627,-3.93832 -10.68686,-6.68231 -16.89079,-9.16297 -0.4225,14.56359 -2.26392,28.41772 -5.63027,41.50939"
         inkscape:path-effect="#path-effect844"
         inkscape:connector-curvature="0"
         id="path842"
         d="m 276.00092,307.70543 c -0.38993,0.0194 -1.08294,-3.48627 -1.35971,-9.36642 -0.26777,-5.689 -0.15666,-14.36663 2.0899,-23.59078 0,0 0,0 0,0 -2.90887,-2.66228 -6.33229,-4.73183 -10.28638,-6.66244 -1.49959,-0.73219 -3.0284,-1.42208 -4.52847,-2.0821 0,0 0,0 0,0 0.007,11.92293 -1.10238,21.61473 -2.62959,29.14877 -1.47172,7.26028 -3.14828,11.56486 -3.59887,11.44899 -0.52496,-0.13498 0.35298,-4.65759 1.58901,-12.24081 1.2734,-7.81237 2.73653,-17.94669 3.44307,-30.1802 0,0 0,-10e-6 0,-10e-6 1.829,0.67106 3.71506,1.39019 5.59915,2.17523 4.9603,2.06681 9.45257,4.40605 13.36758,7.40617 0,0 0,1e-5 0,1e-5 -2.14777,9.21501 -2.59678,18.50089 -2.84715,24.24862 -0.2661,6.10876 -0.36338,9.67133 -0.83854,9.69497 z"
         style="fill:#0000ff;fill-opacity:0.61349697;stroke:none;stroke-width:0.38335896px;stroke-linecap:butt;stroke-linejoin:miter;stroke-opacity:1" />
      <path
         sodipodi:nodetypes="cccc"
         inkscape:original-d="m 259.16182,271.29487 c -2.6281,-2.74508 -6.06631,-4.07248 -9.74814,-4.97352 -0.56903,12.33436 -0.83297,24.66873 -4.47618,37.00308 3.11675,-0.004 6.2335,0.58385 9.35025,-0.89525"
         inkscape:path-effect="#path-effect848"
         inkscape:connector-curvature="0"
         id="path846"
         d="m 259.16182,271.29487 c -0.58627,0.56129 -3.71099,-2.02165 -8.98674,-3.95586 -0.051,4.49133 -0.13712,10.92438 -0.68588,16.93864 -0.66603,7.29957 -1.91045,13.16297 -3.65072,18.37254 2.69853,-0.3501 4.62211,-0.19867 6.00341,-0.30796 1.35487,-0.1072 2.27537,-0.27231 2.44587,0.087 0.15169,0.31964 -0.52032,1.11583 -2.35941,1.57704 -2.11561,0.53056 -4.38475,0.37596 -7.89183,-0.008 1.3741,-5.35065 2.40792,-11.49054 3.19378,-19.85598 0.66944,-7.12612 1.02224,-13.79013 1.42198,-18.839 4.0608,0.66112 6.89172,1.94311 8.6498,3.28744 1.71309,1.30992 2.13318,2.44195 1.85974,2.70374 z"
         style="fill:#0000ff;fill-opacity:0.61349697;stroke:none;stroke-width:0.50851601px;stroke-linecap:butt;stroke-linejoin:miter;stroke-opacity:1" />
      <path
         sodipodi:nodetypes="cc"
         inkscape:original-d="m 252.41346,254.2667 c -0.30497,3.50517 1e-4,7.01035 0.81787,10.51552"
         inkscape:path-effect="#path-effect852"
         inkscape:connector-curvature="0"
         id="path850"
         d="m 252.41346,254.2667 c 0.31057,0.027 0.34308,2.39336 0.57407,5.24039 0.23151,2.85351 0.56067,5.20121 0.2438,5.27514 -0.30434,0.071 -1.16338,-2.18832 -1.4052,-5.18111 -0.242,-2.99512 0.26322,-5.36262 0.58733,-5.33442 z"
         style="fill:#0000ff;fill-opacity:0.61349697;stroke:none;stroke-width:0.11652529px;stroke-linecap:butt;stroke-linejoin:miter;stroke-opacity:1" />
      <path
         sodipodi:nodetypes="cc"
         inkscape:original-d="m 265.49943,244.3354 c -0.8076,7.28957 -0.30784,14.27746 0.70104,21.14784"
         inkscape:path-effect="#path-effect856"
         inkscape:connector-curvature="0"
         id="path854"
         d="m 265.49943,244.3354 c 0.31965,0.0354 0.0172,4.75185 0.25522,10.56219 0.238,5.81033 0.76402,10.53893 0.44582,10.58566 -0.28551,0.0419 -1.36951,-4.61878 -1.61007,-10.53816 -0.24065,-5.92183 0.55965,-10.6484 0.90903,-10.60969 z"
         style="fill:#0000ff;fill-opacity:0.61349697;stroke:none;stroke-width:0.11652529px;stroke-linecap:butt;stroke-linejoin:miter;stroke-opacity:1" />
      <path
         sodipodi:nodetypes="cc"
         inkscape:original-d="m 282.2074,243.86803 c -0.45452,9.78854 0.65303,19.38181 2.68729,28.85923"
         inkscape:path-effect="#path-effect864"
         inkscape:connector-curvature="0"
         id="path862"
         d="m 282.2074,243.86803 c 0.32126,0.0149 0.21121,6.50733 0.99248,14.44962 0.78127,7.9423 2.00926,14.34212 1.69481,14.40961 -0.28463,0.0611 -2.06315,-6.23806 -2.85446,-14.29563 -0.79127,-8.05714 -0.18158,-14.57979 0.16717,-14.5636 z"
         style="fill:#0000ff;fill-opacity:0.61349697;stroke:none;stroke-width:0.11652529px;stroke-linecap:butt;stroke-linejoin:miter;stroke-opacity:1" />
    </g>
  </g>
</svg>
