<svg width="100" height="100" viewBox="0 0 100 100"
  xmlns="http://www.w3.org/2000/svg">
  <g
     id="twitter-logo"
     transform="translate(0.06417263,-5.9575454)">
    <path
       style="fill:#75a8e9; stroke:none;"
       d="m 7.0130591,18.640676 c 0,0 13.7100429,18.222144 38.8606229,20.562406 0.643886,0.05992 0.801213,-0.297793 0.787129,-1.057306 -0.0658,-3.547855 -0.09605,-5.479672 0.790707,-8.052378 4.06764,-11.801251 12.78938,-15.834904 20.728342,-15.615643 7.30891,0.20186 13.428848,4.423305 14.591012,5.489267 0,0 0.979335,1.177153 5.149347,-0.312081 4.008426,-1.431526 8.140292,-3.729189 8.192146,-3.666959 0,0 1.326347,0 1.014258,1.482387 -0.31208,1.482388 -4.369139,8.270163 -5.227362,8.426204 -0.858223,0.156041 0.818868,0.175885 1.212083,0.03624 2.210578,-0.785061 5.947435,-2.002241 5.942937,-1.982015 -0.158185,0 0.906986,0.46339 0.881081,1.321614 -0.02685,0.889165 -5.730939,6.674303 -10.064635,11.62504 -0.08794,2.805917 -0.103423,3.920706 -0.859474,9.977652 -0.692899,5.55101 -1.311155,7.506487 -2.729463,11.087858 -2.736924,6.911011 -5.51225,12.432032 -10.020955,18.082526 -2.936975,3.680738 -6.155714,7.622663 -12.13684,11.331164 C 50.719347,95.687984 40.824191,96.979694 34.3202,97.363264 25.152912,97.903904 9.9234346,95.855434 0.66157663,89.187851 -1.0882664,87.928145 0.81125555,86.598647 1.3175695,86.518428 4.8526296,85.958344 13.860963,87.719589 25.63684,80.17568 26.103476,79.876742 25.71244,79.310769 25.349038,79.387926 25.351638,79.387412 13.023182,76.81765 9.4316915,64.984796 9.17575,64.14155 9.5538726,63.791952 10.115961,63.707009 c 1.953708,-0.295248 2.602453,0.203261 3.606853,0.02946 v 0 C 14.891747,63.348685 11.918783,62.999712 8.7780107,59.598688 6.3996786,57.023283 2.4556395,53.078844 2.1757939,43.997312 2.1168059,42.083025 3.3999419,42.93667 3.736202,42.905027 c 0.062288,-0.0059 0.5812631,0.526555 4.4471632,1.87249 0.8475476,0.295078 -0.066899,-0.380857 0.07802,-0.312082 -0.3212367,0.142771 -11.3281618,-12.670038 -2.5746733,-26.136836 0.4801586,-0.568151 1.317134,0.09598 1.3263468,0.312082 z"
       id="path1" />
  </g>
</svg>
