<?xml version="1.0"?><svg width="542.224" height="510.427" xmlns="http://www.w3.org/2000/svg">
 <title>blue scroll ribbon border</title>
 <metadata id="metadata3">celtic-vine-cornerorner border ornament, a vine in the form of a Celtic knotcelticornamentaldecorationdecorativebordercornershapeflourishOpen Clip Art LibrarySteve DoonanSteve Doonanimage/svg+xmlen</metadata>
 <g>
  <title>Layer 1</title>
  <g display=" inline" id="layer2">
   <path d="m39.62125,29.147739l9.906189,-2.468699c14.625401,-20.974401 56.669903,-31.856301 89.562908,5.937498l6.468002,-3.687498c-27.791008,-34.172601 -78.877007,-40.621801 -105.937099,0.218699zm-6.944901,38.872288l-1.16641,-7.588287c-47.378389,-20.2173 -14.875599,-68.461599 14.798811,-49.0652l5.634201,-4.7638c-40.195711,-28.8077 -84.289112,37.454099 -19.266602,61.417287zm123.475994,-28.215988l-4.906021,3.2812c75.961014,66.964199 116.156021,-66.193209 192.562027,-12.093699c-75.606018,-62.424301 -116.532013,68.431898 -187.656006,8.812498zm-53.655991,16.0625l1.024979,6.491699c38.683014,-5.578297 83.897003,-71.581708 137.526031,-29.105709l4.549973,-3.9744c-56.781982,-49.0009 -109.153992,20.99321 -143.100967,26.588409l0,0l-0.000008,0l-0.000008,0zm-38.625122,-38.62501l-4.8438,4.3437c9.99641,10.3874 10.213299,21.031 11.6507,37.921l7.193298,-1.32719c-0.886986,-15.13871 -2.504997,-29.798399 -14.000198,-40.93751zm12.144211,13.446701l1.600998,6.2693c13.614014,4.4967 18.042992,16.403999 14.50499,38.409199l6.283913,-0.349991c3.713989,-23.1003 0.57,-39.331108 -22.3899,-44.328508zm-39.79771,17.261c-3.334492,12.645699 -1.3666,41.171497 30.091,41.323498l1.156212,-6.5c-25.588612,-1.016998 -27.093811,-23.306698 -22.093693,-38.906189l-9.153519,4.082691zm-26.408981,10.573509c-36.962811,69.939693 103.088589,89.262676 29.44149,195.5937l2.24601,6.280991c82.638103,-109.477997 -57.00332,-136.944 -25.5625,-196.874691l-6.125,-5zm78.363682,0.4715c-11.954002,4.369991 -27.349403,5.6064 -40.012703,5.236191l1.194901,5.669998c9.536201,1.275391 31.204803,-1.6045 39.453804,-4.627701l-0.636002,-6.278488zm-16.832504,13.87249c-0.182884,20.983002 1.144699,41.5737 -24.687496,63.593704l3.843807,5.343002c26.055191,-20.617996 27.498192,-39.586006 27.312195,-70.000717l-6.468506,1.064011zm9.468506,8.75l0.42701,6.89801c43.5709,-12.032021 45.944901,12.044701 38.354889,20.25769c-7.590988,8.212997 -24.994888,1.820999 -22.624901,-19.093689l-6.070999,0.369987c-3.851006,25.16571 20.610901,37.604713 34.226921,24.125702c13.541992,-13.405991 3.470993,-46.6567 -44.31292,-32.557701zm-44.937195,63.780701c-55.534208,54.360001 15.592892,130.911011 15.109291,173.994019c-0.48069,42.819 -29.027901,59.973999 -29.855101,97.017975c-0.828999,37.128021 23.8248,66.106018 22.7908,77.723022c-1.033989,11.615997 -16.029089,12.97699 -15.762999,-2.406006c-3.3433,19.484009 18.622808,18.167999 18.2204,0.932007c-0.402,-17.221008 -21.508101,-38.52301 -20.858,-75.158997c0.661798,-37.297028 28.889399,-48.456024 30.464899,-98.108002c1.575401,-49.652008 -68.1515,-116.043015 -15.234291,-169.681015l-4.875,-4.313004zm26.28289,-114.8421c-17.543999,0.0494 -33.885799,7.573591 -42.578999,17.3654l5.92111,4.758301c7.199888,-7.03931 19.51309,-16.139702 38.99999,-15.4688l-2.342102,-6.654902l0,0zm462.482224,15.416101c-16.348022,-0.918011 -40.681,-21.984602 -97.034027,-21.529902c-56.35202,0.4548 -122.679993,52.935202 -168.949982,15.331202l-3.656021,4.4063c49.638992,41.692688 117.539017,-14.457001 172.606003,-14.831202c55.068024,-0.3743 76.367981,18.048601 96.471039,19.529902c20.104004,1.48119 24.169983,-22.190601 -1.798035,-19.585001c22.447021,1.3762 18.708984,17.596701 2.361023,16.678701zm-494.906143,218.817997c0,0 -13.467588,22.533997 -14.705299,35.335022c-1.2397,12.821991 -2.01739,24.873993 8.62771,35.800995c-6.336611,-11.473999 -6.710501,-15.966003 -5.541611,-31.522003c1.1689,-15.556 14.668409,-33.498993 14.668409,-33.498993l-3.04921,-6.115021z" fill="#ff0000" id="svg_2"/>
  </g>
 </g>
</svg>
