<?xml version="1.0" encoding="UTF-8" standalone="no"?>
<!-- Created with Inkscape (http://www.inkscape.org/) -->

<svg
   xmlns:dc="http://purl.org/dc/elements/1.1/"
   xmlns:cc="http://creativecommons.org/ns#"
   xmlns:rdf="http://www.w3.org/1999/02/22-rdf-syntax-ns#"
   xmlns:svg="http://www.w3.org/2000/svg"
   xmlns="http://www.w3.org/2000/svg"
   xmlns:sodipodi="http://sodipodi.sourceforge.net/DTD/sodipodi-0.dtd"
   xmlns:inkscape="http://www.inkscape.org/namespaces/inkscape"
   width="1866.6667"
   height="1866.6667"
   viewBox="0 0 493.8889 493.88892"
   version="1.1"
   id="svg8"
   inkscape:version="0.92.3 (unknown)"
   sodipodi:docname="freecodecamp_logo_inkscape.svg">
  <defs
     id="defs2" />
  <sodipodi:namedview
     id="base"
     pagecolor="#ffffff"
     bordercolor="#666666"
     borderopacity="1.0"
     inkscape:pageopacity="0.0"
     inkscape:pageshadow="2"
     inkscape:zoom="0.29736328"
     inkscape:cx="796.15025"
     inkscape:cy="840.38324"
     inkscape:document-units="px"
     inkscape:current-layer="layer1"
     showgrid="false"
     units="px"
     fit-margin-top="0"
     fit-margin-left="0"
     fit-margin-right="0"
     fit-margin-bottom="0"
     inkscape:window-width="1920"
     inkscape:window-height="1056"
     inkscape:window-x="0"
     inkscape:window-y="24"
     inkscape:window-maximized="1" />
  <metadata
     id="metadata5">
    <rdf:RDF>
      <cc:Work
         rdf:about="">
        <dc:format>image/svg+xml</dc:format>
        <dc:type
           rdf:resource="http://purl.org/dc/dcmitype/StillImage" />
        <dc:title></dc:title>
      </cc:Work>
    </rdf:RDF>
  </metadata>
  <g
     inkscape:label="Layer 1"
     inkscape:groupmode="layer"
     id="layer1">
    <path
       style="fill:#000000;stroke-width:0.35277781"
       d="m 355.31191,370.6696 c -1.55413,-0.29828 -2.20006,-0.67674 -3.76829,-2.20783 -2.13713,-2.0865 -2.85438,-3.92998 -2.50911,-6.44899 0.4526,-3.3021 2.97086,-6.60703 11.97896,-15.72098 5.38928,-5.45258 7.98893,-8.40352 12.96934,-14.72166 2.48621,-3.15401 4.90055,-6.52852 4.90055,-6.84945 0,-0.10719 0.15928,-0.38663 0.35397,-0.62098 0.77142,-0.92854 2.7503,-4.0569 3.72837,-5.89413 0.56812,-1.06716 1.13503,-2.01966 1.25984,-2.11667 0.2533,-0.19693 2.90929,-5.32869 3.46908,-6.70278 0.19759,-0.48507 0.50521,-1.12007 0.68354,-1.41111 0.17833,-0.29104 0.59316,-1.16417 0.92181,-1.94028 0.32868,-0.77611 0.883,-2.04611 1.23183,-2.82222 1.4411,-3.20628 1.75711,-4.01071 1.75711,-4.47274 0,-0.26705 0.22501,-0.80679 0.50003,-1.19942 0.27499,-0.39263 0.6132,-1.34077 0.75156,-2.10697 0.13832,-0.7662 0.40188,-1.58296 0.58568,-1.81503 0.1838,-0.23206 0.55051,-1.26394 0.81492,-2.29305 1.0227,-3.98062 1.31593,-5.10532 1.7756,-6.81001 1.35932,-5.04125 2.01641,-8.54607 2.81086,-14.99306 0.29887,-2.42535 0.70372,-5.11019 0.89969,-5.96632 0.55654,-2.43169 0.80088,-19.2879 0.36601,-25.25452 -0.46803,-6.42195 -1.24139,-13.71452 -1.75835,-16.58055 -1.71725,-9.52019 -2.28943,-12.1662 -3.61742,-16.72817 -0.36252,-1.24534 -0.65913,-2.59909 -0.65913,-3.0083 0,-0.40923 -0.21562,-1.05718 -0.47911,-1.4399 -0.26352,-0.38272 -0.58695,-1.28446 -0.71875,-2.00387 -0.1318,-0.71941 -0.47085,-1.75129 -0.75343,-2.29306 -0.28261,-0.54177 -0.51481,-1.19219 -0.51597,-1.44536 -0.004,-0.39882 -0.45441,-1.54533 -1.76773,-4.47857 -1.1018,-2.46091 -3.17335,-7.6025 -3.17335,-7.87632 0,-0.18016 -0.22793,-0.51672 -0.50648,-0.74791 -0.27859,-0.2312 -0.60868,-0.88563 -0.7336,-1.45431 -0.12488,-0.56868 -0.36061,-1.03396 -0.5238,-1.03396 -0.1632,0 -0.40094,-0.47443 -0.52829,-1.05428 -0.12735,-0.57987 -0.38163,-1.14705 -0.56508,-1.26043 -0.18344,-0.11337 -0.82373,-1.18675 -1.42286,-2.38529 -0.59916,-1.19854 -1.43439,-2.65541 -1.85614,-3.2375 -0.42174,-0.58208 -0.95871,-1.45521 -1.19327,-1.94028 -0.41095,-0.84986 -1.01381,-1.84738 -1.58739,-2.62657 -0.15064,-0.20462 -0.76091,-1.1261 -1.35615,-2.04773 -0.59528,-0.92163 -1.22612,-1.6757 -1.40183,-1.6757 -0.17576,0 -0.31973,-0.19843 -0.31997,-0.44097 -2.5e-4,-0.24253 -0.35744,-0.86468 -0.79375,-1.38255 -0.43632,-0.51786 -1.11083,-1.37946 -1.49889,-1.91467 -0.38805,-0.53519 -1.1818,-1.56025 -1.76389,-2.2779 -0.58208,-0.71765 -1.61395,-1.99387 -2.29305,-2.83604 -0.6791,-0.84218 -1.73087,-2.04571 -2.33726,-2.67452 -0.60639,-0.62882 -1.53924,-1.666 -2.07303,-2.30485 -0.53379,-0.63886 -3.6492,-3.90008 -6.92316,-7.24716 -3.27399,-3.34709 -5.95266,-6.32366 -5.95266,-6.61459 0,-0.29093 -0.14712,-0.52897 -0.32692,-0.52897 -0.56196,0 -2.19022,-3.97211 -2.3861,-5.82083 -0.10279,-0.97014 -0.009,-2.42379 0.20948,-3.23032 0.50425,-1.8656 3.207,-4.92596 4.6255,-5.23751 0.57471,-0.12623 1.13552,-0.37605 1.24618,-0.55515 0.1107,-0.1791 1.1937,-0.32564 2.40662,-0.32564 2.27735,0 5.55392,1.02834 7.53575,2.36507 0.53736,0.36243 1.39245,0.86723 1.90028,1.12176 2.67017,1.33844 12.14102,10.845 17.26194,17.32706 3.09097,3.91257 3.66364,4.63712 4.42313,5.59652 1.06656,1.34728 5.32472,7.31011 5.48111,7.6754 0.073,0.17052 0.9149,1.50065 1.87085,2.95586 0.95596,1.45521 2.1069,3.21 2.55764,3.89952 0.45075,0.68953 0.81954,1.43036 0.81954,1.6463 0,0.21593 0.13839,0.44552 0.30752,0.5102 0.32663,0.12491 0.34498,0.15947 4.27154,8.0551 2.57598,5.17981 3.67107,7.49744 4.75061,10.05416 0.32769,0.77611 0.7312,1.72861 0.89669,2.11667 0.16545,0.38805 0.71483,1.97555 1.22079,3.52778 0.50598,1.55222 1.05978,3.13972 1.2307,3.52778 0.17092,0.38805 0.7482,2.1343 1.28291,3.88055 0.5347,1.74625 1.10476,3.32581 1.26682,3.51014 0.16203,0.18433 0.29464,0.75968 0.29464,1.27856 0,0.51889 0.24719,1.63807 0.54935,2.48709 0.58201,1.6356 1.2078,4.36028 2.25855,9.83393 0.35384,1.84327 0.81933,4.2065 1.03438,5.25163 0.21509,1.04513 0.39106,2.75169 0.39106,3.79236 0,1.04067 0.12957,1.89213 0.28793,1.89213 0.15837,0 0.47798,2.34156 0.71025,5.20347 0.23223,2.86191 0.51827,6.23535 0.63557,7.49653 0.29277,3.14736 0.29696,25.74567 0.005,28.575 -0.13,1.26118 -0.41335,4.32018 -0.62964,6.79778 -0.21632,2.4776 -0.53192,4.5904 -0.70136,4.69513 -0.16944,0.10472 -0.30995,1.01447 -0.31228,2.02166 -0.004,1.0072 -0.2462,2.70439 -0.54197,3.77154 -0.2958,1.06715 -0.76084,3.05153 -1.03343,4.40972 -0.27259,1.3582 -0.7402,3.34257 -1.03917,4.40973 -0.29895,1.06715 -0.85327,3.05152 -1.23183,4.40972 -0.79132,2.83903 -2.79654,8.88632 -3.23974,9.7703 -0.16496,0.32895 -0.69829,1.73834 -1.18519,3.13199 -0.4869,1.39364 -1.02718,2.712 -1.20057,2.92969 -0.17343,0.21769 -0.43149,0.79267 -0.57344,1.27774 -0.2951,1.00813 -6.05357,12.59898 -7.18588,14.46389 -0.41232,0.6791 -1.02894,1.79035 -1.37033,2.46945 -0.34134,0.67909 -0.70587,1.31409 -0.81005,1.41111 -0.10417,0.097 -0.69532,0.97014 -1.31363,1.94028 -0.61835,0.97013 -1.28715,1.95562 -1.48629,2.18997 -0.19915,0.23434 -0.36206,0.50717 -0.36206,0.60628 0,0.0991 -0.67469,1.14551 -1.4993,2.32532 -0.82462,1.17981 -1.65806,2.40484 -1.85209,2.72229 -0.62113,1.01624 -8.77778,11.51683 -9.93926,12.79554 -0.61592,0.67805 -1.44953,1.62969 -1.85244,2.11476 -2.97399,3.58035 -9.23258,9.72274 -12.58073,12.34723 -2.53499,1.98709 -6.38817,3.94402 -8.77489,4.45657 -2.40273,0.51601 -2.18468,0.51463 -4.71163,0.0296 z"
       id="path912"
       inkscape:connector-curvature="0" />
    <path
       style="fill:#000000;stroke-width:0.35277781"
       d="m 360.5079,369.10012 c 1.08419,-0.33609 2.17068,-0.80193 2.41434,-1.03522 0.2437,-0.23333 0.78712,-0.5334 1.20763,-0.66686 0.72884,-0.23135 1.10596,-0.48299 2.21693,-1.47927 0.27044,-0.24253 0.60452,-0.44097 0.74238,-0.44097 0.9107,0 8.67559,-7.57566 13.55807,-13.22774 1.64923,-1.90919 3.35333,-3.88117 3.78689,-4.38217 1.11594,-1.28959 1.1872,-1.38113 2.90668,-3.73315 0.85104,-1.16416 1.64144,-2.19604 1.75641,-2.29305 0.21318,-0.17989 2.93846,-3.88522 3.89724,-5.29873 0.29104,-0.42909 0.80698,-1.14401 1.14653,-1.58872 0.33955,-0.44471 0.61736,-0.90421 0.61736,-1.02112 0,-0.1169 0.55562,-1.00305 1.23472,-1.96921 0.6791,-0.96616 1.23472,-1.84874 1.23472,-1.96129 0,-0.11255 0.45519,-0.86825 1.01149,-1.67931 0.55633,-0.81108 1.46914,-2.31188 2.02847,-3.33512 0.55936,-1.02325 1.371,-2.452 1.80368,-3.175 0.43268,-0.72301 0.89133,-1.55268 1.01921,-1.84373 0.12788,-0.29104 0.98954,-2.11666 1.91484,-4.05694 2.83295,-5.94059 4.08746,-8.75663 4.55751,-10.23056 0.2475,-0.77611 0.58959,-1.56192 0.7602,-1.74625 0.1706,-0.18432 0.31016,-0.55721 0.31016,-0.82863 0,-0.27142 0.23707,-0.99373 0.52684,-1.60513 0.28973,-0.61141 0.75113,-1.9054 1.02535,-2.87554 0.65697,-2.32462 1.47708,-5.03636 1.92038,-6.35 0.19646,-0.58209 0.69352,-2.40771 1.10462,-4.05695 0.41109,-1.64923 0.89298,-3.47486 1.07089,-4.05694 0.39977,-1.30801 1.31187,-6.22201 1.76798,-9.525 0.18754,-1.3582 0.49886,-3.2632 0.69183,-4.23334 1.14127,-5.73827 1.43016,-27.07202 0.51587,-38.1 -0.82811,-9.9891 -2.31468,-19.57161 -3.85823,-24.87083 -0.25431,-0.87313 -0.56384,-2.14313 -0.68777,-2.82223 -0.32727,-1.79308 -2.63479,-10.0915 -3.41253,-12.27226 -0.36586,-1.02592 -0.66523,-2.17686 -0.66523,-2.55764 0,-0.38077 -0.13889,-0.69232 -0.30868,-0.69232 -0.16976,0 -0.40647,-0.48892 -0.52599,-1.0865 -0.11949,-0.59757 -0.44613,-1.58976 -0.72581,-2.20486 -0.27972,-0.6151 -1.16127,-2.70586 -1.95901,-4.64614 -0.79777,-1.94028 -1.90186,-4.48028 -2.45353,-5.64444 -0.55168,-1.16417 -1.37778,-2.91042 -1.83579,-3.88056 -0.81364,-1.7235 -3.83893,-7.23822 -4.54787,-8.29028 -0.19614,-0.29104 -0.55827,-0.92604 -0.80479,-1.41111 -0.97854,-1.92571 -6.07402,-9.69624 -7.09577,-10.82096 -0.20913,-0.23023 -0.93589,-1.24126 -1.61498,-2.24673 -0.6791,-1.00548 -1.47285,-2.09111 -1.76389,-2.41252 -0.29105,-0.32142 -1.20873,-1.45454 -2.03934,-2.51806 -3.56934,-4.57038 -5.20065,-6.49379 -8.3415,-9.83522 -5.14668,-5.47536 -10.99926,-10.60625 -12.10875,-10.61558 -0.24253,-0.002 -0.44097,-0.13083 -0.44097,-0.28619 0,-0.56237 -3.15292,-1.79665 -5.17338,-2.02524 -2.7516,-0.31131 -4.63663,0.24087 -6.21683,1.82108 -1.78285,1.78284 -2.58702,4.29665 -2.07882,6.4983 0.39729,1.72113 1.97412,4.66697 3.4857,6.51194 0.47689,0.58209 3.67231,3.91782 7.10089,7.41273 6.45206,6.57683 6.87962,7.04836 10.39301,11.46089 1.15866,1.45521 2.21968,2.72521 2.35779,2.82223 0.13815,0.097 0.83178,1.00982 1.54139,2.02847 0.70965,1.01864 1.81744,2.60614 2.46179,3.52778 0.64435,0.92163 1.62892,2.46944 2.18793,3.43958 0.55901,0.97014 1.11516,1.84326 1.23592,1.94028 0.7572,0.6083 8.81017,15.89529 8.81017,16.72433 0,0.11918 0.30801,0.88965 0.68449,1.71215 1.24979,2.73056 2.49051,6.01901 2.49051,6.60101 0,0.3158 0.1325,0.72499 0.29446,0.90932 0.33091,0.3766 1.15993,2.7103 1.81088,5.09763 0.23809,0.87313 0.57616,1.86316 0.75128,2.20008 0.17511,0.33692 0.31838,1.02204 0.31838,1.5225 0,0.50045 0.17783,1.24224 0.39521,1.6484 0.46063,0.86068 1.60955,5.78961 2.11953,9.09291 0.19473,1.26119 0.49396,2.61056 0.66498,2.99862 0.17103,0.38805 0.48419,2.21368 0.69593,4.05694 0.2117,1.84326 0.5359,4.14514 0.72044,5.11528 1.00944,5.30708 1.6521,27.45326 0.96742,33.3375 -0.12417,1.06715 -0.32413,3.36903 -0.44435,5.11528 -0.12027,1.74625 -0.35924,3.73062 -0.53108,4.40972 -0.17187,0.6791 -0.50013,2.9016 -0.72951,4.93889 -0.22934,2.03729 -0.53858,3.86292 -0.68717,4.05695 -0.14859,0.19402 -0.38562,1.2259 -0.5267,2.29305 -0.14107,1.06715 -0.40026,2.21382 -0.57598,2.54815 -0.17572,0.33432 -0.47082,1.44557 -0.65574,2.46944 -0.31129,1.72369 -1.15186,4.77701 -1.77497,6.44769 -0.14474,0.38806 -0.46055,1.41993 -0.70185,2.29306 -0.24126,0.87312 -0.65624,2.08774 -0.92216,2.69914 -0.26589,0.61141 -0.48345,1.33372 -0.48345,1.60514 0,0.27142 -0.13116,0.64431 -0.29143,0.82863 -0.1603,0.18433 -0.51406,1.04952 -0.78616,1.92264 -0.27206,0.87313 -0.83016,2.22329 -1.24016,3.00037 -0.41003,0.77707 -0.95239,2.04707 -1.20526,2.82222 -0.25287,0.77515 -0.56678,1.48873 -0.69759,1.58574 -0.22553,0.16731 -1.29952,2.31645 -2.11553,4.23334 -0.20648,0.48507 -0.66249,1.35819 -1.01332,1.94028 -0.35084,0.58208 -1.10173,1.93145 -1.66861,2.99861 -0.56691,1.06715 -1.11894,2.01965 -1.22675,2.11666 -0.1078,0.097 -0.65038,0.97014 -1.20568,1.94028 -0.55535,0.97014 -1.22241,1.89084 -1.48238,2.046 -0.25999,0.15517 -0.47268,0.48368 -0.47268,0.73004 0,0.24636 -0.59532,1.26441 -1.32292,2.26234 -0.7276,0.99792 -1.95792,2.71941 -2.73403,3.82552 -0.77611,1.10612 -1.72861,2.34345 -2.11667,2.74963 -0.38805,0.40617 -1.17616,1.36678 -1.75136,2.13468 -0.5752,0.7679 -1.28958,1.65174 -1.5875,1.96409 -0.29792,0.31234 -1.409,1.58798 -2.46902,2.83474 -1.05999,1.24677 -4.26219,4.6481 -7.11599,7.55852 -5.98872,6.10761 -7.20901,7.42714 -7.99292,8.64306 -0.31274,0.48507 -0.99463,1.43757 -1.51533,2.11666 -1.37859,1.79797 -1.88741,3.76146 -1.42233,5.48863 0.71656,2.6611 4.10105,5.32013 6.89011,5.41319 0.56505,0.0187 1.91442,-0.24066 2.99861,-0.57672 z"
       id="path910"
       inkscape:connector-curvature="0" />
    <path
       style="fill:#000000;stroke-width:0.35277781"
       d="m 119.59167,370.00415 c -5.24335,-1.48167 -12.50878,-6.85701 -18.34089,-13.56953 -1.878823,-2.16242 -3.391816,-3.97005 -4.236885,-5.06192 -0.485069,-0.62674 -1.473013,-1.79729 -2.195431,-2.60124 -0.722415,-0.80394 -1.317728,-1.56944 -1.322917,-1.7011 -0.0052,-0.13166 -0.21148,-0.44916 -0.458428,-0.70556 -0.642063,-0.66661 -4.092586,-5.23521 -5.548225,-7.34601 -0.679097,-0.98475 -1.90518,-2.69714 -2.724626,-3.80531 -0.81945,-1.10817 -1.494137,-2.14765 -1.499306,-2.30995 -0.0052,-0.16231 -0.469251,-0.95606 -1.031286,-1.76389 -2.820624,-4.05416 -9.163258,-16.40943 -10.98616,-21.40073 -0.248017,-0.6791 -0.810331,-2.02847 -1.249581,-2.99861 -0.439251,-0.97014 -0.974041,-2.43188 -1.188428,-3.2483 -0.214383,-0.81643 -0.544223,-1.57986 -0.732977,-1.69652 -0.188757,-0.11666 -0.343192,-0.45655 -0.343192,-0.75533 0,-0.29877 -0.224173,-1.04347 -0.498158,-1.65487 -0.273988,-0.61141 -0.691653,-1.98478 -0.928144,-3.05193 -0.236492,-1.06715 -0.549614,-2.09903 -0.69583,-2.29305 -0.146212,-0.19403 -0.372791,-0.90841 -0.503512,-1.5875 -0.130719,-0.6791 -0.370555,-1.55223 -0.532967,-1.94028 -0.162415,-0.38806 -0.487662,-1.65806 -0.722771,-2.82222 -0.235108,-1.16417 -0.556341,-2.51355 -0.713853,-2.99862 -0.157511,-0.48506 -0.385607,-1.58844 -0.506881,-2.45194 -0.121275,-0.8635 -0.350774,-1.73662 -0.510001,-1.94028 -0.159226,-0.20365 -0.384161,-1.2434 -0.499854,-2.31055 -0.220504,-2.03393 -0.38415,-3.02475 -0.932244,-5.64445 -0.182679,-0.87312 -0.436855,-2.77812 -0.564836,-4.23333 -0.127984,-1.45521 -0.357568,-2.88396 -0.510183,-3.175 -0.498236,-0.95014 -1.140827,-14.78933 -1.113868,-23.98889 0.02822,-9.63197 0.653288,-22.16863 1.134985,-22.76404 0.161364,-0.19945 0.403585,-1.62821 0.538272,-3.175 0.134687,-1.54679 0.368646,-2.9711 0.519906,-3.16513 0.151261,-0.19403 0.466365,-1.70215 0.700236,-3.35139 0.233867,-1.64924 0.644722,-3.49885 0.913013,-4.11026 0.268291,-0.61141 0.4878,-1.59422 0.4878,-2.18404 0,-0.58982 0.136578,-1.1568 0.303506,-1.25997 0.166931,-0.10317 0.398702,-0.8666 0.515048,-1.69652 0.228124,-1.62725 1.583941,-6.22371 2.005969,-6.8006 0.141944,-0.19403 0.458974,-1.20923 0.704511,-2.25601 0.245541,-1.04678 0.662228,-2.31678 0.925971,-2.82222 0.263748,-0.50545 0.480516,-1.17737 0.481711,-1.49316 0.0011,-0.31579 0.227888,-0.76149 0.503764,-0.99044 0.275872,-0.22896 0.605783,-1.03301 0.733132,-1.78678 0.127349,-0.75378 0.45726,-1.55782 0.733132,-1.78678 0.275876,-0.22895 0.50159,-0.63026 0.50159,-0.8918 0,-0.81476 4.154626,-9.68845 6.138687,-13.11136 0.645685,-1.11394 1.572479,-2.73972 2.059541,-3.61284 1.366534,-2.4497 3.759169,-6.30453 5.075686,-8.17755 0.654488,-0.93115 1.189976,-1.84548 1.189976,-2.03186 0,-0.18638 0.216616,-0.46582 0.481372,-0.62098 0.264757,-0.15516 0.745081,-0.79805 1.067393,-1.42864 0.322312,-0.63059 0.740692,-1.14653 0.929739,-1.14653 0.189047,0 0.343718,-0.16795 0.343718,-0.37324 0,-0.35314 5.931917,-8.11626 7.93646,-10.38648 0.513966,-0.58208 1.82927,-2.09021 2.922895,-3.35139 6.608261,-7.6207 12.986981,-13.16176 17.892041,-15.54244 2.24832,-1.09123 2.75373,-1.19854 5.64444,-1.19842 2.82156,1.1e-4 3.33364,0.10249 4.60006,0.91972 1.79507,1.15835 3.1648,2.94075 3.881,5.05027 0.51209,1.50834 0.50945,1.7854 -0.0326,3.4174 -1.31101,3.94712 -3.71195,6.95686 -12.90144,16.17292 -2.03142,2.03729 -4.55929,4.72612 -5.61747,5.97518 -1.05819,1.24906 -2.1621,2.52337 -2.45314,2.83179 -1.44712,1.53355 -4.78956,5.95836 -7.74485,10.25284 -3.095472,4.49819 -3.732267,5.48042 -4.567864,7.04574 -0.466086,0.87313 -1.007015,1.79263 -1.202059,2.04334 -0.953057,1.22509 -6.946321,13.42599 -6.946321,14.14114 0,0.1864 -0.230597,0.78833 -0.512435,1.33763 -0.281841,0.5493 -0.855708,1.95123 -1.275263,3.11539 -0.419555,1.16417 -0.982709,2.638 -1.251455,3.27517 -0.268743,0.63717 -0.488625,1.46124 -0.488625,1.83126 0,0.37002 -0.136074,0.75686 -0.30238,0.85965 -0.16631,0.10279 -0.507574,1.18372 -0.758363,2.40207 -0.25079,1.21835 -0.584006,2.38182 -0.740481,2.58547 -0.156474,0.20365 -0.392508,1.07678 -0.52452,1.94028 -0.132013,0.8635 -0.388822,1.75913 -0.570686,1.9903 -0.181867,0.23117 -0.490784,1.57576 -0.686488,2.98797 -0.1957,1.41221 -0.498965,2.83512 -0.673918,3.16203 -0.174953,0.3269 -0.421714,1.76044 -0.548354,3.18564 -0.126641,1.4252 -0.370682,2.865 -0.542308,3.19956 -0.507033,0.98836 -1.34536,15.06583 -1.339818,22.49866 0.0053,7.11545 0.787555,21.87927 1.194107,22.53709 0.127049,0.20556 0.389057,1.76725 0.582242,3.47042 0.193184,1.70316 0.583431,3.87954 0.867216,4.83639 0.283785,0.95685 0.515973,2.35101 0.515973,3.09813 0,0.74713 0.238125,1.92833 0.529166,2.62489 0.291042,0.69656 0.529167,1.53785 0.529167,1.86953 0,0.33169 0.321606,1.70137 0.714682,3.04373 0.393076,1.34236 0.968315,3.31378 1.278308,4.38094 1.276078,4.3929 4.180717,12.68135 5.060051,14.43897 0.955244,1.90935 2.119182,4.62347 2.119182,4.9416 0,0.20624 0.15875,0.37498 0.352778,0.37498 0.194027,0 0.352777,0.20713 0.352777,0.46029 0,0.61092 4.084649,8.59876 5.086305,9.94666 0.432558,0.58208 0.878314,1.30866 0.990568,1.61461 0.225415,0.61436 5.939016,9.12859 7.116086,10.60415 0.40797,0.51144 1.21801,1.5288 1.8001,2.2608 0.58208,0.73201 1.37583,1.69042 1.76389,2.12981 0.38805,0.43939 1.02305,1.24145 1.41111,1.78236 1.09108,1.52086 3.80893,4.44248 8.81944,9.48065 7.38583,7.4266 9.29251,9.95517 10.57043,14.01797 0.55222,1.75571 0.57741,2.2437 0.19106,3.70205 -1.35565,5.11733 -6.17084,8.08242 -10.93788,6.73534 z"
       id="path908"
       inkscape:connector-curvature="0" />
    <path
       style="fill:#000000;stroke-width:0.35277781"
       d="m 125.86457,367.52486 c 3.00202,-2.0629 4.19927,-5.79525 2.75015,-8.57345 -0.30362,-0.58208 -0.55301,-1.22809 -0.55421,-1.43559 -0.006,-1.04599 -3.99669,-5.63552 -9.36746,-10.77319 -1.54305,-1.47608 -3.62096,-3.6192 -4.61757,-4.7625 -0.99662,-1.14329 -2.24289,-2.55497 -2.7695,-3.13705 -0.52661,-0.58209 -1.38744,-1.53459 -1.91297,-2.11667 -0.52553,-0.58208 -1.66051,-2.01083 -2.52218,-3.175 -0.86166,-1.16417 -1.72541,-2.29565 -1.91943,-2.51441 -0.19403,-0.21876 -0.59091,-0.75679 -0.88195,-1.19561 -0.29104,-0.43882 -0.88635,-1.23525 -1.32292,-1.76984 -0.43656,-0.5346 -0.79375,-1.14751 -0.79375,-1.36204 0,-0.21452 -0.16373,-0.39004 -0.36384,-0.39004 -0.20012,0 -0.468,-0.27141 -0.59529,-0.60312 -0.12729,-0.33171 -0.96693,-1.72078 -1.865868,-3.08681 -0.898934,-1.36603 -1.74988,-2.72181 -1.890988,-3.01285 -0.141107,-0.29104 -0.642091,-1.16417 -1.113296,-1.94028 -0.471205,-0.77611 -1.030309,-1.8077 -1.242448,-2.29241 -0.21214,-0.48471 -0.594007,-1.11971 -0.848593,-1.41111 -0.254589,-0.2914 -0.582436,-0.92669 -0.72855,-1.41176 -0.146113,-0.48507 -0.364934,-0.96132 -0.486269,-1.05833 -0.363957,-0.29101 -2.153743,-4.03304 -2.153743,-4.50298 0,-0.23975 -0.15875,-0.43591 -0.352778,-0.43591 -0.194028,0 -0.352778,-0.21795 -0.352778,-0.48432 0,-0.44176 -0.692238,-2.22147 -1.938468,-4.98374 -1.108823,-2.4577 -1.942088,-4.76034 -1.942088,-5.36676 0,-0.35742 -0.21784,-0.963 -0.484092,-1.34571 -0.266249,-0.38273 -0.603935,-1.24628 -0.750411,-1.91901 -0.146477,-0.67272 -0.402051,-1.46647 -0.567941,-1.76388 -0.16589,-0.29741 -0.549741,-1.49325 -0.852999,-2.65742 -0.303262,-1.16416 -0.799793,-2.98979 -1.103408,-4.05694 -0.824184,-2.89687 -1.900904,-7.98979 -2.237479,-10.58334 -0.163668,-1.26118 -0.454963,-2.70316 -0.647319,-3.2044 -0.192359,-0.50124 -0.453993,-2.40624 -0.581409,-4.23333 -0.127417,-1.8271 -0.483564,-4.67136 -0.791436,-6.3206 -0.454413,-2.43426 -0.561231,-5.82035 -0.56756,-17.99167 -0.0053,-10.25195 0.120276,-15.43928 0.397214,-16.40416 0.222754,-0.77612 0.576566,-3.39549 0.786246,-5.82084 0.209681,-2.42535 0.542823,-4.8263 0.740319,-5.33545 0.197492,-0.50915 0.496817,-1.77915 0.665162,-2.82222 0.435247,-2.69681 1.643109,-7.93719 2.307301,-10.01039 0.310804,-0.97013 0.797412,-2.62791 1.081349,-3.68395 0.283933,-1.05603 0.654836,-2.08791 0.82423,-2.29305 0.16939,-0.20515 0.419562,-0.97006 0.555935,-1.69981 0.13637,-0.72975 0.384387,-1.41114 0.551149,-1.5142 0.166758,-0.10306 0.473794,-0.85537 0.682296,-1.6718 0.208506,-0.81642 0.599843,-1.96066 0.869637,-2.54274 0.471032,-1.01626 1.167768,-2.62101 2.450659,-5.64445 0.329318,-0.77611 0.938604,-2.04611 1.353972,-2.82222 0.415371,-0.77611 1.311864,-2.52236 1.992213,-3.88055 0.680346,-1.3582 1.33422,-2.54882 1.453053,-2.64584 0.118834,-0.097 1.144937,-1.76389 2.280229,-3.70416 2.278144,-3.89348 8.596477,-12.87639 9.056897,-12.87639 0.16046,0 0.29175,-0.17641 0.29175,-0.39202 0,-0.33989 1.90041,-2.80346 3.52778,-4.57321 0.29104,-0.3165 1.95791,-2.13315 3.70416,-4.037 1.74626,-1.90385 3.69208,-3.93811 4.32405,-4.52058 0.63198,-0.58247 1.58891,-1.46906 2.12651,-1.9702 2.74183,-2.55584 7.3298,-8.12904 8.82568,-10.72091 0.78756,-1.36458 1.13027,-5.18331 0.46518,-5.18331 -0.17049,0 -0.49872,-0.45566 -0.7294,-1.01257 -0.23069,-0.55691 -0.76588,-1.19076 -1.18933,-1.40855 -0.42345,-0.21779 -1.00803,-0.54834 -1.29907,-0.73456 -1.34242,-0.85893 -3.24983,-1.49505 -3.97015,-1.32404 -2.69075,0.63879 -4.56647,1.35132 -6.37184,2.42046 -2.84845,1.68684 -9.1675,7.02652 -11.70663,9.89223 -1.16416,1.3139 -2.9501,3.26058 -3.968746,4.32596 -1.018646,1.06538 -1.852083,2.0992 -1.852083,2.29739 0,0.19819 -0.121141,0.36035 -0.269205,0.36035 -0.148061,0 -1.209407,1.20031 -2.358546,2.66736 -1.149134,1.46705 -2.337682,2.95727 -2.641212,3.3116 -0.939627,1.09688 -2.483312,3.07825 -3.299774,4.23536 -1.878129,2.66174 -4.85582,7.07579 -6.198482,9.18846 -0.801518,1.26118 -1.5771,2.4595 -1.723517,2.66294 -0.402379,0.55909 -1.319174,2.23176 -2.407613,4.39261 -0.537532,1.06716 -1.076781,2.01966 -1.19833,2.11667 -0.12155,0.097 -0.743896,1.20826 -1.382992,2.46945 -0.639092,1.26118 -1.531641,3.00743 -1.983443,3.88055 -0.928522,1.79441 -1.489442,3.05801 -2.818832,6.35 -0.509295,1.26118 -1.154208,2.7933 -1.433136,3.40471 -0.278927,0.6114 -0.512529,1.32578 -0.519112,1.5875 -0.0066,0.26171 -0.318696,1.11085 -0.693586,1.88696 -0.37489,0.77611 -0.687003,1.65717 -0.693586,1.95792 -0.0066,0.30074 -0.156305,0.69761 -0.332719,0.88194 -0.867385,0.9063 -5.676473,19.02937 -5.676473,21.39182 0,0.50284 -0.3175,2.45734 -0.705556,4.34332 -0.388055,1.88598 -0.705555,4.17948 -0.705555,5.09666 0,0.91718 -0.237191,3.24126 -0.527086,5.16463 -0.733802,4.86851 -0.726821,22.68188 0.01164,29.72006 1.130194,10.77167 1.752261,15.52191 2.456212,18.75615 0.2745,1.26118 0.602273,3.08681 0.72838,4.05695 0.126108,0.97014 0.429101,2.47826 0.673315,3.35139 0.244218,0.87312 0.805861,3.09562 1.2481,4.93889 0.442235,1.84326 0.925442,3.51014 1.073792,3.70416 0.14835,0.19403 0.382133,0.98778 0.519518,1.76389 0.137386,0.77611 0.445806,1.88736 0.685374,2.46945 0.239571,0.58208 0.852191,2.32833 1.361383,3.88055 1.393734,4.24869 1.979105,5.88388 2.544855,7.10887 0.28237,0.61141 0.513401,1.27323 0.513401,1.47072 0,0.19749 0.226345,0.8085 0.50299,1.3578 0.276649,0.5493 2.050101,4.17373 3.941008,8.05428 1.890907,3.88056 3.529874,7.13493 3.642145,7.23195 0.112275,0.097 0.58806,0.89076 1.057303,1.76388 0.469244,0.87313 1.143932,1.9661 1.499306,2.42883 0.355374,0.46273 0.646137,0.98537 0.646137,1.16142 0,0.17605 0.161819,0.51183 0.359601,0.74617 0.68822,0.81546 4.226514,6.29377 4.226514,6.54387 0,0.13849 0.277813,0.5005 0.617361,0.80446 0.339549,0.30396 0.855487,0.91017 1.146528,1.34714 0.566032,0.84982 3.059829,4.11647 3.79584,4.9722 0.244447,0.28421 1.355697,1.70737 2.469445,3.16258 2.256098,2.94779 2.813085,3.63469 4.839676,5.96844 2.11008,2.42986 8.66432,8.92806 10.00398,9.91842 0.64735,0.47854 1.39008,1.06853 1.6505,1.31106 0.26042,0.24254 0.55626,0.44097 0.6574,0.44097 0.10115,0 0.86655,0.45897 1.70089,1.01992 4.48126,3.01283 8.11083,3.46237 11.14128,1.37992 z"
       id="path906"
       inkscape:connector-curvature="0" />
    <path
       style="fill:#000000;stroke-width:0.35277781"
       d="m 157.67697,351.32103 c -2.44244,-0.82846 -4.92214,-3.10284 -6.1437,-5.63502 -1.30844,-2.71226 -1.34898,-6.52532 -0.0975,-9.17073 1.13182,-2.39246 2.9731,-4.31233 5.12448,-5.34318 l 1.66059,-0.79569 h 88.01806 88.01807 l 1.63374,0.78346 c 2.51248,1.20485 4.74979,3.92835 5.64311,6.86944 0.83794,2.75871 0.77049,4.02209 -0.37641,7.05042 -1.07533,2.83935 -3.54589,5.20413 -6.49391,6.21586 l -2.26304,0.77665 -86.38425,-0.0441 c -83.54958,-0.0426 -86.44841,-0.0658 -88.33924,-0.70716 z"
       id="path904"
       inkscape:connector-curvature="0" />
    <path
       style="fill:#000000;stroke-width:0.35277781"
       d="m 334.86817,349.63154 c 2.18042,-1.11429 3.65188,-2.58503 4.74549,-4.74319 0.77458,-1.52855 0.87026,-2.10598 0.75813,-4.57525 -0.0831,-1.82996 -0.28186,-2.87709 -0.56394,-2.97112 -0.23959,-0.0799 -0.43561,-0.38385 -0.43561,-0.67553 0,-0.29168 -0.84682,-1.35709 -1.88183,-2.36758 -3.43573,-3.35435 5.98591,-3.04052 -91.27969,-3.04052 -77.57697,0 -85.82913,0.0533 -87.3334,0.56401 -2.56114,0.86953 -5.0928,2.91478 -5.63366,4.55127 -0.12826,0.38806 -0.41023,0.81883 -0.62661,0.95728 -0.24307,0.15551 -0.39343,1.50375 -0.39343,3.52777 0,3.21371 0.0258,3.31468 1.35722,5.30454 0.74647,1.11566 1.57991,2.02847 1.85209,2.02847 0.27217,0 0.49486,0.14712 0.49486,0.32694 0,0.44309 2.01207,1.46796 3.52778,1.79692 0.67909,0.14739 40.0491,0.24575 87.48889,0.21859 l 86.25417,-0.0494 z"
       id="path902"
       inkscape:connector-curvature="0" />
    <path
       style="fill:#000000;stroke-width:0.35277781"
       d="m 228.24724,311.85558 c -0.29105,-0.18809 -0.92605,-0.34539 -1.41111,-0.34955 -0.48507,-0.004 -1.33666,-0.24473 -1.89241,-0.53457 -0.55576,-0.28985 -1.19688,-0.527 -1.42472,-0.527 -0.22783,0 -1.037,-0.3175 -1.79815,-0.70555 -0.76115,-0.38806 -1.54878,-0.70633 -1.75029,-0.70728 -0.51027,-0.002 -4.76535,-2.21271 -7.67349,-3.98602 -1.33521,-0.81417 -2.7265,-1.64815 -3.09177,-1.85328 -0.79492,-0.44643 -2.39801,-1.59584 -2.95757,-2.12056 -0.22104,-0.20728 -1.19563,-0.98178 -2.16577,-1.72111 -0.97014,-0.73933 -2.10388,-1.68099 -2.51943,-2.09258 -0.41555,-0.41158 -1.5268,-1.4852 -2.46945,-2.38581 -1.93494,-1.84865 -3.04226,-3.08282 -4.44259,-4.95148 -0.53064,-0.70811 -1.17489,-1.49965 -1.43166,-1.75899 -1.98743,-2.00723 -8.36326,-13.78564 -8.36326,-15.44989 0,-0.24046 -0.22206,-0.93745 -0.49346,-1.54886 -0.99296,-2.23692 -1.90412,-6.3938 -2.37012,-10.81303 -0.6477,-6.14221 -0.73342,-8.62789 -0.3589,-10.40695 0.20423,-0.97014 0.54409,-3.03389 0.75524,-4.58611 0.21115,-1.55222 0.51909,-3.13972 0.6843,-3.52778 0.16521,-0.38805 0.65418,-1.8168 1.08658,-3.175 0.4324,-1.35819 1.08347,-3.05843 1.44682,-3.7783 0.36336,-0.71988 0.66065,-1.53388 0.66065,-1.80889 0,-0.27502 0.22792,-0.68918 0.50649,-0.92038 0.27857,-0.23119 0.61689,-0.92299 0.75182,-1.53732 0.13493,-0.61434 0.4432,-1.43681 0.68504,-1.82771 0.24185,-0.3909 0.90848,-1.58426 1.4814,-2.6519 0.57292,-1.06764 1.7893,-3.21076 2.70306,-4.7625 2.27997,-3.87181 2.35723,-4.00041 3.60223,-5.99633 1.05262,-1.68752 1.75876,-2.803 5.0247,-7.9375 0.8022,-1.26118 1.62056,-2.4848 1.81857,-2.71914 0.19801,-0.23435 0.36002,-0.53542 0.36002,-0.66904 0,-0.13363 0.59532,-1.13252 1.32292,-2.21975 0.7276,-1.08724 1.48167,-2.25132 1.67569,-2.58684 0.19403,-0.33552 1.34841,-2.27311 2.56529,-4.30575 3.29454,-5.50312 5.92839,-10.84955 7.83198,-15.8981 0.43896,-1.16416 0.92735,-2.37493 1.08531,-2.69059 0.15797,-0.31567 0.39815,-1.18879 0.53373,-1.94028 0.13559,-0.75149 0.38507,-1.54196 0.5544,-1.7566 0.56742,-0.71922 0.96631,-8.24959 0.61756,-11.65843 -0.33703,-3.29425 -1.75395,-7.55761 -3.44073,-10.35271 -0.40981,-0.6791 -1.01413,-1.75066 -1.34292,-2.38125 -0.32878,-0.63059 -0.72714,-1.14653 -0.88523,-1.14653 -0.1581,0 -0.28744,-0.20284 -0.28744,-0.45076 0,-0.24792 -0.27781,-0.69862 -0.61736,-1.00155 -0.33955,-0.30293 -1.43459,-1.40978 -2.43343,-2.45965 -2.24045,-2.35494 -3.02044,-3.00757 -3.94533,-3.30112 -1.0413,-0.33049 -2.88166,-2.55325 -2.88166,-3.48042 0,-0.97238 0.92769,-2.35928 1.57811,-2.35928 0.26387,0 0.53661,-0.17056 0.6061,-0.37902 0.41378,-1.24134 11.19429,-0.29855 14.62605,1.27909 0.61141,0.28108 1.39472,0.51105 1.7407,0.51105 0.34599,0 1.27449,0.29682 2.06336,0.6596 3.03966,1.39787 4.78405,2.16262 4.93294,2.16262 0.31454,0 4.66569,2.65478 6.20274,3.7845 2.856,2.09913 7.34243,5.90152 7.82079,6.62835 0.12983,0.19728 0.65028,0.83228 1.15655,1.41111 1.0715,1.22508 1.00265,1.13681 2.99628,3.84168 1.57538,2.13742 4.95972,8.42073 4.95972,9.20815 0,0.2419 0.22086,0.62312 0.49081,0.84716 0.26995,0.22403 0.59718,1.1166 0.72717,1.98347 0.13,0.86688 0.37143,1.57613 0.53652,1.57613 0.16508,0 0.40753,0.67469 0.53879,1.49931 0.13125,0.82462 0.47852,2.34841 0.77172,3.38621 0.29319,1.03779 0.67247,2.70467 0.84283,3.70416 1.02811,6.0316 1.44694,8.30404 1.73283,9.40199 0.17682,0.6791 0.66397,3.13973 1.08255,5.46806 0.41858,2.32833 0.98209,4.83186 1.25225,5.56339 0.27016,0.73153 0.49658,1.68403 0.50316,2.11667 0.007,0.43263 0.3187,1.42161 0.69359,2.19772 0.37489,0.77611 0.687,1.60159 0.69359,1.8344 0.0139,0.48982 1.89412,3.35479 2.56015,3.9009 0.54805,0.44937 3.48806,1.30934 3.9782,1.16364 0.19403,-0.0577 1.12367,-0.31391 2.06585,-0.56941 1.87742,-0.50913 3.97402,-2.46712 4.32222,-4.03648 0.10762,-0.48507 0.36078,-1.3185 0.56257,-1.85208 0.25465,-0.67331 0.25368,-1.26697 -0.003,-1.94028 -0.20353,-0.53357 -0.47008,-1.7205 -0.59235,-2.63761 -0.12227,-0.91711 -0.37188,-1.75992 -0.5547,-1.8729 -0.18278,-0.11299 -0.33236,-0.50418 -0.33236,-0.86931 0,-0.75889 -2.33503,-5.84549 -3.90823,-8.51365 -1.03079,-1.74821 -1.45592,-4.27123 -0.87744,-5.20724 0.13266,-0.21464 1.16292,-0.39026 2.28947,-0.39026 1.5141,0 2.2822,0.184 2.94524,0.70555 0.49333,0.38806 1.00305,0.70556 1.13271,0.70556 0.97642,0 10.51385,8.90686 14.12696,13.19295 0.96459,1.14425 2.0316,2.37456 2.37115,2.73403 0.33955,0.35946 0.61736,0.81233 0.61736,1.00635 0,0.19403 0.15468,0.35278 0.34372,0.35278 0.18905,0 0.59444,0.48484 0.90088,1.07742 0.30643,0.59259 0.90396,1.47629 1.32784,1.96379 1.45242,1.67044 6.59766,11.41552 6.59907,12.49865 3.6e-4,0.30075 0.1378,0.69762 0.30535,0.88195 0.59548,0.65512 2.24664,6.26203 2.87998,9.77968 0.1667,0.92589 0.47221,2.19589 0.6789,2.82223 0.89217,2.70351 1.77596,18.57002 1.2621,22.65823 -0.0976,0.77611 -0.2651,2.44299 -0.37233,3.70417 -0.29989,3.52715 -1.24995,8.54224 -2.00491,10.58333 -0.10766,0.29104 -0.39377,1.24354 -0.63581,2.11667 -0.24204,0.87312 -0.68747,2.30187 -0.98985,3.175 -0.65489,1.89103 -4.14771,8.76023 -4.85736,9.55278 -0.27428,0.30632 -0.49869,0.68236 -0.49869,0.83566 0,0.34395 -3.40914,5.22332 -4.80063,6.87095 -2.66919,3.16053 -8.11945,8.29069 -11.84608,11.15034 -6.8751,5.27564 -10.33861,7.22082 -12.85708,7.22082 -2.03407,0 -3.89139,-1.12955 -4.20553,-2.55763 -0.43421,-1.97392 0.15921,-3.01197 3.84199,-6.72074 1.97196,-1.98587 4.14101,-4.30615 4.82011,-5.15615 0.6791,-0.85001 1.51253,-1.79525 1.85208,-2.10054 0.33955,-0.30529 0.61736,-0.74093 0.61736,-0.96809 0,-0.22717 0.23813,-0.5044 0.52917,-0.61609 0.29104,-0.11168 0.52917,-0.42673 0.52917,-0.7001 0,-0.27337 0.25466,-0.7084 0.56592,-0.96671 0.31125,-0.25832 0.70538,-0.7937 0.87584,-1.18973 0.17046,-0.39603 0.70847,-1.35505 1.19557,-2.13116 0.48711,-0.77611 0.9831,-1.64924 1.10221,-1.94028 0.1191,-0.29104 0.44255,-1.03968 0.71878,-1.66364 0.7997,-1.80642 1.89168,-5.41383 1.89168,-6.24926 0,-0.42099 0.1729,-0.93834 0.38423,-1.14966 0.56517,-0.56518 0.83011,-8.38972 0.36206,-10.693 -0.21685,-1.06715 -0.55182,-2.73402 -0.74437,-3.70416 -0.19255,-0.97014 -0.48416,-2.08139 -0.64802,-2.46945 -0.16387,-0.38805 -0.63761,-1.75702 -1.05277,-3.04214 -0.79726,-2.46797 -3.40994,-7.34651 -4.18974,-7.8233 -0.25377,-0.15517 -0.46139,-0.48137 -0.46139,-0.72491 0,-0.70264 -4.11159,-4.0525 -5.02709,-4.09576 -0.44095,-0.0209 -0.2971,1.2556 0.26241,2.32842 0.28985,0.55576 0.52797,1.29617 0.52917,1.64535 10e-4,0.34918 0.26678,1.14293 0.59019,1.76389 0.4267,0.81929 0.59606,2.09679 0.61736,4.65679 0.0264,3.17825 -0.0549,3.65011 -0.82125,4.7625 -1.12928,1.63924 -1.94578,2.29945 -4.26468,3.44838 -1.77286,0.87839 -2.29033,0.96134 -5.99722,0.96134 -3.80353,0 -4.14774,-0.0591 -5.51031,-0.94557 -1.48173,-0.96401 -3.66016,-3.33354 -3.66409,-3.9855 -0.001,-0.19833 -0.27166,-0.83685 -0.60104,-1.41893 -0.82616,-1.46004 -0.90145,-11.35467 -0.10066,-13.22917 0.67627,-1.583 0.74096,-8.21823 0.0865,-8.87249 -0.24253,-0.24246 -0.44097,-0.71343 -0.44097,-1.04659 0,-2.01898 -3.66555,-7.88316 -6.87917,-11.00536 -4.50981,-4.38151 -10.05417,-6.75228 -10.05417,-4.29917 0,0.8205 1.07523,2.29225 1.6757,2.29369 0.33962,7e-4 1.94974,2.63012 2.59198,4.2327 0.66194,1.65171 0.70579,11.74879 0.0538,12.40037 -0.24253,0.24241 -0.44097,0.70456 -0.44097,1.02701 0,0.70708 -2.46887,5.58176 -3.33811,6.59099 -1.68358,1.95467 -4.42945,4.65787 -6.0105,5.91708 -0.97014,0.77266 -1.92264,1.57847 -2.11667,1.79071 -0.19403,0.21224 -1.5434,1.37706 -2.99861,2.58849 -3.46048,2.88078 -7.37307,6.93658 -8.75562,9.0761 -0.60698,0.93932 -1.26653,1.8996 -1.46566,2.13394 -0.19913,0.23435 -0.36205,0.56172 -0.36205,0.72749 0,0.16577 -0.3175,0.95856 -0.70556,1.76174 -0.38805,0.80318 -0.70555,1.75375 -0.70555,2.11237 0,0.35862 -0.18446,0.8365 -0.40991,1.06195 -0.56455,0.56455 -0.8022,8.80043 -0.34344,11.90204 0.96911,6.55186 1.5053,8.42512 3.63517,12.7 1.78739,3.58748 2.63682,4.99315 4.17373,6.90685 2.97731,3.70723 6.47703,6.28542 10.34357,7.61996 2.95051,1.01838 3.94453,2.03235 3.5872,3.65925 -0.37218,1.69455 -3.52458,2.77132 -5.11132,1.74589 z"
       id="path900"
       inkscape:connector-curvature="0" />
    <path
       style="fill:#000000;stroke-width:0.35277781"
       d="m 231.09265,310.78483 c 1.4743,-0.78902 0.38324,-2.4297 -2.01492,-3.02994 -5.2725,-1.31965 -11.8721,-7.73501 -15.01572,-14.59654 -2.79399,-6.0984 -3.97237,-11.88823 -3.94897,-19.40278 0.0146,-4.68888 0.35362,-7.09131 1.34409,-9.525 0.27638,-0.6791 0.59852,-1.47285 0.71585,-1.76389 0.11734,-0.29104 0.59889,-1.16416 1.0701,-1.94027 0.47121,-0.77612 1.0124,-1.749 1.20263,-2.16197 0.40585,-0.88101 7.69351,-8.27161 9.74458,-9.88223 1.30832,-1.02736 2.58346,-2.07067 4.68202,-3.83081 1.87598,-1.57344 5.72493,-5.66027 5.72493,-6.07873 0,-0.24621 0.13279,-0.44766 0.29509,-0.44766 0.25584,0 1.64473,-2.60104 2.54304,-4.7625 0.76525,-1.84127 1.39529,-4.8906 1.39612,-6.75707 0.001,-2.26268 -0.97476,-6.82487 -1.45973,-6.82487 -0.16779,0 -0.30508,-0.24849 -0.30508,-0.55221 0,-0.30371 -0.87312,-1.43938 -1.94028,-2.52371 -1.56709,-1.59231 -1.94027,-2.19699 -1.94027,-3.14383 0,-1.7139 1.20162,-2.40366 3.73238,-2.14246 1.70029,0.17549 4.84851,1.54906 5.43984,2.37342 0.097,0.13524 0.65264,0.49227 1.23472,0.79341 1.23644,0.63965 4.87085,4.56625 6.68102,7.21815 1.77304,2.59749 2.78695,5.07851 3.52111,8.6161 0.6646,3.20238 0.64467,3.8176 -0.31824,9.82224 -1.97486,12.3152 2.12528,18.27347 11.41531,16.58858 3.51418,-0.63735 6.10171,-2.55185 6.76172,-5.00295 0.46695,-1.73409 0.16955,-4.8861 -0.72556,-7.68997 -1.33458,-4.18045 -1.56799,-5.56868 -1.04273,-6.20158 0.66448,-0.80065 2.5123,-0.46686 4.30925,0.77844 1.68328,1.16651 4.82245,5.09229 5.93775,7.42562 0.44339,0.92762 0.9185,1.76596 1.0558,1.86297 0.1373,0.097 0.41497,0.73202 0.61705,1.41111 0.20208,0.6791 0.7593,2.34598 1.23827,3.70417 1.26197,3.57848 1.64786,6.45198 1.64786,12.27056 0,7.19992 -0.55962,9.70163 -3.52887,15.77528 -0.61656,1.26118 -1.30779,2.61055 -1.53606,2.99861 -0.56933,0.96784 -3.18206,4.89784 -3.40073,5.11528 -0.0976,0.097 -0.75393,0.89076 -1.4586,1.76388 -0.70466,0.87313 -1.65716,1.99617 -2.11666,2.49564 -0.45951,0.49947 -1.51342,1.65041 -2.34204,2.55764 -0.82861,0.90723 -1.58308,1.6495 -1.67661,1.6495 -0.28416,0 -2.79253,2.84883 -3.12713,3.55156 -0.38763,0.81411 0.36706,2.07212 1.65735,2.76266 0.79124,0.42347 1.08592,0.40923 2.25248,-0.10877 0.73819,-0.32779 1.73903,-0.83602 2.2241,-1.12941 0.48507,-0.29338 1.15975,-0.62153 1.4993,-0.72921 0.33955,-0.10768 0.61736,-0.33602 0.61736,-0.50742 0,-0.17139 0.15839,-0.31163 0.35197,-0.31163 0.6894,0 9.09094,-6.34698 9.63154,-7.2762 0.15516,-0.2667 0.43582,-0.48491 0.6237,-0.48491 0.74467,0 7.18707,-6.98665 10.09186,-10.94441 1.3516,-1.84156 4.7658,-7.59785 5.64459,-9.5167 2.53373,-5.53243 3.53473,-8.69668 4.4082,-13.93473 0.19412,-1.16416 0.57985,-2.98979 0.85716,-4.05694 0.61442,-2.36443 0.51283,-19.65466 -0.13059,-22.225 -0.21856,-0.87313 -0.56155,-2.77813 -0.7622,-4.23334 -0.46388,-3.36431 -1.07548,-6.36423 -1.44688,-7.09705 -0.15908,-0.31387 -0.46914,-1.26637 -0.68903,-2.11667 -1.49548,-5.78298 -7.5233,-16.89174 -11.65433,-21.47794 -0.6117,-0.6791 -1.93185,-2.16587 -2.93367,-3.30394 -2.12848,-2.41798 -7.08229,-7.34552 -8.91414,-8.8669 -0.70087,-0.58208 -1.62023,-1.37583 -2.04301,-1.76389 -0.42279,-0.38805 -1.1596,-0.90568 -1.63735,-1.15027 -0.47776,-0.2446 -1.3449,-0.74893 -1.92698,-1.12074 -0.58209,-0.37182 -1.41552,-0.68763 -1.85209,-0.70181 -0.66662,-0.0217 -0.79291,0.15784 -0.78855,1.12074 0.003,0.63059 0.2013,1.49541 0.44097,1.92182 0.53544,0.95262 2.34226,4.26327 2.7398,5.02017 0.46435,0.88408 1.60075,3.57793 2.31741,5.49343 0.96879,2.58939 0.94806,8.68991 -0.0353,10.39706 -1.40553,2.44001 -3.88447,3.90299 -6.9713,4.11421 -3.17036,0.21694 -4.62811,-0.32053 -6.17291,-2.27597 -0.72582,-0.91876 -1.61212,-2.38069 -1.96954,-3.24872 -0.35743,-0.86804 -0.86644,-2.0545 -1.13114,-2.63658 -0.26471,-0.58209 -0.64326,-1.98034 -0.84124,-3.10722 -0.19798,-1.12689 -0.47717,-2.23814 -0.62042,-2.46945 -0.27247,-0.43997 -0.73259,-2.86596 -1.8863,-9.94556 -0.37943,-2.32833 -0.93761,-5.34458 -1.24039,-6.70277 -0.30279,-1.3582 -0.6873,-3.18382 -0.85447,-4.05695 -0.16717,-0.87312 -0.46649,-2.2225 -0.66517,-2.99861 -0.19867,-0.77611 -0.51664,-2.02583 -0.70661,-2.77716 -0.18996,-0.75133 -0.51648,-1.53714 -0.72559,-1.74625 -0.20911,-0.20911 -0.3802,-0.61583 -0.3802,-0.90382 0,-0.51275 -1.13756,-3.22688 -1.79141,-4.27416 -0.18171,-0.29104 -0.51877,-0.92604 -0.74903,-1.41111 -0.58565,-1.23375 -3.21348,-5.78357 -3.4638,-5.99722 -0.11367,-0.097 -0.67453,-0.80284 -1.24635,-1.5685 -1.30225,-1.74368 -5.83468,-6.32361 -7.86022,-7.94259 -1.77888,-1.42183 -4.29329,-3.06667 -6.05586,-3.96152 -0.48507,-0.24626 -0.96132,-0.54871 -1.05833,-0.6721 -0.14978,-0.19051 -1.60121,-0.88704 -5.11528,-2.45476 -3.08018,-1.37415 -8.58034,-2.78982 -12.23229,-3.14842 -3.64038,-0.35747 -5.50447,-0.15965 -6.65197,0.70592 -0.75998,0.57325 -0.79932,0.7252 -0.38717,1.4953 0.25232,0.47147 1.04036,1.11388 1.75121,1.42757 1.19733,0.52839 4.69353,3.70247 6.7605,6.13762 2.10364,2.47836 5.29166,8.11734 5.29166,9.35991 0,0.26425 0.13717,0.63127 0.30482,0.81559 0.43669,0.48015 1.10629,3.43029 1.10629,4.87417 0,0.67539 0.18501,2.02948 0.41114,3.0091 0.31491,1.36429 0.31208,2.50577 -0.0121,4.87761 -0.59611,4.36104 -1.17083,7.59242 -1.46052,8.21176 -0.13613,0.29105 -0.60709,1.64042 -1.04659,2.99862 -0.76827,2.37425 -1.86599,5.06283 -2.52061,6.17361 -0.17152,0.29104 -0.47013,0.92604 -0.66358,1.41111 -0.19345,0.48507 -0.50276,1.12007 -0.68735,1.41111 -0.18459,0.29104 -0.68819,1.24354 -1.11912,2.11667 -0.77805,1.57648 -4.50668,8.00938 -5.68972,9.81633 -0.33971,0.51886 -0.8174,1.34026 -1.06153,1.82533 -0.24412,0.48507 -1.22804,2.07257 -2.18647,3.52778 -0.95844,1.45521 -2.35032,3.59834 -3.09307,4.7625 -0.74274,1.16417 -1.54463,2.39954 -1.78197,2.74528 -1.03306,1.50487 -6.38908,10.44192 -7.02303,11.71861 -0.28904,0.58209 -1.02187,1.96407 -1.62851,3.07109 -1.9067,3.47937 -1.56123,2.75888 -3.77126,7.86502 -0.25194,0.58209 -0.63819,1.45521 -0.85835,1.94028 -0.43276,0.95351 -1.03224,2.97231 -2.35581,7.93342 -0.72828,2.72983 -0.84238,3.93214 -0.82021,8.64306 0.0142,3.00967 0.15649,6.26588 0.31627,7.23602 0.679,4.12258 1.17111,6.37127 1.46299,6.68514 0.17141,0.18433 0.31165,0.60283 0.31165,0.93001 0,0.74222 1.62538,5.62101 2.30971,6.9329 0.27949,0.5358 0.50915,1.15318 0.51034,1.37195 0.001,0.21878 0.2301,0.58693 0.50867,0.81813 0.27857,0.23119 0.60868,0.88563 0.73358,1.45431 0.12491,0.56867 0.35472,1.03395 0.5107,1.03395 0.15598,0 0.37715,0.27782 0.49149,0.61736 0.44137,1.31077 4.06206,6.79098 4.48669,6.79098 0.15348,0 0.38717,0.34063 0.5193,0.75695 0.30766,0.96933 9.39079,10.03821 10.36306,10.3468 0.40323,0.12797 0.73313,0.36132 0.73313,0.51855 0,0.44744 9.65755,6.72214 10.34621,6.72214 0.10987,0 1.3591,0.54326 2.77608,1.20723 3.12574,1.46468 9.67329,3.96446 10.62521,4.05659 0.15828,0.0153 0.59484,-0.13648 0.97014,-0.33734 z"
       id="path896"
       inkscape:connector-curvature="0" />
    <path
       style="opacity:1;fill:#ffffff;fill-opacity:1;stroke:none;stroke-width:17.09513283;stroke-miterlimit:4;stroke-dasharray:none;stroke-opacity:1"
       d="m 446.64384,1394.3951 c -20.03176,-6.8866 -47.815,-30.483 -76.33725,-64.8333 -83.11417,-100.0972 -125.62833,-197.0864 -142.36909,-324.7922 -5.93759,-45.29441 -6.75698,-128.71412 -1.67238,-170.25903 4.99834,-40.84011 22.49025,-112.222 33.35306,-136.10884 24.41592,-53.68958 33.16919,-71.12113 46.43835,-92.47888 33.70576,-54.25207 83.05182,-112.27934 116.34216,-136.80966 17.40917,-12.82813 21.79123,-14.52098 37.58843,-14.52098 15.31263,0 18.88329,1.2731 24.85173,8.86074 14.0735,17.89155 8.16332,29.83042 -40.42974,81.67027 -47.02845,50.17071 -70.4301,82.80523 -95.44453,133.10117 -37.76462,75.93246 -52.20349,141.50705 -52.20349,237.08375 0,119.22426 26.51266,216.14336 83.25396,304.34156 19.48099,30.2811 36.11651,50.7412 68.35644,84.0722 44.55509,46.0629 51.48692,62.2196 35.06686,81.7337 -10.04279,11.9352 -20.61145,14.5029 -36.79451,8.9395 z"
       id="path914"
       inkscape:connector-curvature="0"
       transform="scale(0.26458333)" />
    <path
       style="opacity:1;fill:#ffffff;fill-opacity:1;stroke:none;stroke-width:17.09513283;stroke-miterlimit:4;stroke-dasharray:none;stroke-opacity:1"
       d="m 847.39343,1172.4942 c -30.67803,-11.2645 -61.89294,-31.0587 -87.88114,-55.7279 -42.16439,-40.0243 -62.59162,-79.1276 -69.50777,-133.05688 -7.27939,-56.76158 6.09225,-94.99677 67.3088,-192.4644 60.66154,-96.58398 76.32137,-133.93877 73.38052,-175.04111 -2.32141,-32.44473 -14.78849,-57.76718 -40.21145,-81.67534 -17.31241,-16.28086 -19.83185,-20.06162 -16.24713,-24.38095 8.68892,-10.46951 53.68032,-3.55311 88.8228,13.65448 40.97512,20.06355 76.15733,59.17469 92.02116,102.2975 3.7423,10.17274 11.64175,42.7087 17.55433,72.30213 5.91257,29.59343 13.56092,60.2439 16.99633,68.11216 10.01067,22.92786 32.56582,26.74631 47.34762,8.01567 9.0662,-11.48816 6.8012,-30.64848 -7.1467,-60.45446 -12.1508,-25.96574 -12.488,-30.80637 -2.1457,-30.80637 10.3687,0 29.3526,14.18315 54.5036,40.72049 54.4682,57.47051 75.7946,112.91859 76.0613,197.7573 0.2711,86.20418 -22.8158,138.45498 -85.9309,194.48108 -30.9771,27.4978 -53.8456,39.8611 -64.6367,34.9444 -4.4425,-2.0241 -8.0773,-6.1186 -8.0773,-9.0987 0,-2.9802 10.3754,-17.0107 23.0565,-31.1789 46.2586,-51.6833 59.1126,-92.0563 45.7181,-143.59565 -6.3556,-24.45477 -20.9903,-51.16533 -32.9091,-60.064 -11.5559,-8.62777 -13.441,-6.06171 -8.8732,12.07855 6.353,25.23015 3.3851,39.97337 -9.8344,48.85217 -16.88719,11.34215 -37.44808,10.4863 -51.57447,-2.14684 l -10.98245,-9.82148 v -48.42478 c 0,-46.71256 -0.31409,-48.89972 -8.88289,-61.8569 -12.62969,-19.09776 -29.40907,-35.04081 -42.74209,-40.61171 -15.30533,-6.39496 -21.60463,-0.93627 -11.44053,9.91386 16.40421,17.51143 18.97636,47.99535 6.31722,74.86884 -5.72187,12.14673 -18.45125,26.58331 -45.85466,52.00454 -45.51402,42.22182 -53.68806,56.32733 -53.73858,92.7339 -0.0428,30.8644 7.38162,58.4787 22.34583,83.1125 11.72875,19.3076 31.34409,36.9693 46.06108,41.4735 12.19259,3.7316 16.24648,8.3665 11.8993,13.6045 -4.72194,5.6896 -14.30446,5.5273 -30.77733,-0.5212 z"
       id="path916"
       inkscape:connector-curvature="0"
       transform="scale(0.26458333)" />
    <path
       style="opacity:1;fill:#ffffff;fill-opacity:1;stroke:none;stroke-width:17.09513283;stroke-miterlimit:4;stroke-dasharray:none;stroke-opacity:1"
       d="m 594.37555,1324.2829 c -12.40259,-5.4053 -17.88857,-11.7665 -21.7455,-25.2149 -4.02363,-14.0295 1.41602,-32.0878 12.22748,-40.5921 8.67793,-6.8261 11.33271,-6.8788 346.59406,-6.8788 h 337.84911 l 9.5093,10.1797 c 5.23,5.5988 10.4629,14.5219 11.6285,19.829 3.0018,13.6667 -5.8441,32.4575 -19.0777,40.5258 -10.9678,6.6869 -15.9602,6.7851 -339.0135,6.6678 -262.41993,-0.095 -329.89625,-0.997 -337.97175,-4.5165 z"
       id="path918"
       inkscape:connector-curvature="0"
       transform="scale(0.26458333)" />
    <path
       style="opacity:1;fill:#ffffff;fill-opacity:1;stroke:none;stroke-width:17.09513283;stroke-miterlimit:4;stroke-dasharray:none;stroke-opacity:1"
       d="m 1335.0533,1395.932 c -3.2368,-1.8853 -8.1837,-7.8726 -10.9929,-13.3052 -7.6787,-14.8488 -1.2634,-26.2656 38.7307,-68.9261 91.4032,-97.4971 130.518,-174.9582 148.5309,-294.143 13.1552,-87.0434 2.7747,-198.34854 -26.1366,-280.25213 -26.2363,-74.32524 -56.8312,-122.78912 -122.6108,-194.22175 -40.2808,-43.74252 -47.1651,-56.82525 -38.6087,-73.37156 13.8135,-26.71226 44.067,-22.4954 81.7629,11.39645 41.3219,37.15195 96.1167,113.20466 123.6174,171.57545 43.2581,91.81604 58.8072,167.90422 58.7059,287.27175 -0.096,112.61079 -13.8623,173.04039 -60.6711,266.31789 -37.0724,73.8754 -110.8955,164.0375 -151.1082,184.5524 -14.2571,7.2735 -31.7952,8.5949 -41.2195,3.1058 z"
       id="path920"
       inkscape:connector-curvature="0"
       transform="scale(0.26458333)" />
  </g>
</svg>
