<?xml version="1.0" encoding="UTF-8" standalone="no"?>
<!-- Created with Inkscape (http://www.inkscape.org/) -->

<svg
   xmlns:dc="http://purl.org/dc/elements/1.1/"
   xmlns:cc="http://creativecommons.org/ns#"
   xmlns:rdf="http://www.w3.org/1999/02/22-rdf-syntax-ns#"
   xmlns:svg="http://www.w3.org/2000/svg"
   xmlns="http://www.w3.org/2000/svg"
   xmlns:sodipodi="http://sodipodi.sourceforge.net/DTD/sodipodi-0.dtd"
   xmlns:inkscape="http://www.inkscape.org/namespaces/inkscape"
   width="200"
   height="49.707588"
   viewBox="0 0 52.916665 13.1518"
   version="1.1"
   id="svg8"
   inkscape:version="0.92.2 (unknown)"
   sodipodi:docname="first drawing (path).svg">
  <defs
     id="defs2" />
  <sodipodi:namedview
     id="base"
     pagecolor="#ffffff"
     bordercolor="#666666"
     borderopacity="1.0"
     inkscape:pageopacity="0.0"
     inkscape:pageshadow="2"
     inkscape:zoom="3.959798"
     inkscape:cx="94.851902"
     inkscape:cy="12.928463"
     inkscape:document-units="px"
     inkscape:current-layer="layer1"
     showgrid="false"
     units="px"
     fit-margin-top="0"
     fit-margin-left="0"
     fit-margin-right="0"
     fit-margin-bottom="0"
     inkscape:window-width="1600"
     inkscape:window-height="876"
     inkscape:window-x="0"
     inkscape:window-y="24"
     inkscape:window-maximized="1" />
  <metadata
     id="metadata5">
    <rdf:RDF>
      <cc:Work
         rdf:about="">
        <dc:format>image/svg+xml</dc:format>
        <dc:type
           rdf:resource="http://purl.org/dc/dcmitype/StillImage" />
        <dc:title></dc:title>
      </cc:Work>
    </rdf:RDF>
  </metadata>
  <g
     inkscape:label="Layer 1"
     inkscape:groupmode="layer"
     id="layer1">
    <g
       aria-label="May the road rise up to meet you.

May the wind be always at your back."
       style="font-style:normal;font-variant:normal;font-weight:normal;font-stretch:normal;font-size:3.56224251px;line-height:1.25;font-family:'Kaushan Script';-inkscape-font-specification:'Kaushan Script';letter-spacing:0px;word-spacing:0px;fill:#000000;fill-opacity:1;stroke:none;stroke-width:0.08905605"
       id="text830">
      <path
         d="m 4.5126649,3.2238294 q -0.00712,0.00356 -0.014249,0.00356 -0.00712,0 -0.028498,0 -0.049871,0 -0.117554,-0.017811 -0.06412,-0.014249 -0.1282407,-0.039185 -0.060558,-0.021373 -0.1068673,-0.049871 -0.042747,-0.028498 -0.053434,-0.049871 -0.00356,-0.049871 -0.00356,-0.1033051 0,-0.053434 0,-0.103305 0,-0.3989712 0.056996,-0.8335648 0.060558,-0.4345935 0.1959233,-0.940432 0.014249,-0.049871 0.028498,-0.12467847 0.017811,-0.0783693 0.035622,-0.1674254 Q 4.2918059,0.86562484 4.1742519,1.015239 4.0566979,1.161291 3.9248949,1.3643388 3.7966542,1.5638244 3.6648512,1.8060569 3.5366105,2.0447271 3.4297432,2.2940841 3.3228759,2.5398788 3.2445066,2.7821113 3.1696995,3.0243438 3.1518883,3.2309539 2.9809006,3.1810825 2.913218,3.1312111 q -0.06412,-0.049871 -0.06412,-0.1211163 0,-0.06412 0.039185,-0.1816743 Q 2.927467,2.7108665 2.9987119,2.5505655 3.0699567,2.3902646 3.1732617,2.1943413 3.2765668,1.9948557 3.4012453,1.7668722 3.543735,1.5068285 3.6791002,1.278845 3.8180276,1.0508615 3.9498306,0.86562484 4.0816336,0.68038823 4.2063121,0.54502302 4.3345528,0.4096578 4.4592313,0.33841295 q 0.049871,0 0.131803,0.0249357 0.085494,0.0249357 0.1638631,0.0605581 0.081932,0.0356224 0.1424897,0.0748071 0.06412,0.0356224 0.071245,0.0605581 Q 4.9187606,0.65901478 4.851078,0.85850036 4.7833954,1.0579859 4.7121505,1.3109052 4.6444679,1.5638244 4.5803475,1.8488038 4.5197894,2.1302209 4.484167,2.3902646 4.5660986,2.1943413 4.6729658,1.984169 4.7833954,1.7704344 4.9045116,1.5638244 5.0256278,1.3536521 5.1503063,1.1577287 5.2785471,0.96180539 5.3996633,0.80150448 5.5207796,0.63764132 5.6240846,0.51652508 5.7309519,0.39540883 5.8128834,0.33841295 q 0.049871,0 0.131803,0.0249357 0.085494,0.0249357 0.1638632,0.0605581 0.081932,0.0356224 0.1424897,0.0748071 0.06412,0.0356224 0.071245,0.0605581 -0.1139917,0.20304782 -0.1994856,0.49515171 -0.085494,0.2921039 -0.1460519,0.6127057 -0.056996,0.3206018 -0.089056,0.6376414 -0.028498,0.3134774 -0.028498,0.5628343 0,0.081932 0,0.1709877 0,0.089056 0.00712,0.1852366 -0.049871,0 -0.1211163,-0.014249 -0.067683,-0.010687 -0.1353652,-0.03206 -0.06412,-0.021373 -0.117554,-0.049871 -0.053434,-0.024936 -0.074807,-0.056996 -0.00356,-0.049871 -0.00356,-0.1033051 0,-0.053434 0,-0.103305 0,-0.3989712 0.056996,-0.8335648 0.060558,-0.4345935 0.1959233,-0.940432 0.014249,-0.049871 0.03206,-0.1353652 0.017811,-0.0854938 0.035622,-0.17811212 Q 5.6347713,0.82644017 5.5065306,0.96892987 5.3818521,1.1078573 5.2500491,1.3109052 5.1218084,1.5103907 4.9935677,1.7561855 4.8688892,2.0019802 4.7655841,2.2584617 4.6658414,2.5113809 4.5945965,2.7643001 4.5269139,3.0136571 4.5126649,3.2238294 Z"
         style="text-align:center;text-anchor:middle;stroke-width:0.08905605"
         id="path4545" />
      <path
         d="m 7.5192533,1.5210775 q 0.035622,0 0.081932,0.014249 0.049871,0.010687 0.089056,0.03206 0.039185,0.017811 0.06412,0.039185 0.028498,0.021373 0.028498,0.039185 -0.071245,0.1496141 -0.131803,0.3027906 -0.060558,0.1496141 -0.103305,0.2885416 -0.042747,0.1389275 -0.067683,0.2600437 -0.021374,0.1211163 -0.021374,0.2101723 0,0.099743 0.021374,0.1674254 0.021373,0.06412 0.071245,0.092618 -0.042747,0.028498 -0.1104295,0.046309 -0.067683,0.017811 -0.1211162,0.017811 -0.1923611,0 -0.1923611,-0.263606 0,-0.2030478 0.1353652,-0.5557098 Q 7.191527,2.3760157 7.0989087,2.5220676 7.0062904,2.6645573 6.9101099,2.7749868 6.8139293,2.8854163 6.7141865,2.9566612 6.618006,3.0243438 6.5360744,3.0385928 6.4042714,3.0314683 6.3223398,2.9139143 6.2404083,2.792798 6.2404083,2.6075614 q 0,-0.1994856 0.085494,-0.4203446 0.085494,-0.220859 0.2172968,-0.4096579 0.1353652,-0.1887988 0.2921039,-0.3134773 0.1567386,-0.1282407 0.3027906,-0.1353652 0.035622,0.010687 0.078369,0.042747 0.046309,0.03206 0.085494,0.074807 0.042747,0.042747 0.071245,0.089056 0.028498,0.042747 0.03206,0.074807 Q 7.2627719,1.631507 7.1095954,1.749061 6.9599813,1.866615 6.8353028,2.0340404 6.7141865,2.1979035 6.6358172,2.3867024 q -0.078369,0.1887988 -0.078369,0.352662 0,0.067683 0.049871,0.085494 0.1033051,-0.021373 0.2386703,-0.1745499 0.1353652,-0.1567386 0.3277263,-0.4809027 0.035622,-0.06412 0.078369,-0.1424897 0.046309,-0.078369 0.092618,-0.1638632 0.046309,-0.085494 0.089056,-0.1709876 0.046309,-0.089056 0.085494,-0.1709876 z"
         style="text-align:center;text-anchor:middle;stroke-width:0.08905605"
         id="path4547" />
      <path
         d="M 9.2925268,2.4080758 Q 9.2105952,2.6681196 9.1286636,2.8818541 9.0467321,3.0955887 8.9541138,3.2737008 8.8614954,3.4553751 8.7546282,3.6049893 8.6477609,3.7581658 8.5195202,3.893531 8.355657,4.0645186 8.1811071,4.1535747 8.0065572,4.246193 7.8320074,4.246193 q -0.089056,0 -0.1781122,-0.021374 -0.085494,-0.017811 -0.1603009,-0.053434 -0.078369,-0.03206 -0.1353652,-0.078369 -0.060558,-0.042747 -0.085494,-0.092618 0,-0.042747 0.049871,-0.074807 0.042747,0.039185 0.071245,0.060558 0.028498,0.021373 0.056996,0.035622 0.024936,0.014249 0.056996,0.017811 0.028498,0.00356 0.067683,0.00356 0.2030478,0 0.3954089,-0.1211163 0.1959234,-0.117554 0.366911,-0.338413 Q 8.5123957,3.3663191 8.6548854,3.0528417 8.7973751,2.7429266 8.8971179,2.3582045 8.8508087,2.4294493 8.7831261,2.5327543 8.7154435,2.6360594 8.6335119,2.7393644 8.5515804,2.8391072 8.4625243,2.9210388 8.3770305,3.0029703 8.2950989,3.0314683 8.238103,3.027906 8.1739826,3.0065326 8.1134245,2.9887214 8.0564286,2.953099 8.002995,2.9174765 7.9602481,2.8676051 7.9175012,2.8177337 7.9032522,2.7536134 q 0,-0.1033051 0.00712,-0.1638632 0.00712,-0.06412 0.024936,-0.1389274 0.03206,-0.1353653 0.092618,-0.3063529 0.06412,-0.1709876 0.1460519,-0.3348508 0.085494,-0.1674254 0.1852367,-0.3099151 0.103305,-0.1460519 0.2137345,-0.2279835 0.028498,0 0.071245,0.00712 0.042747,0.00356 0.089056,0.017811 0.046309,0.014249 0.089056,0.035622 0.042747,0.017811 0.074807,0.049871 -0.039185,0.035622 -0.1709877,0.2386703 -0.1318029,0.2030478 -0.2921039,0.5842077 -0.017811,0.039185 -0.042747,0.1139918 -0.024936,0.074807 -0.049871,0.1567387 -0.021373,0.081932 -0.039185,0.1603009 -0.017811,0.078369 -0.017811,0.1246785 0,0.028498 0.00712,0.042747 0.010687,0.014249 0.017811,0.021373 0.06412,-0.010687 0.1709876,-0.103305 Q 8.5872028,2.6253726 8.722568,2.4258871 8.8080618,2.2976463 8.8793067,2.1729678 8.9505515,2.0447271 9.0182341,1.9164864 9.089479,1.7882457 9.1642861,1.6528804 9.2390932,1.5175152 9.324587,1.3750255 q 0.046309,0 0.099743,0.010687 0.053434,0.010687 0.103305,0.028498 0.049871,0.014249 0.085494,0.035622 0.039185,0.017811 0.056996,0.039185 -0.1104295,0.235108 -0.2066101,0.4595293 -0.09618,0.2244212 -0.1709876,0.4595292 z"
         style="text-align:center;text-anchor:middle;stroke-width:0.08905605"
         id="path4549" />
      <path
         d="m 10.751487,1.5958846 q -0.01781,-0.021373 -0.03206,-0.089056 -0.01425,-0.071245 -0.01425,-0.1211163 0.09262,0.00712 0.178112,0.014249 0.08549,0.00356 0.156739,0.00712 0.05343,-0.1068673 0.113992,-0.2101723 0.06412,-0.1068673 0.121116,-0.1923611 0.06056,-0.0890561 0.11043,-0.14961419 0.05343,-0.0605581 0.08193,-0.0783693 0.03562,0 0.08906,0.014249 0.057,0.0106867 0.113992,0.0320602 0.057,0.0178112 0.103305,0.0391847 0.04631,0.0213735 0.06412,0.0427469 -0.106867,0.13536519 -0.185236,0.25291919 -0.07481,0.1139918 -0.163863,0.263606 0.07124,0 0.142489,-0.00356 0.07481,-0.00356 0.149615,-0.010687 0.01781,0.017811 0.0285,0.046309 0.01069,0.024936 0.01069,0.053434 -0.17455,0.06412 -0.423907,0.071245 -0.08906,0.1709877 -0.160301,0.3419753 -0.06768,0.1674254 -0.117554,0.3241641 -0.04631,0.1567387 -0.07481,0.2956661 -0.02493,0.1389275 -0.02493,0.249357 0,0.1567387 0.117554,0.1745499 0.106867,-0.014249 0.203047,-0.053434 0.09618,-0.039185 0.170988,-0.099743 0.02137,0.03206 0.02494,0.053434 -0.02137,0.03206 -0.07481,0.074807 -0.04987,0.042747 -0.11043,0.081932 -0.06056,0.042747 -0.117554,0.071245 -0.057,0.028498 -0.08549,0.03206 -0.08906,-0.00356 -0.178112,-0.039185 -0.08906,-0.035622 -0.163863,-0.089056 -0.07124,-0.053434 -0.117554,-0.117554 -0.04631,-0.067683 -0.04631,-0.131803 0,-0.085494 0.02137,-0.2137346 0.02494,-0.1318029 0.06768,-0.2849794 0.04275,-0.1531764 0.09974,-0.3206018 0.057,-0.1674254 0.124678,-0.3312885 z"
         style="text-align:center;text-anchor:middle;stroke-width:0.08905605"
         id="path4551" />
      <path
         d="m 11.790104,2.8996653 q 0,-0.1246785 0.02494,-0.2921039 0.02494,-0.1709876 0.07125,-0.3633487 0.04987,-0.1923611 0.113991,-0.4025334 0.06768,-0.2101723 0.149615,-0.4203446 0.07124,-0.1887989 0.163863,-0.38116 0.09618,-0.19236107 0.20661,-0.37759768 0.110429,-0.18523661 0.227983,-0.35266201 0.121117,-0.1674254 0.242233,-0.30635286 0.057,0 0.121116,0.01424897 0.06768,0.01424897 0.128241,0.03918467 0.06412,0.02137346 0.113992,0.05343364 0.05343,0.0320602 0.08549,0.0641204 -0.267168,0.27429267 -0.480902,0.55570983 -0.213735,0.27785487 -0.338413,0.52364967 -0.06768,0.1353652 -0.124679,0.2529192 -0.05343,0.117554 -0.09974,0.235108 -0.04631,0.1139918 -0.08549,0.2315458 -0.03562,0.1139917 -0.06768,0.2422325 0.683951,-0.8727495 1.015239,-0.8727495 0.09262,0 0.199486,0.060558 0.106867,0.060558 0.188799,0.1638631 -0.11043,0.1211163 -0.227984,0.2921039 -0.117554,0.1709876 -0.217297,0.3455375 -0.09618,0.1709877 -0.160301,0.3206019 -0.06056,0.1460519 -0.06056,0.2172967 0,0.035623 0.01069,0.049871 0.01069,0.010687 0.04631,0.010687 0.05343,0 0.08549,-0.014249 0.03206,-0.014249 0.03919,-0.014249 0.01781,0.028498 0.02137,0.039185 0.0036,0.010687 0.0036,0.017811 0,0.014249 -0.04275,0.042747 -0.04275,0.024936 -0.103305,0.053434 -0.057,0.024936 -0.113991,0.046309 -0.057,0.021374 -0.08549,0.021374 -0.03562,0 -0.07124,-0.021374 -0.03562,-0.017811 -0.06412,-0.049871 -0.02494,-0.03206 -0.04275,-0.071245 -0.01425,-0.039185 -0.01425,-0.081932 0,-0.053434 0.0285,-0.1567387 0.03206,-0.1068673 0.08549,-0.2457947 0.05343,-0.1424897 0.128241,-0.3099151 0.07481,-0.1674254 0.160301,-0.3419753 0,-0.014249 -0.01425,-0.014249 -0.01069,0 -0.057,0.028498 -0.04275,0.028498 -0.08193,0.056996 -0.128241,0.096181 -0.260044,0.2386702 -0.128241,0.1389275 -0.252919,0.3063529 -0.121117,0.1674254 -0.231546,0.3562242 -0.106867,0.1852366 -0.185237,0.3740355 -0.01069,0.024936 -0.03206,0.046309 -0.02137,0.021373 -0.03562,0.021373 -0.01069,0 -0.03206,-0.024936 -0.01781,-0.024936 -0.03562,-0.06412 -0.01425,-0.035622 -0.0285,-0.074807 -0.01425,-0.039185 -0.01425,-0.067683 z"
         style="text-align:center;text-anchor:middle;stroke-width:0.08905605"
         id="path4553" />
      <path
         d="m 14.912688,1.485455 q -0.01425,0.2208591 -0.07837,0.38116 -0.06412,0.1567387 -0.185236,0.2778549 -0.117554,0.117554 -0.288542,0.2137346 -0.170987,0.096181 -0.398971,0.1852366 0,0.021373 -0.0036,0.046309 0,0.021373 0,0.046309 0,0.046309 0.0071,0.096181 0.0071,0.049871 0.02494,0.092618 0.01781,0.042747 0.04987,0.071245 0.03206,0.024936 0.08193,0.024936 0.09618,0 0.188799,-0.042747 0.09262,-0.042747 0.17455,-0.1033051 0.08549,-0.06412 0.156738,-0.1353652 0.07481,-0.074807 0.131803,-0.1353652 0.03562,0.03206 0.06056,0.060558 -0.1603,0.2137346 -0.352662,0.3562243 -0.188798,0.1389274 -0.359786,0.1781121 -0.245795,-0.028498 -0.384722,-0.1781121 -0.135365,-0.1531765 -0.135365,-0.366911 0,-0.146052 0.03918,-0.2956661 0.04275,-0.1531765 0.113992,-0.2921039 0.07481,-0.1424897 0.170988,-0.2671682 0.09974,-0.1246785 0.210172,-0.2172968 0.113992,-0.092618 0.231546,-0.1460519 0.121116,-0.053434 0.23867,-0.053434 0.163863,0.021373 0.306353,0.2030478 z m -0.245795,0.117554 q -0.09618,0.014249 -0.199486,0.078369 -0.103305,0.06412 -0.195923,0.1709876 -0.08906,0.1068673 -0.163863,0.249357 -0.07481,0.1424897 -0.117554,0.3063528 0.284979,-0.1424897 0.473778,-0.3490997 0.188799,-0.2101723 0.203048,-0.4559671 z"
         style="text-align:center;text-anchor:middle;stroke-width:0.08905605"
         id="path4555" />
      <path
         d="m 15.84093,2.8889786 q 0.01781,-0.103305 0.06056,-0.2707304 0.04631,-0.1709877 0.106867,-0.3597865 0.06056,-0.1923611 0.128241,-0.3847222 0.06768,-0.1923611 0.131803,-0.3455376 0.04631,-0.1104295 0.08193,-0.1709876 0.03562,-0.06412 0.07837,-0.1068673 0.04987,0.00712 0.103305,0.024936 0.05343,0.017811 0.103305,0.042747 0.04987,0.024936 0.08906,0.053434 0.03918,0.024936 0.06056,0.049871 -0.09618,0.1139917 -0.170988,0.2600437 -0.07124,0.1460519 -0.146052,0.3740354 0.192362,-0.1709876 0.338413,-0.3277263 0.149615,-0.1567386 0.277855,-0.3490997 0.02137,-0.017811 0.07481,-0.017811 0.04987,0 0.09618,0.017811 0.04631,0.014249 0.06412,0.042747 -0.06412,0.1709876 -0.06412,0.338413 0,0.1567387 0.04631,0.235108 -0.0036,0.021374 -0.04987,0.081932 -0.04275,0.060558 -0.09618,0.1139918 -0.09618,-0.049871 -0.170987,-0.1353653 -0.07481,-0.089056 -0.11043,-0.1923611 -0.167425,0.117554 -0.284979,0.2315458 -0.117554,0.1104295 -0.203048,0.249357 -0.08193,0.1353652 -0.14249,0.3134773 -0.057,0.1781121 -0.110429,0.4239069 -0.03206,-0.00356 -0.07837,-0.024936 -0.04275,-0.017811 -0.08906,-0.046309 -0.04275,-0.028498 -0.07837,-0.060558 -0.03562,-0.03206 -0.04631,-0.060558 z"
         style="text-align:center;text-anchor:middle;stroke-width:0.08905605"
         id="path4557" />
      <path
         d="M 17.780015,3.0849019 Q 17.576967,3.0635285 17.455851,2.9067898 17.334735,2.7500511 17.334735,2.5078186 q 0,-0.1424897 0.04275,-0.2956661 0.04275,-0.1531764 0.121117,-0.2956661 0.07837,-0.146052 0.185236,-0.2742927 0.106868,-0.1282407 0.231546,-0.220859 0.195923,-0.146052 0.366911,-0.146052 0.113992,0.060558 0.224421,0.2529192 0.01781,0 0.03206,0 0.01425,-0.00356 0.03206,-0.00356 0.188799,0 0.188799,0.3348508 0,0.2244213 -0.07481,0.4274691 -0.07124,0.1994856 -0.203047,0.3633487 -0.128241,0.1638632 -0.309916,0.277855 -0.178112,0.1104295 -0.391846,0.1567386 z m 0.181674,-1.1221064 q -0.06056,0.081932 -0.113992,0.1781122 -0.05343,0.096181 -0.09262,0.1959233 -0.03918,0.096181 -0.06056,0.1887989 -0.02137,0.089056 -0.02137,0.1603009 0,0.085494 0.0285,0.1638631 0.0285,0.078369 0.06412,0.089056 0.160301,-0.035622 0.292104,-0.131803 0.135365,-0.099743 0.231545,-0.2457947 0.09974,-0.146052 0.153177,-0.3312886 0.057,-0.1852366 0.057,-0.3954089 0,-0.092618 -0.01069,-0.1460519 -0.01069,-0.053434 -0.03562,-0.092618 -0.156739,0.046309 -0.281418,0.1496141 -0.121116,0.1033051 -0.210172,0.2172968 z"
         style="text-align:center;text-anchor:middle;stroke-width:0.08905605"
         id="path4559" />
      <path
         d="m 20.16104,1.5210775 q 0.03562,0 0.08193,0.014249 0.04987,0.010687 0.08906,0.03206 0.03918,0.017811 0.06412,0.039185 0.0285,0.021373 0.0285,0.039185 -0.07124,0.1496141 -0.131803,0.3027906 -0.06056,0.1496141 -0.103305,0.2885416 -0.04275,0.1389275 -0.06768,0.2600437 -0.02137,0.1211163 -0.02137,0.2101723 0,0.099743 0.02137,0.1674254 0.02137,0.06412 0.07125,0.092618 -0.04275,0.028498 -0.110429,0.046309 -0.06768,0.017811 -0.121116,0.017811 -0.192362,0 -0.192362,-0.263606 0,-0.2030478 0.135366,-0.5557098 -0.07124,0.1638632 -0.163863,0.3099151 -0.09262,0.1424897 -0.188799,0.2529192 -0.09618,0.1104295 -0.195924,0.1816744 -0.09618,0.067683 -0.178112,0.081932 -0.131803,-0.00712 -0.213734,-0.1246785 -0.08193,-0.1211163 -0.08193,-0.3063529 0,-0.1994856 0.08549,-0.4203446 0.08549,-0.220859 0.217297,-0.4096579 0.135365,-0.1887988 0.292104,-0.3134773 0.156738,-0.1282407 0.30279,-0.1353652 0.03562,0.010687 0.07837,0.042747 0.04631,0.03206 0.08549,0.074807 0.04275,0.042747 0.07124,0.089056 0.0285,0.042747 0.03206,0.074807 -0.142489,0.021373 -0.295666,0.1389275 -0.149614,0.117554 -0.274292,0.2849794 -0.121117,0.1638631 -0.199486,0.352662 -0.07837,0.1887988 -0.07837,0.352662 0,0.067683 0.04987,0.085494 0.103305,-0.021373 0.23867,-0.1745499 0.135366,-0.1567386 0.327727,-0.4809027 0.03562,-0.06412 0.07837,-0.1424897 0.04631,-0.078369 0.09262,-0.1638632 0.04631,-0.085494 0.08906,-0.1709876 0.04631,-0.089056 0.08549,-0.1709876 z"
         style="text-align:center;text-anchor:middle;stroke-width:0.08905605"
         id="path4561" />
      <path
         d="m 21.371478,1.2966562 q 0.07125,0 0.163863,0.042747 0.09262,0.042747 0.163863,0.1104295 -0.01781,-0.1424897 -0.04631,-0.2671682 -0.02493,-0.1282407 -0.07837,-0.26360592 -0.04987,-0.13536522 -0.135365,-0.29566613 -0.08549,-0.16030091 -0.213735,-0.36691098 0.01069,-0.0320602 0.04631,-0.0748071 0.03918,-0.0427469 0.08549,-0.0783693 0.04987,-0.03918466 0.09974,-0.0676826 Q 21.510406,0.0071244 21.556715,-8.7738037e-8 21.656457,0.11042943 21.745514,0.27785483 q 0.08906,0.16386315 0.156738,0.35622425 0.06768,0.18879885 0.103305,0.39184672 0.03918,0.2030478 0.03918,0.3882844 0,0.1852366 -0.04275,0.3811599 -0.03918,0.1959234 -0.113992,0.3847222 -0.07125,0.1852366 -0.167425,0.352662 -0.09618,0.1674254 -0.210172,0.2992284 -0.11043,0.131803 -0.231546,0.2137346 -0.121116,0.085494 -0.242233,0.1068672 -0.245794,-0.028498 -0.377597,-0.1603009 -0.128241,-0.1282407 -0.128241,-0.3562242 0,-0.1211163 0.03562,-0.263606 0.03918,-0.1424897 0.09974,-0.2814171 0.06412,-0.1424897 0.146052,-0.2742927 0.08549,-0.1353652 0.178112,-0.2422325 0.09618,-0.1068673 0.192361,-0.1816744 0.09618,-0.074807 0.188799,-0.096181 z m -0.363349,1.7134386 q 0.124679,-0.042747 0.249357,-0.1887988 0.124679,-0.146052 0.224422,-0.3419753 0.09974,-0.1994856 0.160301,-0.4239069 0.06412,-0.2279835 0.06412,-0.4381558 0,-0.060558 0,-0.074807 0,-0.014249 -0.0036,-0.028498 -0.08549,0.035622 -0.181675,0.1211162 -0.09618,0.085494 -0.192361,0.1994856 -0.09618,0.1104295 -0.181674,0.2422325 -0.08549,0.131803 -0.153177,0.2636059 -0.06768,0.131803 -0.106867,0.2529193 -0.03918,0.1211162 -0.03918,0.2137345 0,0.1781121 0.160301,0.2030478 z"
         style="text-align:center;text-anchor:middle;stroke-width:0.08905605"
         id="path4563" />
      <path
         d="m 22.902798,2.8889786 q 0.01781,-0.103305 0.06056,-0.2707304 0.04631,-0.1709877 0.106867,-0.3597865 0.06056,-0.1923611 0.128241,-0.3847222 0.06768,-0.1923611 0.131803,-0.3455376 0.04631,-0.1104295 0.08193,-0.1709876 0.03562,-0.06412 0.07837,-0.1068673 0.04987,0.00712 0.103305,0.024936 0.05343,0.017811 0.103306,0.042747 0.04987,0.024936 0.08906,0.053434 0.03918,0.024936 0.06056,0.049871 -0.09618,0.1139917 -0.170988,0.2600437 -0.07125,0.1460519 -0.146052,0.3740354 0.192361,-0.1709876 0.338413,-0.3277263 0.149614,-0.1567386 0.277855,-0.3490997 0.02137,-0.017811 0.07481,-0.017811 0.04987,0 0.09618,0.017811 0.04631,0.014249 0.06412,0.042747 -0.06412,0.1709876 -0.06412,0.338413 0,0.1567387 0.04631,0.235108 -0.0036,0.021374 -0.04987,0.081932 -0.04275,0.060558 -0.09618,0.1139918 -0.09618,-0.049871 -0.170988,-0.1353653 -0.07481,-0.089056 -0.110429,-0.1923611 -0.167426,0.117554 -0.28498,0.2315458 -0.117554,0.1104295 -0.203047,0.249357 -0.08193,0.1353652 -0.14249,0.3134773 -0.057,0.1781121 -0.11043,0.4239069 -0.03206,-0.00356 -0.07837,-0.024936 -0.04275,-0.017811 -0.08906,-0.046309 -0.04275,-0.028498 -0.07837,-0.060558 -0.03562,-0.03206 -0.04631,-0.060558 z"
         style="text-align:center;text-anchor:middle;stroke-width:0.08905605"
         id="path4565" />
      <path
         d="m 24.425099,2.7215532 q 0,-0.03206 0.0036,-0.078369 0.0071,-0.049871 0.02137,-0.1282408 0.01425,-0.081932 0.03562,-0.1959233 0.02494,-0.1139918 0.06056,-0.2742927 0.0071,-0.035622 0.03206,-0.1139917 0.02494,-0.078369 0.06412,-0.1638632 0.04275,-0.089056 0.09974,-0.1709876 0.06056,-0.081932 0.142489,-0.1211163 0.06056,0.014249 0.160301,0.074807 0.09974,0.056996 0.170988,0.1603009 -0.08193,0.092618 -0.138927,0.1852366 -0.05343,0.092618 -0.09974,0.1923611 -0.04275,0.099743 -0.08193,0.2066101 -0.03562,0.1068673 -0.08193,0.2244213 -0.03918,0.099743 -0.07124,0.20661 -0.03206,0.1033051 -0.03562,0.1816744 0,0.06412 -0.0036,0.089056 0,0.028498 -0.01781,0.028498 -0.01425,0 -0.057,-0.017811 -0.04275,-0.017811 -0.08906,-0.053434 -0.04275,-0.039185 -0.07837,-0.096181 -0.03562,-0.056996 -0.03562,-0.1353652 z m 0.680389,-1.5460133 q 0,-0.021373 0.01069,-0.06412 -0.01781,-0.017811 -0.03206,-0.053434 -0.01069,-0.035622 -0.01069,-0.0641203 0,-0.0320602 0.0071,-0.0854938 0.01069,-0.0569959 0.02494,-0.12111624 0.01425,-0.0641204 0.03562,-0.13180298 0.02137,-0.0712449 0.04275,-0.12824073 0.04275,0 0.103305,0.0249357 0.06412,0.0213735 0.128241,0.0605581 0.06412,0.0356224 0.117554,0.0819316 0.05343,0.0427469 0.08193,0.0819316 -0.03918,0.0391847 -0.103305,0.11042952 -0.06412,0.0676826 -0.124678,0.1460519 -0.06056,0.074807 -0.11043,0.1424897 -0.04987,0.067683 -0.06412,0.096181 -0.04275,-0.00712 -0.07481,-0.035622 -0.03206,-0.03206 -0.03206,-0.060558 z"
         style="text-align:center;text-anchor:middle;stroke-width:0.08905605"
         id="path4567" />
      <path
         d="m 26.492369,1.5424509 q -0.0036,0.067683 -0.02494,0.1424897 -0.01781,0.071245 -0.04631,0.131803 -0.0285,0.056996 -0.06056,0.096181 -0.03206,0.039185 -0.06056,0.039185 -0.03918,-0.00356 -0.04631,-0.053434 0,-0.010687 0.0071,-0.03206 0.01069,-0.024936 0.02137,-0.053434 0.01069,-0.028498 0.01781,-0.056996 0.01069,-0.028498 0.01069,-0.049871 0,-0.049871 -0.02494,-0.081932 -0.02137,-0.035622 -0.06056,-0.035622 -0.142489,0 -0.217296,0.1781121 -0.07481,0.1781121 -0.07481,0.5236496 0,0.035623 0.0036,0.042747 0.07481,-0.00356 0.131803,-0.00356 0.06056,-0.00356 0.117554,-0.00356 0.0036,0.00712 0.0036,0.028498 0,0.03206 -0.01425,0.046309 -0.08193,0.017811 -0.131803,0.03206 -0.04631,0.010687 -0.07125,0.021373 -0.02494,0.010687 -0.03206,0.024936 -0.0036,0.010687 -0.0036,0.03206 0,0.028498 0,0.056996 0.0036,0.028498 0.0036,0.071245 0,0.2992284 -0.163863,0.4809027 -0.160301,0.1816744 -0.448843,0.2101724 -0.04987,-0.00356 -0.103305,-0.028498 -0.05343,-0.024936 -0.103305,-0.06412 -0.04631,-0.039185 -0.08193,-0.089056 -0.03562,-0.046309 -0.04987,-0.096181 0,-0.1353652 0.057,-0.2564814 0.057,-0.1246785 0.153177,-0.2172968 0.09974,-0.096181 0.231545,-0.1531764 0.135365,-0.060558 0.292104,-0.071245 0,-0.089056 -0.01781,-0.1745499 -0.01781,-0.085494 -0.03918,-0.1638631 -0.01781,-0.081932 -0.03562,-0.1567387 -0.01781,-0.078369 -0.01781,-0.1531764 0,-0.096181 0.03918,-0.1887989 0.03918,-0.096181 0.103305,-0.1745499 0.06412,-0.081931 0.149615,-0.1389274 0.08549,-0.056996 0.178112,-0.078369 0.03918,0.010687 0.103305,0.06412 0.06768,0.049871 0.131803,0.1139918 0.06412,0.06412 0.113991,0.1318029 0.04987,0.06412 0.06056,0.1068673 z m -1.17554,1.6243826 q 0.08549,-0.035622 0.1603,-0.103305 0.07837,-0.067683 0.135366,-0.1531765 0.057,-0.085494 0.08906,-0.1816743 0.03562,-0.096181 0.03562,-0.1887989 -0.07124,0.010687 -0.156739,0.067683 -0.08549,0.053434 -0.1603,0.131803 -0.07481,0.074807 -0.124679,0.1567387 -0.04987,0.081932 -0.04987,0.1424897 0,0.078369 0.07124,0.1282407 z"
         style="text-align:center;text-anchor:middle;stroke-width:0.08905605"
         id="path4569" />
      <path
         d="m 27.770157,1.485455 q -0.01425,0.2208591 -0.07837,0.38116 -0.06412,0.1567387 -0.185237,0.2778549 -0.117554,0.117554 -0.288541,0.2137346 -0.170988,0.096181 -0.398971,0.1852366 0,0.021373 -0.0036,0.046309 0,0.021373 0,0.046309 0,0.046309 0.0071,0.096181 0.0071,0.049871 0.02494,0.092618 0.01781,0.042747 0.04987,0.071245 0.03206,0.024936 0.08193,0.024936 0.09618,0 0.188799,-0.042747 0.09262,-0.042747 0.17455,-0.1033051 0.08549,-0.06412 0.156739,-0.1353652 0.07481,-0.074807 0.131803,-0.1353652 0.03562,0.03206 0.06056,0.060558 -0.160301,0.2137346 -0.352662,0.3562243 -0.188799,0.1389274 -0.359787,0.1781121 -0.245794,-0.028498 -0.384722,-0.1781121 -0.135365,-0.1531765 -0.135365,-0.366911 0,-0.146052 0.03918,-0.2956661 0.04275,-0.1531765 0.113992,-0.2921039 0.07481,-0.1424897 0.170987,-0.2671682 0.09974,-0.1246785 0.210172,-0.2172968 0.113992,-0.092618 0.231546,-0.1460519 0.121116,-0.053434 0.23867,-0.053434 0.163864,0.021373 0.306353,0.2030478 z m -0.245794,0.117554 q -0.09618,0.014249 -0.199486,0.078369 -0.103305,0.06412 -0.195923,0.1709876 -0.08906,0.1068673 -0.163863,0.249357 -0.07481,0.1424897 -0.117554,0.3063528 0.284979,-0.1424897 0.473778,-0.3490997 0.188799,-0.2101723 0.203048,-0.4559671 z"
         style="text-align:center;text-anchor:middle;stroke-width:0.08905605"
         id="path4571" />
      <path
         d="m 29.752823,2.8818541 q -0.06768,-0.056996 -0.09262,-0.1424897 -0.02137,-0.085494 -0.02137,-0.1460519 0,-0.074807 0.01781,-0.1282408 -0.01425,0 -0.06412,0.056996 -0.04987,0.056996 -0.110429,0.1353652 -0.057,0.078369 -0.113992,0.1531765 -0.057,0.074807 -0.08549,0.1104295 -0.04631,0.049871 -0.08906,0.078369 -0.03918,0.028498 -0.06412,0.03206 -0.057,-0.00356 -0.121117,-0.024936 -0.06056,-0.017811 -0.117554,-0.053434 -0.05343,-0.035623 -0.09618,-0.085494 -0.03918,-0.049871 -0.05343,-0.1139917 0,-0.099743 0.0036,-0.1638632 0.0071,-0.06412 0.02494,-0.1389274 0.03206,-0.1353653 0.09262,-0.3063529 0.06412,-0.1709876 0.146052,-0.3348508 0.08193,-0.1674254 0.181675,-0.3099151 0.103305,-0.1460519 0.217297,-0.2279835 0.03206,0 0.07481,0.00712 0.04275,0.00356 0.08549,0.017811 0.04631,0.014249 0.08549,0.035622 0.04275,0.017811 0.07125,0.049871 -0.03206,0.035622 -0.163863,0.2386703 -0.128241,0.2030478 -0.288542,0.5842077 -0.01781,0.039185 -0.04275,0.1139918 -0.02493,0.074807 -0.04987,0.1567387 -0.02494,0.081932 -0.04275,0.1603009 -0.01425,0.078369 -0.01425,0.1246785 0,0.028498 0.0071,0.042747 0.01069,0.014249 0.01781,0.021373 0.05343,-0.021373 0.135365,-0.117554 0.08193,-0.096181 0.227984,-0.2956661 0.03562,-0.049871 0.08193,-0.1139918 0.04987,-0.06412 0.09974,-0.1353652 0.04987,-0.074807 0.09262,-0.1531764 0.04631,-0.078369 0.07481,-0.1567387 0.01425,-0.042747 0.03562,-0.099743 0.02494,-0.060558 0.057,-0.1246785 0.03562,-0.06412 0.07837,-0.1282407 0.04631,-0.067683 0.106867,-0.1246785 0.04631,0 0.09974,0.010687 0.05343,0.010687 0.09974,0.028498 0.04987,0.014249 0.08549,0.035622 0.03562,0.017811 0.05343,0.039185 -0.06412,0.1567387 -0.142489,0.3099151 -0.07837,0.1531764 -0.146052,0.3027906 -0.06768,0.1460519 -0.113992,0.2921039 -0.04631,0.1460519 -0.04631,0.2849794 0,0.074807 0.01069,0.131803 0.01425,0.053434 0.0285,0.092618 0.01425,0.035622 0.02494,0.060558 0.01425,0.024936 0.01425,0.042747 0,0.00356 -0.0071,0.010687 -0.0036,0.00356 -0.0071,0.00356 -0.02494,0 -0.06412,-0.010687 -0.03918,-0.010687 -0.08906,-0.03206 -0.04631,-0.017811 -0.09618,-0.042747 -0.04631,-0.024936 -0.08906,-0.053434 z"
         style="text-align:center;text-anchor:middle;stroke-width:0.08905605"
         id="path4573" />
      <path
         d="m 30.284098,4.1393257 q -0.04987,-0.014249 -0.057,-0.1068673 -0.01425,-0.046309 -0.02137,-0.1104295 -0.0036,-0.06412 -0.0036,-0.1460519 0,-0.074807 0.02494,-0.2066101 0.02494,-0.1282407 0.06768,-0.2921039 0.04631,-0.1638631 0.11043,-0.352662 0.06412,-0.1923611 0.14249,-0.3882844 0.09618,-0.2457948 0.167425,-0.4239069 0.07124,-0.1816743 0.117554,-0.3134773 0.04987,-0.131803 0.07837,-0.2172968 0.03206,-0.085494 0.04987,-0.146052 0.01425,-0.042747 0.04275,-0.103305 0.0285,-0.060558 0.06412,-0.1211162 0.03918,-0.06412 0.07837,-0.117554 0.03919,-0.056996 0.07125,-0.085494 0.124679,0.017811 0.235108,0.06412 0.11043,0.046309 0.135365,0.089056 -0.04987,0.046309 -0.113991,0.1460519 -0.06412,0.096181 -0.124679,0.2137346 -0.06056,0.1139917 -0.110429,0.235108 -0.04987,0.1211162 -0.07481,0.2137345 0.03562,-0.060558 0.09262,-0.131803 0.057,-0.071245 0.17455,-0.1959233 0.131803,-0.1353652 0.245794,-0.2066101 0.117554,-0.074807 0.203048,-0.074807 0.135365,0 0.220859,0.074807 0.08906,0.074807 0.08906,0.1923611 0,0.2564815 -0.08549,0.5094007 -0.08549,0.249357 -0.245795,0.4524048 -0.06056,0.078369 -0.14249,0.1496142 -0.08193,0.071245 -0.170988,0.1282407 -0.08906,0.053434 -0.174549,0.085494 -0.08549,0.03206 -0.153177,0.03206 -0.06412,0 -0.113992,-0.024936 -0.04631,-0.028498 -0.06412,-0.067683 0.138927,-0.081932 0.27073,-0.2279835 0.131803,-0.1460519 0.242233,-0.3348508 0.113992,-0.1923611 0.195923,-0.4132201 0.08549,-0.2208591 0.128241,-0.4488426 -0.135365,0.071245 -0.245795,0.1567387 -0.106867,0.081932 -0.213734,0.2172968 -0.128241,0.1567387 -0.203048,0.2529192 -0.07481,0.096181 -0.124679,0.1638632 -0.04631,0.067683 -0.07837,0.1282407 -0.0285,0.056996 -0.06412,0.1424897 -0.04987,0.1139918 -0.117554,0.3027906 -0.06412,0.1852366 -0.135365,0.4167824 -0.06768,0.2315457 -0.138928,0.4915894 -0.06768,0.263606 -0.131803,0.5236497 -0.03918,-0.00712 -0.06768,-0.056996 -0.0285,-0.03206 -0.04275,-0.046309 -0.01069,-0.014249 -0.0285,-0.021374 z"
         style="text-align:center;text-anchor:middle;stroke-width:0.08905605"
         id="path4575" />
      <path
         d="m 33.377294,1.5958846 q -0.01781,-0.021373 -0.03206,-0.089056 -0.01425,-0.071245 -0.01425,-0.1211163 0.09262,0.00712 0.178112,0.014249 0.08549,0.00356 0.156738,0.00712 0.05343,-0.1068673 0.113992,-0.2101723 0.06412,-0.1068673 0.121116,-0.1923611 0.06056,-0.0890561 0.11043,-0.14961419 0.05343,-0.0605581 0.08193,-0.0783693 0.03562,0 0.08906,0.014249 0.057,0.0106867 0.113991,0.0320602 0.057,0.0178112 0.103305,0.0391847 0.04631,0.0213735 0.06412,0.0427469 -0.106868,0.13536519 -0.185237,0.25291919 -0.07481,0.1139918 -0.163863,0.263606 0.07125,0 0.14249,-0.00356 0.07481,-0.00356 0.149614,-0.010687 0.01781,0.017811 0.0285,0.046309 0.01069,0.024936 0.01069,0.053434 -0.17455,0.06412 -0.423907,0.071245 -0.08906,0.1709877 -0.160301,0.3419753 -0.06768,0.1674254 -0.117554,0.3241641 -0.04631,0.1567387 -0.07481,0.2956661 -0.02494,0.1389275 -0.02494,0.249357 0,0.1567387 0.117554,0.1745499 0.106867,-0.014249 0.203048,-0.053434 0.09618,-0.039185 0.170987,-0.099743 0.02137,0.03206 0.02494,0.053434 -0.02137,0.03206 -0.07481,0.074807 -0.04987,0.042747 -0.11043,0.081932 -0.06056,0.042747 -0.117554,0.071245 -0.057,0.028498 -0.08549,0.03206 -0.08906,-0.00356 -0.178112,-0.039185 -0.08906,-0.035622 -0.163864,-0.089056 -0.07124,-0.053434 -0.117554,-0.117554 -0.04631,-0.067683 -0.04631,-0.131803 0,-0.085494 0.02137,-0.2137346 0.02493,-0.1318029 0.06768,-0.2849794 0.04275,-0.1531764 0.09974,-0.3206018 0.057,-0.1674254 0.124679,-0.3312885 z"
         style="text-align:center;text-anchor:middle;stroke-width:0.08905605"
         id="path4577" />
      <path
         d="M 34.839816,3.0849019 Q 34.636768,3.0635285 34.515652,2.9067898 34.394536,2.7500511 34.394536,2.5078186 q 0,-0.1424897 0.04275,-0.2956661 0.04275,-0.1531764 0.121116,-0.2956661 0.07837,-0.146052 0.185236,-0.2742927 0.106868,-0.1282407 0.231546,-0.220859 0.195923,-0.146052 0.366911,-0.146052 0.113992,0.060558 0.224421,0.2529192 0.01781,0 0.03206,0 0.01425,-0.00356 0.03206,-0.00356 0.188799,0 0.188799,0.3348508 0,0.2244213 -0.07481,0.4274691 -0.07124,0.1994856 -0.203048,0.3633487 -0.128241,0.1638632 -0.309915,0.277855 -0.178113,0.1104295 -0.391847,0.1567386 z M 35.02149,1.9627955 q -0.06056,0.081932 -0.113991,0.1781122 -0.05343,0.096181 -0.09262,0.1959233 -0.03918,0.096181 -0.06056,0.1887989 -0.02137,0.089056 -0.02137,0.1603009 0,0.085494 0.0285,0.1638631 0.0285,0.078369 0.06412,0.089056 0.160301,-0.035622 0.292104,-0.131803 0.135365,-0.099743 0.231546,-0.2457947 0.09974,-0.146052 0.153176,-0.3312886 0.057,-0.1852366 0.057,-0.3954089 0,-0.092618 -0.01069,-0.1460519 -0.01069,-0.053434 -0.03562,-0.092618 -0.156739,0.046309 -0.281417,0.1496141 -0.121117,0.1033051 -0.210173,0.2172968 z"
         style="text-align:center;text-anchor:middle;stroke-width:0.08905605"
         id="path4579" />
      <path
         d="m 38.899659,1.866615 q -0.057,0.00356 -0.138928,0.074807 -0.08193,0.067683 -0.178112,0.1781121 -0.09262,0.1068673 -0.195923,0.2386703 -0.09974,0.1318029 -0.195924,0.2636059 -0.09262,0.1282407 -0.174549,0.2422325 -0.08193,0.1139917 -0.138928,0.1816744 -0.07837,-0.03206 -0.135365,-0.092618 -0.057,-0.06412 -0.08193,-0.1567387 0.01781,-0.1104295 0.04987,-0.2279835 0.03206,-0.1211163 0.08193,-0.249357 0.05343,-0.1282407 0.128241,-0.2671682 0.07837,-0.1424897 0.188799,-0.2992284 -0.05343,0.00356 -0.146052,0.078369 -0.09262,0.071245 -0.199486,0.1887988 -0.106867,0.1139918 -0.220859,0.2600437 -0.113991,0.1424897 -0.213734,0.2814172 -0.131803,0.1852366 -0.220859,0.324164 -0.08549,0.1389275 -0.124679,0.1638632 -0.09262,-0.067683 -0.12824,-0.1460519 -0.03562,-0.078369 -0.05343,-0.1745499 0.0036,-0.085494 0.02494,-0.2137346 0.02493,-0.1282407 0.06768,-0.2636059 0.08193,-0.2600437 0.210172,-0.5165252 0.131803,-0.2564814 0.25292,-0.470216 0.09974,0.021373 0.178112,0.067683 0.08193,0.046309 0.170987,0.1353652 -0.03562,0.1104295 -0.110429,0.235108 -0.07481,0.1211163 -0.156739,0.2564815 -0.08193,0.1353652 -0.149614,0.2778549 -0.06768,0.1424897 -0.08906,0.2885417 0.09974,-0.1424897 0.235108,-0.3277264 0.138928,-0.1852366 0.281417,-0.3490997 0.146052,-0.1638632 0.288542,-0.2778549 0.14249,-0.1139918 0.256481,-0.1139918 0.04275,0 0.09262,0.014249 0.04987,0.014249 0.09262,0.035622 0.04275,0.021373 0.07124,0.042747 0.0285,0.017811 0.03206,0.028498 -0.01781,0.071245 -0.08549,0.1959234 -0.06412,0.1211162 -0.138927,0.2564814 -0.07481,0.1353653 -0.138928,0.263606 -0.06412,0.1246785 -0.07481,0.1994856 0.17455,-0.2386703 0.327726,-0.4310314 0.153177,-0.1959233 0.288542,-0.3348508 0.135365,-0.1389274 0.249357,-0.2137345 0.117554,-0.074807 0.220859,-0.074807 0.07124,0 0.131803,0.039185 0.06412,0.035622 0.08906,0.1068672 -0.03206,0.1068673 -0.106867,0.2564815 -0.07125,0.1496142 -0.146052,0.3170396 -0.07481,0.1638631 -0.135365,0.324164 -0.057,0.160301 -0.057,0.2885417 0,0.074807 0.02137,0.099743 0.02137,0.021373 0.06056,0.021373 0.04275,0 0.07837,-0.014249 0.03918,-0.017811 0.057,-0.017811 0.02137,0.014249 0.02493,0.035623 0.0036,0.021373 0.0036,0.039185 -0.07124,0.056996 -0.146052,0.092618 -0.07481,0.039185 -0.167426,0.039185 -0.08549,0 -0.142489,-0.028498 -0.05343,-0.028498 -0.08906,-0.078369 -0.03562,-0.049871 -0.04987,-0.1139917 -0.01425,-0.06412 -0.01425,-0.1389275 0,-0.1211162 0.03206,-0.2386702 0.03206,-0.1211163 0.07481,-0.2279836 0.04631,-0.1104295 0.09618,-0.2030478 0.04987,-0.096181 0.08549,-0.1709876 z"
         style="text-align:center;text-anchor:middle;stroke-width:0.08905605"
         id="path4581" />
      <path
         d="m 40.84331,1.485455 q -0.01425,0.2208591 -0.07837,0.38116 -0.06412,0.1567387 -0.185237,0.2778549 -0.117554,0.117554 -0.288542,0.2137346 -0.170987,0.096181 -0.398971,0.1852366 0,0.021373 -0.0036,0.046309 0,0.021373 0,0.046309 0,0.046309 0.0071,0.096181 0.0071,0.049871 0.02494,0.092618 0.01781,0.042747 0.04987,0.071245 0.03206,0.024936 0.08193,0.024936 0.09618,0 0.188799,-0.042747 0.09262,-0.042747 0.17455,-0.1033051 0.08549,-0.06412 0.156738,-0.1353652 0.07481,-0.074807 0.131803,-0.1353652 0.03562,0.03206 0.06056,0.060558 Q 40.60464,2.7785491 40.412279,2.9210388 40.22348,3.0599662 40.052492,3.0991509 39.806697,3.070653 39.66777,2.9210388 39.532405,2.7678623 39.532405,2.5541278 q 0,-0.146052 0.03918,-0.2956661 0.04275,-0.1531765 0.113992,-0.2921039 0.07481,-0.1424897 0.170988,-0.2671682 0.09974,-0.1246785 0.210172,-0.2172968 0.113992,-0.092618 0.231546,-0.1460519 0.121116,-0.053434 0.23867,-0.053434 0.163863,0.021373 0.306353,0.2030478 z m -0.245795,0.117554 q -0.09618,0.014249 -0.199485,0.078369 -0.103305,0.06412 -0.195924,0.1709876 -0.08906,0.1068673 -0.163863,0.249357 -0.07481,0.1424897 -0.117554,0.3063528 0.284979,-0.1424897 0.473778,-0.3490997 0.188799,-0.2101723 0.203048,-0.4559671 z"
         style="text-align:center;text-anchor:middle;stroke-width:0.08905605"
         id="path4583" />
      <path
         d="m 42.283511,1.485455 q -0.01425,0.2208591 -0.07837,0.38116 -0.06412,0.1567387 -0.185236,0.2778549 -0.117554,0.117554 -0.288542,0.2137346 -0.170988,0.096181 -0.398971,0.1852366 0,0.021373 -0.0036,0.046309 0,0.021373 0,0.046309 0,0.046309 0.0071,0.096181 0.0071,0.049871 0.02494,0.092618 0.01781,0.042747 0.04987,0.071245 0.03206,0.024936 0.08193,0.024936 0.09618,0 0.188799,-0.042747 0.09262,-0.042747 0.17455,-0.1033051 0.08549,-0.06412 0.156738,-0.1353652 0.07481,-0.074807 0.131803,-0.1353652 0.03562,0.03206 0.06056,0.060558 Q 42.04484,2.7785491 41.852479,2.9210388 41.66368,3.0599662 41.492693,3.0991509 41.246898,3.070653 41.107971,2.9210388 40.972605,2.7678623 40.972605,2.5541278 q 0,-0.146052 0.03918,-0.2956661 0.04275,-0.1531765 0.113992,-0.2921039 0.07481,-0.1424897 0.170988,-0.2671682 0.09974,-0.1246785 0.210172,-0.2172968 0.113992,-0.092618 0.231546,-0.1460519 0.121116,-0.053434 0.23867,-0.053434 0.163863,0.021373 0.306353,0.2030478 z m -0.245795,0.117554 q -0.09618,0.014249 -0.199486,0.078369 -0.103305,0.06412 -0.195923,0.1709876 -0.08906,0.1068673 -0.163863,0.249357 -0.07481,0.1424897 -0.117554,0.3063528 0.284979,-0.1424897 0.473778,-0.3490997 0.188799,-0.2101723 0.203048,-0.4559671 z"
         style="text-align:center;text-anchor:middle;stroke-width:0.08905605"
         id="path4585" />
      <path
         d="m 42.630777,1.5958846 q -0.01781,-0.021373 -0.03206,-0.089056 -0.01425,-0.071245 -0.01425,-0.1211163 0.09262,0.00712 0.178113,0.014249 0.08549,0.00356 0.156738,0.00712 0.05343,-0.1068673 0.113992,-0.2101723 0.06412,-0.1068673 0.121116,-0.1923611 0.06056,-0.0890561 0.11043,-0.14961419 0.05343,-0.0605581 0.08193,-0.0783693 0.03562,0 0.08906,0.014249 0.057,0.0106867 0.113992,0.0320602 0.057,0.0178112 0.103305,0.0391847 0.04631,0.0213735 0.06412,0.0427469 -0.106868,0.13536519 -0.185237,0.25291919 -0.07481,0.1139918 -0.163863,0.263606 0.07124,0 0.142489,-0.00356 0.07481,-0.00356 0.149615,-0.010687 0.01781,0.017811 0.0285,0.046309 0.01069,0.024936 0.01069,0.053434 -0.17455,0.06412 -0.423907,0.071245 -0.08906,0.1709877 -0.1603,0.3419753 -0.06768,0.1674254 -0.117554,0.3241641 -0.04631,0.1567387 -0.07481,0.2956661 -0.02493,0.1389275 -0.02493,0.249357 0,0.1567387 0.117554,0.1745499 0.106867,-0.014249 0.203048,-0.053434 0.09618,-0.039185 0.170987,-0.099743 0.02137,0.03206 0.02494,0.053434 -0.02137,0.03206 -0.07481,0.074807 -0.04987,0.042747 -0.11043,0.081932 -0.06056,0.042747 -0.117554,0.071245 -0.057,0.028498 -0.08549,0.03206 -0.08906,-0.00356 -0.178112,-0.039185 -0.08906,-0.035622 -0.163863,-0.089056 -0.07124,-0.053434 -0.117554,-0.117554 -0.04631,-0.067683 -0.04631,-0.131803 0,-0.085494 0.02137,-0.2137346 0.02493,-0.1318029 0.06768,-0.2849794 0.04275,-0.1531764 0.09974,-0.3206018 0.057,-0.1674254 0.124678,-0.3312885 z"
         style="text-align:center;text-anchor:middle;stroke-width:0.08905605"
         id="path4587" />
      <path
         d="m 45.861173,2.4080758 q -0.08193,0.2600438 -0.163863,0.4737783 -0.08193,0.2137346 -0.17455,0.3918467 -0.09262,0.1816743 -0.199485,0.3312885 -0.106868,0.1531765 -0.235108,0.2885417 -0.163864,0.1709876 -0.338413,0.2600437 -0.17455,0.092618 -0.3491,0.092618 -0.08906,0 -0.178112,-0.021374 -0.08549,-0.017811 -0.160301,-0.053434 -0.07837,-0.03206 -0.135365,-0.078369 -0.06056,-0.042747 -0.08549,-0.092618 0,-0.042747 0.04987,-0.074807 0.04275,0.039185 0.07124,0.060558 0.0285,0.021373 0.057,0.035622 0.02494,0.014249 0.057,0.017811 0.0285,0.00356 0.06768,0.00356 0.203048,0 0.395409,-0.1211163 0.195924,-0.117554 0.366911,-0.338413 0.17455,-0.2172968 0.31704,-0.5307742 0.14249,-0.3099151 0.242232,-0.6946372 -0.04631,0.071245 -0.113991,0.1745498 -0.06768,0.1033051 -0.149615,0.2066101 -0.08193,0.099743 -0.170987,0.1816744 -0.08549,0.081932 -0.167426,0.1104295 -0.057,-0.00356 -0.121116,-0.024936 -0.06056,-0.017811 -0.117554,-0.053434 -0.05343,-0.035623 -0.09618,-0.085494 -0.04275,-0.049871 -0.057,-0.1139917 0,-0.1033051 0.0071,-0.1638632 0.0071,-0.06412 0.02494,-0.1389274 0.03206,-0.1353653 0.09262,-0.3063529 0.06412,-0.1709876 0.146052,-0.3348508 0.08549,-0.1674254 0.185237,-0.3099151 0.103305,-0.1460519 0.213734,-0.2279835 0.0285,0 0.07125,0.00712 0.04275,0.00356 0.08906,0.017811 0.04631,0.014249 0.08906,0.035622 0.04275,0.017811 0.07481,0.049871 -0.03918,0.035622 -0.170987,0.2386703 -0.131803,0.2030478 -0.292104,0.5842077 -0.01781,0.039185 -0.04275,0.1139918 -0.02494,0.074807 -0.04987,0.1567387 -0.02137,0.081932 -0.03918,0.1603009 -0.01781,0.078369 -0.01781,0.1246785 0,0.028498 0.0071,0.042747 0.01069,0.014249 0.01781,0.021373 0.06412,-0.010687 0.170988,-0.103305 0.106867,-0.096181 0.242232,-0.2956661 0.08549,-0.1282408 0.156739,-0.2529193 0.07125,-0.1282407 0.138928,-0.2564814 0.07124,-0.1282407 0.146051,-0.263606 0.07481,-0.1353652 0.160301,-0.2778549 0.04631,0 0.09974,0.010687 0.05343,0.010687 0.103305,0.028498 0.04987,0.014249 0.08549,0.035622 0.03918,0.017811 0.057,0.039185 -0.11043,0.235108 -0.20661,0.4595293 -0.09618,0.2244212 -0.170988,0.4595292 z"
         style="text-align:center;text-anchor:middle;stroke-width:0.08905605"
         id="path4589" />
      <path
         d="M 46.681491,3.0849019 Q 46.478443,3.0635285 46.357327,2.9067898 46.23621,2.7500511 46.23621,2.5078186 q 0,-0.1424897 0.04275,-0.2956661 0.04275,-0.1531764 0.121117,-0.2956661 0.07837,-0.146052 0.185236,-0.2742927 0.106867,-0.1282407 0.231546,-0.220859 0.195923,-0.146052 0.366911,-0.146052 0.113992,0.060558 0.224421,0.2529192 0.01781,0 0.03206,0 0.01425,-0.00356 0.03206,-0.00356 0.188798,0 0.188798,0.3348508 0,0.2244213 -0.07481,0.4274691 -0.07125,0.1994856 -0.203048,0.3633487 -0.12824,0.1638632 -0.309915,0.277855 -0.178112,0.1104295 -0.391846,0.1567386 z m 0.181674,-1.1221064 q -0.06056,0.081932 -0.113992,0.1781122 -0.05343,0.096181 -0.09262,0.1959233 -0.03918,0.096181 -0.06056,0.1887989 -0.02137,0.089056 -0.02137,0.1603009 0,0.085494 0.0285,0.1638631 0.0285,0.078369 0.06412,0.089056 0.160301,-0.035622 0.292104,-0.131803 0.135365,-0.099743 0.231545,-0.2457947 0.09974,-0.146052 0.153177,-0.3312886 0.057,-0.1852366 0.057,-0.3954089 0,-0.092618 -0.01069,-0.1460519 -0.01069,-0.053434 -0.03562,-0.092618 -0.156739,0.046309 -0.281418,0.1496141 -0.121116,0.1033051 -0.210172,0.2172968 z"
         style="text-align:center;text-anchor:middle;stroke-width:0.08905605"
         id="path4591" />
      <path
         d="m 48.802471,2.8818541 q -0.06768,-0.056996 -0.09262,-0.1424897 -0.02137,-0.085494 -0.02137,-0.1460519 0,-0.074807 0.01781,-0.1282408 -0.01425,0 -0.06412,0.056996 -0.04987,0.056996 -0.110429,0.1353652 -0.057,0.078369 -0.113992,0.1531765 -0.057,0.074807 -0.08549,0.1104295 -0.04631,0.049871 -0.08906,0.078369 -0.03918,0.028498 -0.06412,0.03206 -0.057,-0.00356 -0.121116,-0.024936 -0.06056,-0.017811 -0.117554,-0.053434 -0.05343,-0.035623 -0.09618,-0.085494 -0.03919,-0.049871 -0.05343,-0.1139917 0,-0.099743 0.0036,-0.1638632 0.0071,-0.06412 0.02493,-0.1389274 0.03206,-0.1353653 0.09262,-0.3063529 0.06412,-0.1709876 0.146052,-0.3348508 0.08193,-0.1674254 0.181674,-0.3099151 0.103305,-0.1460519 0.217297,-0.2279835 0.03206,0 0.07481,0.00712 0.04275,0.00356 0.08549,0.017811 0.04631,0.014249 0.08549,0.035622 0.04275,0.017811 0.07124,0.049871 -0.03206,0.035622 -0.163863,0.2386703 -0.12824,0.2030478 -0.288541,0.5842077 -0.01781,0.039185 -0.04275,0.1139918 -0.02494,0.074807 -0.04987,0.1567387 -0.02493,0.081932 -0.04275,0.1603009 -0.01425,0.078369 -0.01425,0.1246785 0,0.028498 0.0071,0.042747 0.01069,0.014249 0.01781,0.021373 0.05343,-0.021373 0.135365,-0.117554 0.08193,-0.096181 0.227984,-0.2956661 0.03562,-0.049871 0.08193,-0.1139918 0.04987,-0.06412 0.09974,-0.1353652 0.04987,-0.074807 0.09262,-0.1531764 0.04631,-0.078369 0.07481,-0.1567387 0.01425,-0.042747 0.03562,-0.099743 0.02494,-0.060558 0.057,-0.1246785 0.03562,-0.06412 0.07837,-0.1282407 0.04631,-0.067683 0.106868,-0.1246785 0.04631,0 0.09974,0.010687 0.05343,0.010687 0.09974,0.028498 0.04987,0.014249 0.08549,0.035622 0.03562,0.017811 0.05343,0.039185 -0.06412,0.1567387 -0.14249,0.3099151 -0.07837,0.1531764 -0.146052,0.3027906 -0.06768,0.1460519 -0.113992,0.2921039 -0.04631,0.1460519 -0.04631,0.2849794 0,0.074807 0.01069,0.131803 0.01425,0.053434 0.0285,0.092618 0.01425,0.035622 0.02493,0.060558 0.01425,0.024936 0.01425,0.042747 0,0.00356 -0.0071,0.010687 -0.0036,0.00356 -0.0071,0.00356 -0.02493,0 -0.06412,-0.010687 -0.03918,-0.010687 -0.08906,-0.03206 -0.04631,-0.017811 -0.09618,-0.042747 -0.04631,-0.024936 -0.08906,-0.053434 z"
         style="text-align:center;text-anchor:middle;stroke-width:0.08905605"
         id="path4593" />
      <path
         d="m 49.693534,3.0955887 q -0.057,-0.00712 -0.121116,-0.049871 -0.06056,-0.039185 -0.07837,-0.089056 0,-0.042747 0.01069,-0.1104295 0.01425,-0.067683 0.03206,-0.1353652 0.01781,-0.071245 0.03562,-0.131803 0.01781,-0.06412 0.02494,-0.096181 0.04275,0 0.106867,0.021374 0.06768,0.021374 0.135365,0.060558 0.07125,0.035622 0.131803,0.085494 0.06412,0.046309 0.09618,0.096181 -0.03206,0.071245 -0.08193,0.1353652 -0.04987,0.06412 -0.106867,0.1104295 -0.05343,0.049871 -0.103305,0.074807 -0.04987,0.028498 -0.08193,0.028498 z"
         style="text-align:center;text-anchor:middle;stroke-width:0.08905605"
         id="path4595" />
      <path
         d="m 1.6635667,12.129436 q -0.00712,0.0036 -0.014249,0.0036 -0.00712,0 -0.028498,0 -0.049871,0 -0.117554,-0.01781 -0.06412,-0.01425 -0.1282408,-0.03918 -0.060558,-0.02137 -0.1068673,-0.04987 -0.042747,-0.0285 -0.053434,-0.04987 -0.00356,-0.04987 -0.00356,-0.103305 0,-0.05343 0,-0.103305 0,-0.398971 0.056996,-0.833565 0.060558,-0.434593 0.1959234,-0.9404316 0.014249,-0.049871 0.028498,-0.1246785 0.017811,-0.078369 0.035622,-0.1674254 -0.085494,0.067683 -0.2030479,0.2172968 -0.117554,0.1460517 -0.2493569,0.3490997 -0.12824078,0.199486 -0.26004375,0.441718 -0.12824073,0.23867 -0.235108,0.488027 Q 0.47377767,11.445485 0.39540834,11.687718 0.32060124,11.92995 0.30279003,12.13656 0.13180239,12.086689 0.06411978,12.036817 -5.8291852e-7,11.986946 -5.8291852e-7,11.915701 q 0,-0.06412 0.0391846629185,-0.181674 0.03918467,-0.117554 0.11042952,-0.277855 0.0712448,-0.160301 0.17454989,-0.356224 0.10330503,-0.199486 0.22798352,-0.42747 0.1424897,-0.260043 0.27785491,-0.488027 Q 0.96892938,9.9564677 1.1007324,9.7712311 1.2325353,9.5859945 1.3572138,9.4506293 1.4854545,9.3152641 1.610133,9.2440192 q 0.049871,0 0.131803,0.024936 0.085494,0.024936 0.1638632,0.060558 0.081932,0.035622 0.1424897,0.074807 0.06412,0.035623 0.071245,0.060558 -0.049871,0.099743 -0.117554,0.2992283 -0.067683,0.1994856 -0.1389275,0.4524044 -0.067683,0.25292 -0.1318029,0.537899 -0.060558,0.281417 -0.096181,0.541461 0.081932,-0.195923 0.1887989,-0.406096 Q 1.9342971,10.676041 2.0554133,10.469431 2.1765296,10.259258 2.3012081,10.063335 2.4294488,9.8674117 2.5505651,9.7071107 2.6716813,9.5432476 2.7749863,9.4221313 2.8818536,9.3010151 2.9637852,9.2440192 q 0.049871,0 0.131803,0.024936 0.085494,0.024936 0.1638631,0.060558 0.081932,0.035622 0.1424897,0.074807 0.06412,0.035623 0.071245,0.060558 -0.1139918,0.2030478 -0.1994856,0.4951517 -0.085494,0.292104 -0.146052,0.612706 -0.056996,0.320602 -0.089056,0.637641 -0.028498,0.313477 -0.028498,0.562834 0,0.08193 0,0.170988 0,0.08906 0.00712,0.185237 -0.049871,0 -0.1211162,-0.01425 -0.067683,-0.01069 -0.1353652,-0.03206 -0.06412,-0.02137 -0.117554,-0.04987 -0.053434,-0.02494 -0.074807,-0.057 -0.00356,-0.04987 -0.00356,-0.103305 0,-0.05343 0,-0.103305 0,-0.398971 0.056996,-0.833565 0.060558,-0.434593 0.1959233,-0.9404316 0.014249,-0.049871 0.03206,-0.1353652 0.017811,-0.085494 0.035622,-0.1781122 -0.099743,0.049871 -0.2279835,0.1923611 -0.1246785,0.1389279 -0.2564814,0.3419749 -0.1282408,0.199486 -0.2564815,0.445281 -0.1246785,0.245794 -0.2279835,0.502276 -0.099743,0.252919 -0.1709877,0.505838 -0.067683,0.249357 -0.081932,0.45953 z"
         style="text-align:center;text-anchor:middle;stroke-width:0.08905605"
         id="path4597" />
      <path
         d="m 4.6701551,10.426684 q 0.035622,0 0.081932,0.01425 0.049871,0.01069 0.089056,0.03206 0.039185,0.01781 0.06412,0.03918 0.028498,0.02137 0.028498,0.03918 -0.071245,0.149614 -0.131803,0.302791 -0.060558,0.149614 -0.103305,0.288541 -0.042747,0.138928 -0.067683,0.260044 -0.021373,0.121116 -0.021373,0.210172 0,0.09974 0.021373,0.167426 0.021374,0.06412 0.071245,0.09262 -0.042747,0.0285 -0.1104296,0.04631 -0.067683,0.01781 -0.1211162,0.01781 -0.1923611,0 -0.1923611,-0.263606 0,-0.203048 0.1353652,-0.55571 -0.071245,0.163863 -0.1638631,0.309915 -0.092618,0.14249 -0.1887989,0.252919 -0.09618,0.11043 -0.1959233,0.181674 -0.096181,0.06768 -0.1781122,0.08193 -0.1318029,-0.0071 -0.2137345,-0.124678 -0.081932,-0.121117 -0.081932,-0.306353 0,-0.199486 0.085494,-0.420345 0.085494,-0.220859 0.2172968,-0.409658 0.1353652,-0.188799 0.2921039,-0.313477 0.1567387,-0.128241 0.3027906,-0.135365 0.035622,0.01069 0.078369,0.04275 0.046309,0.03206 0.085494,0.07481 0.042747,0.04275 0.071245,0.08906 0.028498,0.04275 0.03206,0.07481 -0.1424897,0.02137 -0.2956661,0.138927 -0.1496142,0.117554 -0.2742927,0.28498 -0.1211162,0.163863 -0.1994856,0.352662 -0.078369,0.188799 -0.078369,0.352662 0,0.06768 0.049871,0.08549 0.103305,-0.02137 0.2386702,-0.174549 0.1353653,-0.156739 0.3277264,-0.480903 0.035622,-0.06412 0.078369,-0.14249 0.046309,-0.07837 0.092618,-0.163863 0.046309,-0.08549 0.089056,-0.170988 0.046309,-0.08906 0.085494,-0.170987 z"
         style="text-align:center;text-anchor:middle;stroke-width:0.08905605"
         id="path4599" />
      <path
         d="m 6.4434285,11.313682 q -0.081931,0.260044 -0.1638631,0.473778 -0.081932,0.213735 -0.1745499,0.391847 -0.092618,0.181674 -0.1994856,0.331289 -0.1068673,0.153176 -0.235108,0.288541 -0.1638631,0.170988 -0.338413,0.260044 -0.1745499,0.09262 -0.3490998,0.09262 -0.089056,0 -0.1781121,-0.02137 -0.085494,-0.01781 -0.1603009,-0.05343 -0.078369,-0.03206 -0.1353652,-0.07837 -0.060558,-0.04275 -0.085494,-0.09262 0,-0.04275 0.049871,-0.07481 0.042747,0.03918 0.071245,0.06056 0.028498,0.02137 0.056996,0.03562 0.024936,0.01425 0.056996,0.01781 0.028498,0.0036 0.067683,0.0036 0.2030479,0 0.395409,-0.121116 0.1959233,-0.117554 0.3669109,-0.338413 0.1745499,-0.217297 0.3170396,-0.530774 0.1424897,-0.309915 0.2422325,-0.694637 -0.046309,0.07124 -0.1139917,0.17455 -0.067683,0.103305 -0.1496142,0.20661 -0.081932,0.09974 -0.1709877,0.181674 -0.085494,0.08193 -0.1674254,0.11043 -0.056996,-0.0036 -0.1211162,-0.02494 -0.060558,-0.01781 -0.117554,-0.05343 -0.053434,-0.03562 -0.096181,-0.08549 -0.042747,-0.04987 -0.056996,-0.113991 0,-0.103305 0.00712,-0.163864 0.00712,-0.06412 0.024936,-0.138927 0.03206,-0.135365 0.092618,-0.306353 0.06412,-0.170987 0.146052,-0.334851 0.085494,-0.167425 0.1852366,-0.309915 0.103305,-0.146052 0.2137345,-0.227983 0.028498,0 0.071245,0.0071 0.042747,0.0036 0.089056,0.01781 0.046309,0.01425 0.089056,0.03562 0.042747,0.01781 0.074807,0.04987 -0.039185,0.03562 -0.1709876,0.238671 -0.131803,0.203047 -0.2921039,0.584207 -0.017811,0.03919 -0.042747,0.113992 -0.024936,0.07481 -0.049871,0.156739 -0.021374,0.08193 -0.039185,0.160301 -0.017811,0.07837 -0.017811,0.124678 0,0.0285 0.00712,0.04275 0.010687,0.01425 0.017811,0.02137 0.06412,-0.01069 0.1709876,-0.103305 0.1068673,-0.09618 0.2422325,-0.295666 0.085494,-0.12824 0.1567387,-0.252919 0.071245,-0.128241 0.1389275,-0.256481 0.071245,-0.128241 0.1460519,-0.263606 0.074807,-0.135366 0.1603009,-0.277855 0.046309,0 0.099743,0.01069 0.053434,0.01069 0.103305,0.0285 0.049871,0.01425 0.085494,0.03562 0.039185,0.01781 0.056996,0.03918 -0.1104295,0.235108 -0.20661,0.459529 -0.096181,0.224421 -0.1709877,0.459529 z"
         style="text-align:center;text-anchor:middle;stroke-width:0.08905605"
         id="path4601" />
      <path
         d="M 7.9023892,10.501491 Q 7.884578,10.480117 7.870329,10.412435 7.85608,10.34119 7.85608,10.291319 q 0.092618,0.0071 0.1781121,0.01425 0.085494,0.0036 0.1567387,0.0071 0.053434,-0.106867 0.1139918,-0.210172 0.06412,-0.1068676 0.1211162,-0.1923614 0.060558,-0.089056 0.1104295,-0.1496142 0.053434,-0.060558 0.081932,-0.078369 0.035622,0 0.089056,0.014249 0.056996,0.010687 0.1139917,0.03206 0.056996,0.017811 0.1033051,0.039185 0.046309,0.021373 0.06412,0.042747 -0.1068672,0.1353652 -0.1852366,0.2529192 -0.074807,0.113992 -0.1638631,0.263606 0.071245,0 0.1424897,-0.0036 0.074807,-0.0036 0.1496142,-0.01069 0.017811,0.01781 0.028498,0.04631 0.010687,0.02494 0.010687,0.05343 -0.1745499,0.06412 -0.4239068,0.07124 -0.089056,0.170987 -0.1603009,0.341975 -0.067683,0.167425 -0.1175541,0.324164 -0.046309,0.156739 -0.074807,0.295666 -0.024936,0.138928 -0.024936,0.249357 0,0.156739 0.117554,0.17455 0.1068672,-0.01425 0.2030478,-0.05343 0.09618,-0.03918 0.1709876,-0.09974 0.021374,0.03206 0.024936,0.05343 -0.021373,0.03206 -0.074807,0.07481 -0.049871,0.04275 -0.1104295,0.08193 -0.060558,0.04275 -0.117554,0.07125 -0.056996,0.0285 -0.085494,0.03206 -0.089056,-0.0036 -0.1781121,-0.03918 -0.089056,-0.03562 -0.1638632,-0.08906 -0.071245,-0.05343 -0.117554,-0.117554 -0.046309,-0.06768 -0.046309,-0.131803 0,-0.08549 0.021373,-0.213734 0.024936,-0.131803 0.067683,-0.28498 0.042747,-0.153176 0.099743,-0.320602 0.056996,-0.167425 0.1246785,-0.331288 z"
         style="text-align:center;text-anchor:middle;stroke-width:0.08905605"
         id="path4603" />
      <path
         d="m 8.9410059,11.805272 q 0,-0.124679 0.024936,-0.292104 0.024936,-0.170988 0.071245,-0.363349 0.049871,-0.192361 0.1139917,-0.402533 0.067683,-0.210173 0.1496142,-0.420345 0.071245,-0.188799 0.1638632,-0.38116 0.09618,-0.1923611 0.20661,-0.3775977 0.1104295,-0.1852366 0.2279835,-0.352662 0.1211159,-0.1674254 0.2422329,-0.3063529 0.057,0 0.121116,0.014249 0.06768,0.014249 0.128241,0.039185 0.06412,0.021373 0.113991,0.053434 0.05343,0.03206 0.08549,0.06412 -0.267168,0.2742926 -0.480903,0.5557098 -0.2137341,0.2778549 -0.3384126,0.5236501 -0.067683,0.135365 -0.1246785,0.252919 -0.053434,0.117554 -0.099743,0.235108 -0.046309,0.113992 -0.085494,0.231546 -0.035622,0.113991 -0.067683,0.242232 0.6839503,-0.872749 1.0152393,-0.872749 0.09262,0 0.199485,0.06056 0.106868,0.06056 0.188799,0.163863 -0.110429,0.121116 -0.227983,0.292104 -0.117554,0.170987 -0.217297,0.345537 -0.09618,0.170988 -0.160301,0.320602 -0.06056,0.146052 -0.06056,0.217297 0,0.03562 0.01069,0.04987 0.01069,0.01069 0.04631,0.01069 0.05343,0 0.08549,-0.01425 0.03206,-0.01425 0.03918,-0.01425 0.01781,0.0285 0.02137,0.03918 0.0036,0.01069 0.0036,0.01781 0,0.01425 -0.04275,0.04275 -0.04275,0.02494 -0.103305,0.05343 -0.057,0.02494 -0.113992,0.04631 -0.057,0.02137 -0.085494,0.02137 -0.035622,0 -0.071245,-0.02137 -0.035622,-0.01781 -0.06412,-0.04987 -0.024936,-0.03206 -0.042747,-0.07124 -0.014249,-0.03918 -0.014249,-0.08193 0,-0.05343 0.028498,-0.156739 0.03206,-0.106867 0.085494,-0.245795 0.053434,-0.142489 0.1282409,-0.309915 0.07481,-0.167425 0.160301,-0.341975 0,-0.01425 -0.01425,-0.01425 -0.01069,0 -0.057,0.0285 -0.04275,0.0285 -0.08193,0.057 -0.1282404,0.09618 -0.2600434,0.23867 -0.1282407,0.138928 -0.2529192,0.306353 -0.1211162,0.167425 -0.2315458,0.356224 -0.1068672,0.185237 -0.1852366,0.374036 -0.010687,0.02494 -0.03206,0.04631 -0.021373,0.02137 -0.035622,0.02137 -0.010687,0 -0.03206,-0.02493 -0.017811,-0.02494 -0.035622,-0.06412 -0.014249,-0.03562 -0.028498,-0.07481 -0.014249,-0.03918 -0.014249,-0.06768 z"
         style="text-align:center;text-anchor:middle;stroke-width:0.08905605"
         id="path4605" />
      <path
         d="m 12.06359,10.391061 q -0.01425,0.220859 -0.07837,0.38116 -0.06412,0.156739 -0.185236,0.277855 -0.117554,0.117554 -0.288542,0.213735 -0.170988,0.09618 -0.398971,0.185236 0,0.02137 -0.0036,0.04631 0,0.02137 0,0.04631 0,0.04631 0.0071,0.09618 0.0071,0.04987 0.02494,0.09262 0.01781,0.04275 0.04987,0.07125 0.03206,0.02494 0.08193,0.02494 0.09618,0 0.188799,-0.04275 0.09262,-0.04275 0.174549,-0.103305 0.08549,-0.06412 0.156739,-0.135365 0.07481,-0.07481 0.131803,-0.135365 0.03562,0.03206 0.06056,0.06056 -0.160301,0.213734 -0.352662,0.356224 -0.188799,0.138927 -0.359786,0.178112 -0.245795,-0.0285 -0.384723,-0.178112 -0.135365,-0.153176 -0.135365,-0.366911 0,-0.146052 0.03918,-0.295666 0.04275,-0.153176 0.113992,-0.292104 0.07481,-0.14249 0.170987,-0.267168 0.09974,-0.124679 0.210173,-0.217297 0.113991,-0.09262 0.231545,-0.146052 0.121117,-0.05343 0.238671,-0.05343 0.163863,0.02137 0.306353,0.203048 z m -0.245795,0.117554 q -0.09618,0.01425 -0.199486,0.07837 -0.103305,0.06412 -0.195923,0.170987 -0.08906,0.106868 -0.163863,0.249357 -0.07481,0.14249 -0.117554,0.306353 0.284979,-0.14249 0.473778,-0.3491 0.188799,-0.210172 0.203048,-0.455967 z"
         style="text-align:center;text-anchor:middle;stroke-width:0.08905605"
         id="path4607" />
      <path
         d="m 13.109386,11.719778 q 0,-0.07124 0.01425,-0.199486 0.01781,-0.128241 0.04275,-0.277855 0.0285,-0.149614 0.06056,-0.306353 0.03562,-0.156738 0.07124,-0.281417 0.04631,-0.167425 0.14249,-0.256481 0.09974,-0.09262 0.245795,-0.09262 0.07837,0 0.153176,0.02494 0.07837,0.02494 0.09262,0.06412 -0.103305,0.08549 -0.167426,0.213734 -0.06056,0.124679 -0.09974,0.270731 -0.03562,0.142489 -0.057,0.295666 -0.01781,0.149614 -0.03918,0.281417 0.117554,-0.156739 0.220859,-0.281417 0.106867,-0.128241 0.188799,-0.203048 0.110429,-0.103305 0.149614,-0.170988 0.03918,-0.07125 0.06768,-0.153176 0.02137,-0.06412 0.04987,-0.149614 0.03206,-0.08549 0.103305,-0.156739 0.01425,-0.0036 0.06056,-0.0036 0.03562,0 0.07481,0.0036 0.04275,0.0036 0.07837,0.01425 0.03562,0.01069 0.06056,0.02494 0.02494,0.01425 0.0285,0.03562 -0.057,0.07481 -0.106868,0.235108 -0.04987,0.156739 -0.08906,0.345538 -0.03918,0.188798 -0.07125,0.377597 -0.03206,0.185237 -0.057,0.313478 0.01425,-0.0071 0.06412,-0.057 0.04987,-0.04987 0.110429,-0.124679 0.06412,-0.07481 0.131803,-0.163863 0.07125,-0.08906 0.124679,-0.17455 0.06768,-0.103305 0.110429,-0.192361 0.04631,-0.09262 0.07837,-0.195923 0.03562,-0.103305 0.06412,-0.227984 0.0285,-0.128241 0.06056,-0.30279 0.02137,-0.0285 0.09262,-0.04631 0.07481,-0.02137 0.135366,-0.02137 0.05343,0 0.07837,0.01781 -0.01781,0.199486 -0.06768,0.356224 -0.04631,0.156739 -0.12824,0.306353 -0.08193,0.146052 -0.203048,0.295666 -0.121116,0.146052 -0.28498,0.320602 -0.06768,0.07125 -0.149614,0.156739 -0.07837,0.08549 -0.156738,0.160301 -0.07481,0.07125 -0.14249,0.121116 -0.06412,0.04987 -0.09974,0.04987 -0.08193,0 -0.135365,-0.06412 -0.05343,-0.06412 -0.05343,-0.163863 0,-0.103305 0.0071,-0.178112 0.01069,-0.07837 0.03206,-0.163863 0.02137,-0.07837 0.03206,-0.131803 0.01425,-0.05343 0.02137,-0.09262 0.01069,-0.03918 0.01425,-0.06768 0.0036,-0.0285 0.0071,-0.057 -0.0285,0.01425 -0.07481,0.06056 -0.04631,0.04275 -0.09618,0.103305 -0.04987,0.057 -0.09974,0.117554 -0.04987,0.06056 -0.08193,0.103305 -0.06768,0.09262 -0.117554,0.163863 -0.04987,0.07125 -0.09618,0.135365 -0.04275,0.06412 -0.08549,0.131803 -0.04275,0.06412 -0.09974,0.138928 -0.113992,-0.03562 -0.163863,-0.106867 -0.04631,-0.07124 -0.04631,-0.17455 z"
         style="text-align:center;text-anchor:middle;stroke-width:0.08905605"
         id="path4609" />
      <path
         d="m 15.342077,11.627159 q 0,-0.03206 0.0036,-0.07837 0.0071,-0.04987 0.02137,-0.128241 0.01425,-0.08193 0.03562,-0.195923 0.02494,-0.113992 0.06056,-0.274293 0.0071,-0.03562 0.03206,-0.113991 0.02494,-0.07837 0.06412,-0.163864 0.04275,-0.08906 0.09974,-0.170987 0.06056,-0.08193 0.142489,-0.121116 0.06056,0.01425 0.160301,0.07481 0.09974,0.057 0.170988,0.160301 -0.08193,0.09262 -0.138928,0.185236 -0.05343,0.09262 -0.09974,0.192361 -0.04275,0.09974 -0.08193,0.20661 -0.03562,0.106868 -0.08193,0.224422 -0.03918,0.09974 -0.07124,0.20661 -0.03206,0.103305 -0.03562,0.181674 0,0.06412 -0.0036,0.08906 0,0.0285 -0.01781,0.0285 -0.01425,0 -0.057,-0.01781 -0.04275,-0.01781 -0.08906,-0.05343 -0.04275,-0.03918 -0.07837,-0.09618 -0.03562,-0.057 -0.03562,-0.135366 z m 0.680388,-1.546013 q 0,-0.02137 0.01069,-0.06412 -0.01781,-0.017811 -0.03206,-0.053434 -0.01069,-0.035622 -0.01069,-0.06412 0,-0.03206 0.0071,-0.085494 0.01069,-0.056996 0.02494,-0.1211162 0.01425,-0.06412 0.03562,-0.131803 0.02137,-0.071245 0.04275,-0.1282407 0.04275,0 0.103305,0.024936 0.06412,0.021373 0.12824,0.060558 0.06412,0.035622 0.117554,0.081932 0.05343,0.042747 0.08193,0.081932 -0.03918,0.039185 -0.103305,0.1104296 -0.06412,0.067683 -0.124678,0.1460519 -0.06056,0.074808 -0.11043,0.1424895 -0.04987,0.06768 -0.06412,0.09618 -0.04275,-0.0071 -0.07481,-0.03562 -0.03206,-0.03206 -0.03206,-0.06056 z"
         style="text-align:center;text-anchor:middle;stroke-width:0.08905605"
         id="path4611" />
      <path
         d="m 16.757457,10.138142 q 0.09262,0.0285 0.17455,0.128241 0.08193,0.09618 0.121116,0.213734 -0.03918,0.09618 -0.121116,0.231546 -0.08193,0.135365 -0.163863,0.277855 -0.08193,0.138928 -0.149615,0.267168 -0.06412,0.124679 -0.07481,0.20661 0.057,-0.06056 0.124679,-0.138927 0.07125,-0.08193 0.135365,-0.160301 0.06768,-0.08193 0.124679,-0.146052 0.057,-0.06768 0.08906,-0.09974 0.06768,-0.07124 0.160301,-0.163863 0.09262,-0.09618 0.192361,-0.178112 0.103305,-0.08549 0.20661,-0.14249 0.103305,-0.06056 0.188799,-0.06056 0.09262,0 0.153176,0.06412 0.06412,0.06056 0.09974,0.128241 0,0.0071 -0.0285,0.02137 -0.02494,0.01069 -0.07481,0.06768 -0.04987,0.06412 -0.113992,0.178112 -0.06056,0.11043 -0.121116,0.242233 -0.057,0.128241 -0.09618,0.263606 -0.03918,0.135365 -0.03918,0.245795 0,0.08906 0.02137,0.113991 0.02494,0.02494 0.06768,0.02494 0.03918,0 0.08193,-0.01781 0.04275,-0.01781 0.06768,-0.01781 0.01425,0.0071 0.02137,0.03206 0.01069,0.02137 0.01069,0.03918 -0.0285,0.02494 -0.06768,0.04987 -0.03918,0.02494 -0.08193,0.04631 -0.04275,0.02137 -0.08549,0.03562 -0.03919,0.01425 -0.07125,0.01425 -0.103305,0 -0.170988,-0.03206 -0.06412,-0.0285 -0.103305,-0.07837 -0.03562,-0.04987 -0.04987,-0.117554 -0.01425,-0.07124 -0.01425,-0.149614 0,-0.04275 0.0071,-0.09618 0.0071,-0.05343 0.0285,-0.124678 0.02137,-0.07481 0.06056,-0.17455 0.03918,-0.103305 0.09974,-0.245795 -0.0071,0 -0.09618,0.04987 -0.08906,0.04987 -0.192361,0.153177 -0.167426,0.160301 -0.302791,0.317039 -0.131803,0.156739 -0.27073,0.3491 -0.07837,0.11043 -0.138928,0.185237 -0.057,0.07837 -0.09974,0.103305 -0.07481,-0.04275 -0.110429,-0.121116 -0.03562,-0.07481 -0.05343,-0.156739 0,-0.06768 0.01781,-0.170988 0.02137,-0.103305 0.05343,-0.227983 0.03562,-0.128241 0.08549,-0.267168 0.04987,-0.138928 0.11043,-0.277855 0.135365,-0.313478 0.245794,-0.49159 0.113992,-0.178112 0.14249,-0.192361 z"
         style="text-align:center;text-anchor:middle;stroke-width:0.08905605"
         id="path4613" />
      <path
         d="m 18.877213,10.202262 q 0.07124,0 0.163864,0.04275 0.09262,0.04275 0.163863,0.11043 -0.01781,-0.14249 -0.04631,-0.267168 -0.02494,-0.128241 -0.07837,-0.2636063 -0.04987,-0.1353652 -0.135365,-0.2956661 -0.08549,-0.1603009 -0.213734,-0.366911 0.01069,-0.03206 0.04631,-0.074807 0.03918,-0.042747 0.08549,-0.078369 0.04987,-0.039185 0.09974,-0.067683 0.05343,-0.028498 0.09974,-0.035622 0.09974,0.1104295 0.188799,0.2778549 0.08906,0.1638632 0.156739,0.3562242 0.06768,0.1887989 0.103305,0.3918467 0.03918,0.203048 0.03918,0.388284 0,0.185237 -0.04275,0.38116 -0.03918,0.195924 -0.113991,0.384723 -0.07125,0.185236 -0.167426,0.352662 -0.09618,0.167425 -0.210172,0.299228 -0.11043,0.131803 -0.231546,0.213735 -0.121116,0.08549 -0.242232,0.106867 -0.245795,-0.0285 -0.377598,-0.160301 -0.128241,-0.128241 -0.128241,-0.356224 0,-0.121117 0.03562,-0.263606 0.03918,-0.14249 0.09974,-0.281417 0.06412,-0.14249 0.146052,-0.274293 0.08549,-0.135365 0.178112,-0.242233 0.09618,-0.106867 0.192362,-0.181674 0.09618,-0.07481 0.188798,-0.09618 z m -0.363348,1.713439 q 0.124678,-0.04275 0.249357,-0.188799 0.124678,-0.146052 0.224421,-0.341975 0.09974,-0.199486 0.160301,-0.423907 0.06412,-0.227983 0.06412,-0.438156 0,-0.06056 0,-0.07481 0,-0.01425 -0.0036,-0.0285 -0.08549,0.03562 -0.181674,0.121116 -0.09618,0.08549 -0.192361,0.199486 -0.09618,0.11043 -0.181675,0.242233 -0.08549,0.131803 -0.153176,0.263606 -0.06768,0.131802 -0.106868,0.252919 -0.03918,0.121116 -0.03918,0.213734 0,0.178112 0.160301,0.203048 z"
         style="text-align:center;text-anchor:middle;stroke-width:0.08905605"
         id="path4615" />
      <path
         d="m 20.821752,11.890765 q 0.163863,-0.110429 0.320602,-0.281417 0.156739,-0.17455 0.284979,-0.374035 0.128241,-0.203048 0.217297,-0.420345 0.08906,-0.217297 0.121116,-0.416782 0,-0.04275 -0.04631,-0.057 -0.04987,0 -0.138927,0.08906 -0.08549,0.08549 -0.192361,0.220859 -0.103305,0.135365 -0.213735,0.302791 -0.106867,0.167425 -0.195923,0.33485 -0.08906,0.163864 -0.153177,0.309916 -0.06056,0.142489 -0.06768,0.231545 -0.03562,0 -0.06056,-0.07124 -0.0071,-0.01781 -0.02494,-0.03562 -0.01781,-0.02137 -0.057,-0.04987 -0.01781,-0.01425 -0.03562,-0.03206 -0.01781,-0.02137 -0.02494,-0.03562 -0.01425,-0.0285 -0.01425,-0.09262 0,-0.210173 0.05343,-0.473779 0.05343,-0.263606 0.138928,-0.537898 0.08906,-0.274293 0.20661,-0.5378988 0.117554,-0.2671682 0.242233,-0.4880272 0.12824,-0.2208591 0.256481,-0.3740355 0.128241,-0.1531764 0.242232,-0.2030478 0.03562,0.010687 0.08549,0.035622 0.04987,0.024936 0.09974,0.056996 0.04987,0.03206 0.09262,0.06412 0.04631,0.03206 0.06768,0.056996 -0.391847,0.3170396 -0.680388,0.8157536 -0.28498,0.4951512 -0.466654,1.1719782 0.09974,-0.185237 0.224421,-0.356225 0.124679,-0.17455 0.245795,-0.306353 0.124678,-0.131803 0.235108,-0.210172 0.113992,-0.07837 0.188799,-0.07837 0.057,0.01425 0.110429,0.04987 0.05343,0.03562 0.09618,0.08906 0.04275,0.04987 0.07125,0.11043 0.0285,0.057 0.03562,0.121116 -0.0036,0.149614 -0.05343,0.320602 -0.04631,0.167425 -0.12824,0.331288 -0.07837,0.163864 -0.181675,0.313478 -0.09974,0.149614 -0.213734,0.263606 -0.11043,0.110429 -0.224421,0.178112 -0.11043,0.06768 -0.210173,0.06768 -0.04275,0 -0.08906,-0.01069 -0.04275,-0.0071 -0.08193,-0.02494 -0.03562,-0.01425 -0.06056,-0.03206 -0.02137,-0.01781 -0.02137,-0.03562 z"
         style="text-align:center;text-anchor:middle;stroke-width:0.08905605"
         id="path4617" />
      <path
         d="m 23.453024,10.391061 q -0.01425,0.220859 -0.07837,0.38116 -0.06412,0.156739 -0.185237,0.277855 -0.117554,0.117554 -0.288541,0.213735 -0.170988,0.09618 -0.398971,0.185236 0,0.02137 -0.0036,0.04631 0,0.02137 0,0.04631 0,0.04631 0.0071,0.09618 0.0071,0.04987 0.02494,0.09262 0.01781,0.04275 0.04987,0.07125 0.03206,0.02494 0.08193,0.02494 0.09618,0 0.188799,-0.04275 0.09262,-0.04275 0.17455,-0.103305 0.08549,-0.06412 0.156739,-0.135365 0.07481,-0.07481 0.131803,-0.135365 0.03562,0.03206 0.06056,0.06056 -0.160301,0.213734 -0.352662,0.356224 -0.188799,0.138927 -0.359787,0.178112 -0.245794,-0.0285 -0.384722,-0.178112 -0.135365,-0.153176 -0.135365,-0.366911 0,-0.146052 0.03918,-0.295666 0.04275,-0.153176 0.113992,-0.292104 0.07481,-0.14249 0.170987,-0.267168 0.09974,-0.124679 0.210172,-0.217297 0.113992,-0.09262 0.231546,-0.146052 0.121116,-0.05343 0.23867,-0.05343 0.163864,0.02137 0.306353,0.203048 z m -0.245794,0.117554 q -0.09618,0.01425 -0.199486,0.07837 -0.103305,0.06412 -0.195923,0.170987 -0.08906,0.106868 -0.163863,0.249357 -0.07481,0.14249 -0.117554,0.306353 0.284979,-0.14249 0.473778,-0.3491 0.188799,-0.210172 0.203048,-0.455967 z"
         style="text-align:center;text-anchor:middle;stroke-width:0.08905605"
         id="path4619" />
      <path
         d="m 25.695736,10.426684 q 0.03562,0 0.08193,0.01425 0.04987,0.01069 0.08906,0.03206 0.03918,0.01781 0.06412,0.03918 0.0285,0.02137 0.0285,0.03918 -0.07125,0.149614 -0.131803,0.302791 -0.06056,0.149614 -0.103305,0.288541 -0.04275,0.138928 -0.06768,0.260044 -0.02137,0.121116 -0.02137,0.210172 0,0.09974 0.02137,0.167426 0.02137,0.06412 0.07125,0.09262 -0.04275,0.0285 -0.11043,0.04631 -0.06768,0.01781 -0.121116,0.01781 -0.192361,0 -0.192361,-0.263606 0,-0.203048 0.135365,-0.55571 -0.07124,0.163863 -0.163863,0.309915 -0.09262,0.14249 -0.188799,0.252919 -0.09618,0.11043 -0.195923,0.181674 -0.09618,0.06768 -0.178112,0.08193 -0.131803,-0.0071 -0.213735,-0.124678 -0.08193,-0.121117 -0.08193,-0.306353 0,-0.199486 0.08549,-0.420345 0.08549,-0.220859 0.217297,-0.409658 0.135365,-0.188799 0.292104,-0.313477 0.156739,-0.128241 0.302791,-0.135365 0.03562,0.01069 0.07837,0.04275 0.04631,0.03206 0.08549,0.07481 0.04275,0.04275 0.07124,0.08906 0.0285,0.04275 0.03206,0.07481 -0.14249,0.02137 -0.295666,0.138927 -0.149614,0.117554 -0.274293,0.28498 -0.121116,0.163863 -0.199485,0.352662 -0.07837,0.188799 -0.07837,0.352662 0,0.06768 0.04987,0.08549 0.103305,-0.02137 0.23867,-0.174549 0.135365,-0.156739 0.327726,-0.480903 0.03562,-0.06412 0.07837,-0.14249 0.04631,-0.07837 0.09262,-0.163863 0.04631,-0.08549 0.08906,-0.170988 0.04631,-0.08906 0.08549,-0.170987 z"
         style="text-align:center;text-anchor:middle;stroke-width:0.08905605"
         id="path4621" />
      <path
         d="m 26.139958,11.637846 q 0,-0.156738 0.07481,-0.438156 0.07481,-0.284979 0.210172,-0.662577 0.220859,-0.6020187 0.41322,-1.0009899 0.195923,-0.4025334 0.38116,-0.6269547 0.04275,0.00712 0.103305,0.035622 0.06412,0.028498 0.124679,0.06412 0.06056,0.03206 0.106867,0.067683 0.04987,0.035622 0.06412,0.056996 -0.277855,0.3277263 -0.488027,0.705324 -0.210172,0.3775973 -0.384722,0.8656253 -0.149614,0.420344 -0.227984,0.758757 -0.07837,0.334851 -0.07837,0.559272 0,0.06056 0,0.07481 0,0.01425 0.0036,0.0285 -0.04987,-0.0071 -0.08549,-0.02494 -0.03562,-0.01781 -0.04631,-0.04275 -0.0071,-0.01781 -0.03918,-0.05343 -0.03206,-0.03206 -0.057,-0.04987 -0.03206,-0.02137 -0.05343,-0.11043 -0.02137,-0.09262 -0.02137,-0.20661 z"
         style="text-align:center;text-anchor:middle;stroke-width:0.08905605"
         id="path4623" />
      <path
         d="m 26.996566,11.719778 q 0,-0.07124 0.01425,-0.199486 0.01781,-0.128241 0.04275,-0.277855 0.0285,-0.149614 0.06056,-0.306353 0.03562,-0.156738 0.07125,-0.281417 0.04631,-0.167425 0.142489,-0.256481 0.09974,-0.09262 0.245795,-0.09262 0.07837,0 0.153177,0.02494 0.07837,0.02494 0.09262,0.06412 -0.103305,0.08549 -0.167426,0.213734 -0.06056,0.124679 -0.09974,0.270731 -0.03562,0.142489 -0.057,0.295666 -0.01781,0.149614 -0.03918,0.281417 0.117554,-0.156739 0.220859,-0.281417 0.106867,-0.128241 0.188799,-0.203048 0.11043,-0.103305 0.149614,-0.170988 0.03918,-0.07125 0.06768,-0.153176 0.02137,-0.06412 0.04987,-0.149614 0.03206,-0.08549 0.103305,-0.156739 0.01425,-0.0036 0.06056,-0.0036 0.03562,0 0.07481,0.0036 0.04275,0.0036 0.07837,0.01425 0.03562,0.01069 0.06056,0.02494 0.02494,0.01425 0.0285,0.03562 -0.057,0.07481 -0.106867,0.235108 -0.04987,0.156739 -0.08906,0.345538 -0.03918,0.188798 -0.07125,0.377597 -0.03206,0.185237 -0.057,0.313478 0.01425,-0.0071 0.06412,-0.057 0.04987,-0.04987 0.11043,-0.124679 0.06412,-0.07481 0.131803,-0.163863 0.07124,-0.08906 0.124678,-0.17455 0.06768,-0.103305 0.11043,-0.192361 0.04631,-0.09262 0.07837,-0.195923 0.03562,-0.103305 0.06412,-0.227984 0.0285,-0.128241 0.06056,-0.30279 0.02137,-0.0285 0.09262,-0.04631 0.07481,-0.02137 0.135365,-0.02137 0.05343,0 0.07837,0.01781 -0.01781,0.199486 -0.06768,0.356224 -0.04631,0.156739 -0.128241,0.306353 -0.08193,0.146052 -0.203048,0.295666 -0.121116,0.146052 -0.284979,0.320602 -0.06768,0.07125 -0.149614,0.156739 -0.07837,0.08549 -0.156739,0.160301 -0.07481,0.07125 -0.14249,0.121116 -0.06412,0.04987 -0.09974,0.04987 -0.08193,0 -0.135365,-0.06412 -0.05343,-0.06412 -0.05343,-0.163863 0,-0.103305 0.0071,-0.178112 0.01069,-0.07837 0.03206,-0.163863 0.02137,-0.07837 0.03206,-0.131803 0.01425,-0.05343 0.02137,-0.09262 0.01069,-0.03918 0.01425,-0.06768 0.0036,-0.0285 0.0071,-0.057 -0.0285,0.01425 -0.07481,0.06056 -0.04631,0.04275 -0.09618,0.103305 -0.04987,0.057 -0.09974,0.117554 -0.04987,0.06056 -0.08193,0.103305 -0.06768,0.09262 -0.117554,0.163863 -0.04987,0.07125 -0.09618,0.135365 -0.04275,0.06412 -0.08549,0.131803 -0.04275,0.06412 -0.09974,0.138928 -0.113992,-0.03562 -0.163863,-0.106867 -0.04631,-0.07124 -0.04631,-0.17455 z"
         style="text-align:center;text-anchor:middle;stroke-width:0.08905605"
         id="path4625" />
      <path
         d="m 30.454668,10.426684 q 0.03562,0 0.08193,0.01425 0.04987,0.01069 0.08906,0.03206 0.03919,0.01781 0.06412,0.03918 0.0285,0.02137 0.0285,0.03918 -0.07125,0.149614 -0.131803,0.302791 -0.06056,0.149614 -0.103305,0.288541 -0.04275,0.138928 -0.06768,0.260044 -0.02137,0.121116 -0.02137,0.210172 0,0.09974 0.02137,0.167426 0.02137,0.06412 0.07125,0.09262 -0.04275,0.0285 -0.11043,0.04631 -0.06768,0.01781 -0.121116,0.01781 -0.192361,0 -0.192361,-0.263606 0,-0.203048 0.135365,-0.55571 -0.07124,0.163863 -0.163863,0.309915 -0.09262,0.14249 -0.188799,0.252919 -0.09618,0.11043 -0.195923,0.181674 -0.09618,0.06768 -0.178112,0.08193 -0.131803,-0.0071 -0.213735,-0.124678 -0.08193,-0.121117 -0.08193,-0.306353 0,-0.199486 0.08549,-0.420345 0.08549,-0.220859 0.217296,-0.409658 0.135366,-0.188799 0.292104,-0.313477 0.156739,-0.128241 0.302791,-0.135365 0.03562,0.01069 0.07837,0.04275 0.04631,0.03206 0.08549,0.07481 0.04275,0.04275 0.07125,0.08906 0.0285,0.04275 0.03206,0.07481 -0.14249,0.02137 -0.295666,0.138927 -0.149614,0.117554 -0.274293,0.28498 -0.121116,0.163863 -0.199485,0.352662 -0.07837,0.188799 -0.07837,0.352662 0,0.06768 0.04987,0.08549 0.103305,-0.02137 0.23867,-0.174549 0.135365,-0.156739 0.327726,-0.480903 0.03562,-0.06412 0.07837,-0.14249 0.04631,-0.07837 0.09262,-0.163863 0.04631,-0.08549 0.08906,-0.170988 0.04631,-0.08906 0.08549,-0.170987 z"
         style="text-align:center;text-anchor:middle;stroke-width:0.08905605"
         id="path4627" />
      <path
         d="m 32.227941,11.313682 q -0.08193,0.260044 -0.163863,0.473778 -0.08193,0.213735 -0.17455,0.391847 -0.09262,0.181674 -0.199486,0.331289 -0.106867,0.153176 -0.235108,0.288541 -0.163863,0.170988 -0.338413,0.260044 -0.174549,0.09262 -0.349099,0.09262 -0.08906,0 -0.178112,-0.02137 -0.08549,-0.01781 -0.160301,-0.05343 -0.07837,-0.03206 -0.135366,-0.07837 -0.06056,-0.04275 -0.08549,-0.09262 0,-0.04275 0.04987,-0.07481 0.04275,0.03918 0.07125,0.06056 0.0285,0.02137 0.057,0.03562 0.02494,0.01425 0.057,0.01781 0.0285,0.0036 0.06768,0.0036 0.203048,0 0.395409,-0.121116 0.195923,-0.117554 0.366911,-0.338413 0.17455,-0.217297 0.31704,-0.530774 0.142489,-0.309915 0.242232,-0.694637 -0.04631,0.07124 -0.113992,0.17455 -0.06768,0.103305 -0.149614,0.20661 -0.08193,0.09974 -0.170987,0.181674 -0.08549,0.08193 -0.167426,0.11043 -0.057,-0.0036 -0.121116,-0.02494 -0.06056,-0.01781 -0.117554,-0.05343 -0.05343,-0.03562 -0.09618,-0.08549 -0.04275,-0.04987 -0.057,-0.113991 0,-0.103305 0.0071,-0.163864 0.0071,-0.06412 0.02494,-0.138927 0.03206,-0.135365 0.09262,-0.306353 0.06412,-0.170987 0.146052,-0.334851 0.08549,-0.167425 0.185237,-0.309915 0.103305,-0.146052 0.213734,-0.227983 0.0285,0 0.07124,0.0071 0.04275,0.0036 0.08906,0.01781 0.04631,0.01425 0.08906,0.03562 0.04275,0.01781 0.07481,0.04987 -0.03918,0.03562 -0.170988,0.238671 -0.131802,0.203047 -0.292103,0.584207 -0.01781,0.03919 -0.04275,0.113992 -0.02494,0.07481 -0.04987,0.156739 -0.02137,0.08193 -0.03918,0.160301 -0.01781,0.07837 -0.01781,0.124678 0,0.0285 0.0071,0.04275 0.01069,0.01425 0.01781,0.02137 0.06412,-0.01069 0.170988,-0.103305 0.106867,-0.09618 0.242232,-0.295666 0.08549,-0.12824 0.156739,-0.252919 0.07125,-0.128241 0.138927,-0.256481 0.07124,-0.128241 0.146052,-0.263606 0.07481,-0.135366 0.160301,-0.277855 0.04631,0 0.09974,0.01069 0.05343,0.01069 0.103305,0.0285 0.04987,0.01425 0.08549,0.03562 0.03918,0.01781 0.057,0.03918 -0.11043,0.235108 -0.20661,0.459529 -0.09618,0.224421 -0.170988,0.459529 z"
         style="text-align:center;text-anchor:middle;stroke-width:0.08905605"
         id="path4629" />
      <path
         d="m 33.856888,10.448057 q -0.0036,0.06768 -0.02494,0.14249 -0.01781,0.07124 -0.04631,0.131803 -0.0285,0.057 -0.06056,0.09618 -0.03206,0.03918 -0.06056,0.03918 -0.03918,-0.0036 -0.04631,-0.05343 0,-0.01069 0.0071,-0.03206 0.01069,-0.02493 0.02137,-0.05343 0.01069,-0.0285 0.01781,-0.057 0.01069,-0.0285 0.01069,-0.04987 0,-0.04987 -0.02493,-0.08193 -0.02137,-0.03562 -0.06056,-0.03562 -0.142489,0 -0.217296,0.178112 -0.07481,0.178113 -0.07481,0.52365 0,0.03562 0.0036,0.04275 0.07481,-0.0036 0.131803,-0.0036 0.06056,-0.0036 0.117554,-0.0036 0.0036,0.0071 0.0036,0.0285 0,0.03206 -0.01425,0.04631 -0.08193,0.01781 -0.131803,0.03206 -0.04631,0.01069 -0.07125,0.02137 -0.02493,0.01069 -0.03206,0.02494 -0.0036,0.01069 -0.0036,0.03206 0,0.0285 0,0.057 0.0036,0.0285 0.0036,0.07124 0,0.299228 -0.163863,0.480903 -0.160301,0.181674 -0.448843,0.210172 -0.04987,-0.0036 -0.103305,-0.0285 -0.05343,-0.02494 -0.103305,-0.06412 -0.04631,-0.03918 -0.08193,-0.08906 -0.03562,-0.04631 -0.04987,-0.09618 0,-0.135365 0.057,-0.256481 0.057,-0.124679 0.153177,-0.217297 0.09974,-0.09618 0.231545,-0.153177 0.135366,-0.06056 0.292104,-0.07124 0,-0.08906 -0.01781,-0.174549 -0.01781,-0.08549 -0.03918,-0.163864 -0.01781,-0.08193 -0.03562,-0.156738 -0.01781,-0.07837 -0.01781,-0.153177 0,-0.09618 0.03918,-0.188799 0.03918,-0.09618 0.103305,-0.174549 0.06412,-0.08193 0.149615,-0.138928 0.08549,-0.057 0.178112,-0.07837 0.03918,0.01069 0.103305,0.06412 0.06768,0.04987 0.131803,0.113992 0.06412,0.06412 0.113991,0.131803 0.04987,0.06412 0.06056,0.106867 z m -1.17554,1.624383 q 0.08549,-0.03562 0.1603,-0.103305 0.07837,-0.06768 0.135366,-0.153177 0.057,-0.08549 0.08906,-0.181674 0.03562,-0.09618 0.03562,-0.188799 -0.07124,0.01069 -0.156738,0.06768 -0.08549,0.05343 -0.160301,0.131803 -0.07481,0.07481 -0.124679,0.156738 -0.04987,0.08193 -0.04987,0.14249 0,0.07837 0.07124,0.128241 z"
         style="text-align:center;text-anchor:middle;stroke-width:0.08905605"
         id="path4631" />
      <path
         d="m 35.937183,10.426684 q 0.03562,0 0.08193,0.01425 0.04987,0.01069 0.08906,0.03206 0.03918,0.01781 0.06412,0.03918 0.0285,0.02137 0.0285,0.03918 -0.07124,0.149614 -0.131803,0.302791 -0.06056,0.149614 -0.103305,0.288541 -0.04275,0.138928 -0.06768,0.260044 -0.02137,0.121116 -0.02137,0.210172 0,0.09974 0.02137,0.167426 0.02137,0.06412 0.07124,0.09262 -0.04275,0.0285 -0.110429,0.04631 -0.06768,0.01781 -0.121116,0.01781 -0.192362,0 -0.192362,-0.263606 0,-0.203048 0.135366,-0.55571 -0.07124,0.163863 -0.163863,0.309915 -0.09262,0.14249 -0.188799,0.252919 -0.09618,0.11043 -0.195924,0.181674 -0.09618,0.06768 -0.178112,0.08193 -0.131803,-0.0071 -0.213734,-0.124678 -0.08193,-0.121117 -0.08193,-0.306353 0,-0.199486 0.08549,-0.420345 0.08549,-0.220859 0.217297,-0.409658 0.135365,-0.188799 0.292104,-0.313477 0.156738,-0.128241 0.30279,-0.135365 0.03562,0.01069 0.07837,0.04275 0.04631,0.03206 0.08549,0.07481 0.04275,0.04275 0.07124,0.08906 0.0285,0.04275 0.03206,0.07481 -0.142489,0.02137 -0.295666,0.138927 -0.149614,0.117554 -0.274292,0.28498 -0.121117,0.163863 -0.199486,0.352662 -0.07837,0.188799 -0.07837,0.352662 0,0.06768 0.04987,0.08549 0.103305,-0.02137 0.23867,-0.174549 0.135366,-0.156739 0.327727,-0.480903 0.03562,-0.06412 0.07837,-0.14249 0.04631,-0.07837 0.09262,-0.163863 0.04631,-0.08549 0.08906,-0.170988 0.04631,-0.08906 0.08549,-0.170987 z"
         style="text-align:center;text-anchor:middle;stroke-width:0.08905605"
         id="path4633" />
      <path
         d="m 36.532521,10.501491 q -0.01781,-0.02137 -0.03206,-0.08906 -0.01425,-0.07125 -0.01425,-0.121116 0.09262,0.0071 0.178112,0.01425 0.08549,0.0036 0.156739,0.0071 0.05343,-0.106867 0.113992,-0.210172 0.06412,-0.1068676 0.121116,-0.1923614 0.06056,-0.089056 0.11043,-0.1496142 0.05343,-0.060558 0.08193,-0.078369 0.03562,0 0.08906,0.014249 0.057,0.010687 0.113992,0.03206 0.057,0.017811 0.103305,0.039185 0.04631,0.021373 0.06412,0.042747 -0.106867,0.1353652 -0.185236,0.2529192 -0.07481,0.113992 -0.163863,0.263606 0.07124,0 0.142489,-0.0036 0.07481,-0.0036 0.149614,-0.01069 0.01781,0.01781 0.0285,0.04631 0.01069,0.02494 0.01069,0.05343 -0.17455,0.06412 -0.423907,0.07124 -0.08906,0.170987 -0.160301,0.341975 -0.06768,0.167425 -0.117554,0.324164 -0.04631,0.156739 -0.07481,0.295666 -0.02493,0.138928 -0.02493,0.249357 0,0.156739 0.117554,0.17455 0.106867,-0.01425 0.203047,-0.05343 0.09618,-0.03918 0.170988,-0.09974 0.02137,0.03206 0.02494,0.05343 -0.02137,0.03206 -0.07481,0.07481 -0.04987,0.04275 -0.11043,0.08193 -0.06056,0.04275 -0.117554,0.07125 -0.057,0.0285 -0.08549,0.03206 -0.08906,-0.0036 -0.178112,-0.03918 -0.08906,-0.03562 -0.163863,-0.08906 -0.07124,-0.05343 -0.117554,-0.117554 -0.04631,-0.06768 -0.04631,-0.131803 0,-0.08549 0.02137,-0.213734 0.02494,-0.131803 0.06768,-0.28498 0.04275,-0.153176 0.09974,-0.320602 0.057,-0.167425 0.124678,-0.331288 z"
         style="text-align:center;text-anchor:middle;stroke-width:0.08905605"
         id="path4635" />
      <path
         d="m 39.762918,11.313682 q -0.08193,0.260044 -0.163863,0.473778 -0.08193,0.213735 -0.17455,0.391847 -0.09262,0.181674 -0.199486,0.331289 -0.106867,0.153176 -0.235108,0.288541 -0.163863,0.170988 -0.338413,0.260044 -0.17455,0.09262 -0.349099,0.09262 -0.08906,0 -0.178113,-0.02137 -0.08549,-0.01781 -0.1603,-0.05343 -0.07837,-0.03206 -0.135366,-0.07837 -0.06056,-0.04275 -0.08549,-0.09262 0,-0.04275 0.04987,-0.07481 0.04275,0.03918 0.07125,0.06056 0.0285,0.02137 0.057,0.03562 0.02493,0.01425 0.057,0.01781 0.0285,0.0036 0.06768,0.0036 0.203048,0 0.395409,-0.121116 0.195923,-0.117554 0.366911,-0.338413 0.17455,-0.217297 0.31704,-0.530774 0.142489,-0.309915 0.242232,-0.694637 -0.04631,0.07124 -0.113992,0.17455 -0.06768,0.103305 -0.149614,0.20661 -0.08193,0.09974 -0.170987,0.181674 -0.08549,0.08193 -0.167426,0.11043 -0.057,-0.0036 -0.121116,-0.02494 -0.06056,-0.01781 -0.117554,-0.05343 -0.05343,-0.03562 -0.09618,-0.08549 -0.04275,-0.04987 -0.057,-0.113991 0,-0.103305 0.0071,-0.163864 0.0071,-0.06412 0.02494,-0.138927 0.03206,-0.135365 0.09262,-0.306353 0.06412,-0.170987 0.146052,-0.334851 0.08549,-0.167425 0.185236,-0.309915 0.103306,-0.146052 0.213735,-0.227983 0.0285,0 0.07124,0.0071 0.04275,0.0036 0.08906,0.01781 0.04631,0.01425 0.08906,0.03562 0.04275,0.01781 0.07481,0.04987 -0.03918,0.03562 -0.170988,0.238671 -0.131803,0.203047 -0.292103,0.584207 -0.01781,0.03919 -0.04275,0.113992 -0.02494,0.07481 -0.04987,0.156739 -0.02137,0.08193 -0.03918,0.160301 -0.01781,0.07837 -0.01781,0.124678 0,0.0285 0.0071,0.04275 0.01069,0.01425 0.01781,0.02137 0.06412,-0.01069 0.170988,-0.103305 0.106867,-0.09618 0.242232,-0.295666 0.08549,-0.12824 0.156739,-0.252919 0.07125,-0.128241 0.138927,-0.256481 0.07124,-0.128241 0.146052,-0.263606 0.07481,-0.135366 0.160301,-0.277855 0.04631,0 0.09974,0.01069 0.05343,0.01069 0.103305,0.0285 0.04987,0.01425 0.08549,0.03562 0.03919,0.01781 0.057,0.03918 -0.11043,0.235108 -0.20661,0.459529 -0.09618,0.224421 -0.170988,0.459529 z"
         style="text-align:center;text-anchor:middle;stroke-width:0.08905605"
         id="path4637" />
      <path
         d="m 40.583236,11.990508 q -0.203048,-0.02137 -0.324165,-0.178112 -0.121116,-0.156739 -0.121116,-0.398971 0,-0.14249 0.04275,-0.295666 0.04275,-0.153177 0.121116,-0.295666 0.07837,-0.146052 0.185237,-0.274293 0.106867,-0.128241 0.231546,-0.220859 0.195923,-0.146052 0.366911,-0.146052 0.113991,0.06056 0.224421,0.252919 0.01781,0 0.03206,0 0.01425,-0.0036 0.03206,-0.0036 0.188799,0 0.188799,0.334851 0,0.224421 -0.07481,0.427469 -0.07124,0.199485 -0.203048,0.363349 -0.12824,0.163863 -0.309915,0.277855 -0.178112,0.110429 -0.391846,0.156738 z m 0.181674,-1.122106 q -0.06056,0.08193 -0.113992,0.178112 -0.05343,0.09618 -0.09262,0.195923 -0.03919,0.09618 -0.06056,0.188799 -0.02137,0.08906 -0.02137,0.160301 0,0.08549 0.0285,0.163863 0.0285,0.07837 0.06412,0.08906 0.1603,-0.03562 0.292103,-0.131803 0.135366,-0.09974 0.231546,-0.245794 0.09974,-0.146052 0.153177,-0.331289 0.057,-0.185237 0.057,-0.395409 0,-0.09262 -0.01069,-0.146052 -0.01069,-0.05343 -0.03562,-0.09262 -0.156738,0.04631 -0.281417,0.149614 -0.121116,0.103305 -0.210172,0.217297 z"
         style="text-align:center;text-anchor:middle;stroke-width:0.08905605"
         id="path4639" />
      <path
         d="m 42.70422,11.78746 q -0.06768,-0.057 -0.09262,-0.142489 -0.02137,-0.08549 -0.02137,-0.146052 0,-0.07481 0.01781,-0.128241 -0.01425,0 -0.06412,0.057 -0.04987,0.057 -0.110429,0.135365 -0.057,0.07837 -0.113992,0.153177 -0.057,0.07481 -0.08549,0.110429 -0.04631,0.04987 -0.08906,0.07837 -0.03918,0.0285 -0.06412,0.03206 -0.057,-0.0036 -0.121117,-0.02494 -0.06056,-0.01781 -0.117554,-0.05343 -0.05343,-0.03562 -0.09618,-0.08549 -0.03919,-0.04987 -0.05343,-0.113991 0,-0.09974 0.0036,-0.163864 0.0071,-0.06412 0.02494,-0.138927 0.03206,-0.135365 0.09262,-0.306353 0.06412,-0.170987 0.146052,-0.334851 0.08193,-0.167425 0.181675,-0.309915 0.103305,-0.146052 0.217296,-0.227983 0.03206,0 0.07481,0.0071 0.04275,0.0036 0.08549,0.01781 0.04631,0.01425 0.08549,0.03562 0.04275,0.01781 0.07124,0.04987 -0.03206,0.03562 -0.163863,0.238671 -0.128241,0.203047 -0.288542,0.584207 -0.01781,0.03919 -0.04275,0.113992 -0.02494,0.07481 -0.04987,0.156739 -0.02494,0.08193 -0.04275,0.160301 -0.01425,0.07837 -0.01425,0.124678 0,0.0285 0.0071,0.04275 0.01069,0.01425 0.01781,0.02137 0.05343,-0.02137 0.135365,-0.117554 0.08193,-0.09618 0.227984,-0.295666 0.03562,-0.04987 0.08193,-0.113991 0.04987,-0.06412 0.09974,-0.135366 0.04987,-0.07481 0.09262,-0.153176 0.04631,-0.07837 0.07481,-0.156739 0.01425,-0.04275 0.03562,-0.09974 0.02493,-0.06056 0.057,-0.124678 0.03562,-0.06412 0.07837,-0.128241 0.04631,-0.06768 0.106867,-0.124678 0.04631,0 0.09974,0.01069 0.05343,0.01069 0.09974,0.0285 0.04987,0.01425 0.08549,0.03562 0.03562,0.01781 0.05343,0.03918 -0.06412,0.156738 -0.142489,0.309915 -0.07837,0.153176 -0.146052,0.30279 -0.06768,0.146052 -0.113992,0.292104 -0.04631,0.146052 -0.04631,0.28498 0,0.07481 0.01069,0.131803 0.01425,0.05343 0.0285,0.09262 0.01425,0.03562 0.02494,0.06056 0.01425,0.02494 0.01425,0.04275 0,0.0036 -0.0071,0.01069 -0.0036,0.0036 -0.0071,0.0036 -0.02494,0 -0.06412,-0.01069 -0.03918,-0.01069 -0.08906,-0.03206 -0.04631,-0.01781 -0.09618,-0.04275 -0.04631,-0.02494 -0.08906,-0.05343 z"
         style="text-align:center;text-anchor:middle;stroke-width:0.08905605"
         id="path4641" />
      <path
         d="m 43.410042,11.794585 q 0.01781,-0.103305 0.06056,-0.270731 0.04631,-0.170987 0.106867,-0.359786 0.06056,-0.192361 0.128241,-0.384722 0.06768,-0.192361 0.131803,-0.345538 0.04631,-0.110429 0.08193,-0.170987 0.03562,-0.06412 0.07837,-0.106868 0.04987,0.0071 0.103305,0.02494 0.05343,0.01781 0.103305,0.04275 0.04987,0.02494 0.08906,0.05343 0.03918,0.02493 0.06056,0.04987 -0.09618,0.113992 -0.170988,0.260044 -0.07124,0.146052 -0.146052,0.374035 0.192361,-0.170988 0.338413,-0.327726 0.149614,-0.156739 0.277855,-0.3491 0.02137,-0.01781 0.07481,-0.01781 0.04987,0 0.09618,0.01781 0.04631,0.01425 0.06412,0.04275 -0.06412,0.170988 -0.06412,0.338413 0,0.156739 0.04631,0.235108 -0.0036,0.02137 -0.04987,0.08193 -0.04275,0.06056 -0.09618,0.113991 -0.09618,-0.04987 -0.170988,-0.135365 -0.07481,-0.08906 -0.110429,-0.192361 -0.167426,0.117554 -0.28498,0.231546 -0.117554,0.110429 -0.203047,0.249357 -0.08193,0.135365 -0.14249,0.313477 -0.057,0.178112 -0.11043,0.423907 -0.03206,-0.0036 -0.07837,-0.02494 -0.04275,-0.01781 -0.08906,-0.04631 -0.04275,-0.0285 -0.07837,-0.06056 -0.03562,-0.03206 -0.04631,-0.06056 z"
         style="text-align:center;text-anchor:middle;stroke-width:0.08905605"
         id="path4643" />
      <path
         d="m 46.105325,11.890765 q 0.163863,-0.110429 0.320602,-0.281417 0.156739,-0.17455 0.284979,-0.374035 0.128241,-0.203048 0.217297,-0.420345 0.08906,-0.217297 0.121116,-0.416782 0,-0.04275 -0.04631,-0.057 -0.04987,0 -0.138927,0.08906 -0.08549,0.08549 -0.192361,0.220859 -0.103305,0.135365 -0.213735,0.302791 -0.106867,0.167425 -0.195923,0.33485 -0.08906,0.163864 -0.153177,0.309916 -0.06056,0.142489 -0.06768,0.231545 -0.03562,0 -0.06056,-0.07124 -0.0071,-0.01781 -0.02494,-0.03562 -0.01781,-0.02137 -0.057,-0.04987 -0.01781,-0.01425 -0.03562,-0.03206 -0.01781,-0.02137 -0.02494,-0.03562 -0.01425,-0.0285 -0.01425,-0.09262 0,-0.210173 0.05343,-0.473779 0.05343,-0.263606 0.138927,-0.537898 0.08906,-0.274293 0.20661,-0.5378988 0.117554,-0.2671682 0.242233,-0.4880272 0.12824,-0.2208591 0.256481,-0.3740355 0.128241,-0.1531764 0.242233,-0.2030478 0.03562,0.010687 0.08549,0.035622 0.04987,0.024936 0.09974,0.056996 0.04987,0.03206 0.09262,0.06412 0.04631,0.03206 0.06768,0.056996 -0.391847,0.3170396 -0.680388,0.8157536 -0.28498,0.4951512 -0.466654,1.1719782 0.09974,-0.185237 0.224421,-0.356225 0.124679,-0.17455 0.245795,-0.306353 0.124679,-0.131803 0.235108,-0.210172 0.113992,-0.07837 0.188799,-0.07837 0.057,0.01425 0.110429,0.04987 0.05343,0.03562 0.09618,0.08906 0.04275,0.04987 0.07125,0.11043 0.0285,0.057 0.03562,0.121116 -0.0036,0.149614 -0.05343,0.320602 -0.04631,0.167425 -0.128241,0.331288 -0.07837,0.163864 -0.181674,0.313478 -0.09974,0.149614 -0.213735,0.263606 -0.11043,0.110429 -0.224421,0.178112 -0.11043,0.06768 -0.210173,0.06768 -0.04275,0 -0.08906,-0.01069 -0.04275,-0.0071 -0.08193,-0.02494 -0.03562,-0.01425 -0.06056,-0.03206 -0.02137,-0.01781 -0.02137,-0.03562 z"
         style="text-align:center;text-anchor:middle;stroke-width:0.08905605"
         id="path4645" />
      <path
         d="m 48.690288,10.426684 q 0.03562,0 0.08193,0.01425 0.04987,0.01069 0.08906,0.03206 0.03919,0.01781 0.06412,0.03918 0.0285,0.02137 0.0285,0.03918 -0.07124,0.149614 -0.131803,0.302791 -0.06056,0.149614 -0.103305,0.288541 -0.04275,0.138928 -0.06768,0.260044 -0.02137,0.121116 -0.02137,0.210172 0,0.09974 0.02137,0.167426 0.02137,0.06412 0.07125,0.09262 -0.04275,0.0285 -0.11043,0.04631 -0.06768,0.01781 -0.121116,0.01781 -0.192361,0 -0.192361,-0.263606 0,-0.203048 0.135365,-0.55571 -0.07125,0.163863 -0.163863,0.309915 -0.09262,0.14249 -0.188799,0.252919 -0.09618,0.11043 -0.195923,0.181674 -0.09618,0.06768 -0.178113,0.08193 -0.131803,-0.0071 -0.213734,-0.124678 -0.08193,-0.121117 -0.08193,-0.306353 0,-0.199486 0.08549,-0.420345 0.08549,-0.220859 0.217297,-0.409658 0.135365,-0.188799 0.292104,-0.313477 0.156738,-0.128241 0.30279,-0.135365 0.03562,0.01069 0.07837,0.04275 0.04631,0.03206 0.08549,0.07481 0.04275,0.04275 0.07124,0.08906 0.0285,0.04275 0.03206,0.07481 -0.14249,0.02137 -0.295667,0.138927 -0.149614,0.117554 -0.274292,0.28498 -0.121116,0.163863 -0.199486,0.352662 -0.07837,0.188799 -0.07837,0.352662 0,0.06768 0.04987,0.08549 0.103305,-0.02137 0.23867,-0.174549 0.135366,-0.156739 0.327727,-0.480903 0.03562,-0.06412 0.07837,-0.14249 0.04631,-0.07837 0.09262,-0.163863 0.04631,-0.08549 0.08906,-0.170988 0.04631,-0.08906 0.08549,-0.170987 z"
         style="text-align:center;text-anchor:middle;stroke-width:0.08905605"
         id="path4647" />
      <path
         d="m 49.131618,11.238875 q 0,-0.203048 0.08193,-0.391847 0.08549,-0.192361 0.220859,-0.338413 0.138928,-0.149614 0.313478,-0.23867 0.178112,-0.09262 0.366911,-0.09262 0.185236,0 0.284979,0.09262 0.09974,0.09262 0.09974,0.263606 0,0.08193 -0.02494,0.160301 -0.02137,0.07481 -0.06056,0.135365 -0.03562,0.06056 -0.08549,0.09974 -0.04987,0.03562 -0.09974,0.03562 -0.04275,0 -0.08906,-0.02493 -0.04275,-0.0285 -0.07125,-0.07125 0.238671,-0.217297 0.238671,-0.395409 0,-0.103305 -0.08193,-0.103305 -0.07124,0 -0.178112,0.06768 -0.106867,0.06768 -0.20661,0.178113 -0.153176,0.170987 -0.235108,0.38116 -0.07837,0.20661 -0.07837,0.434593 0,0.288542 0.12824,0.345538 0.05343,-0.0071 0.124679,-0.03206 0.07124,-0.02494 0.153176,-0.06412 0.08193,-0.04275 0.167426,-0.09618 0.08906,-0.05343 0.170987,-0.113992 0.01425,0.01069 0.02494,0.03206 0.01069,0.02137 0.01069,0.03918 -0.06056,0.07481 -0.138928,0.146052 -0.07837,0.07124 -0.163863,0.131803 -0.08549,0.057 -0.167425,0.09618 -0.07837,0.04275 -0.138928,0.05343 -0.117554,-0.01069 -0.220859,-0.07481 -0.103305,-0.06056 -0.181674,-0.160301 -0.07481,-0.09974 -0.121116,-0.227984 -0.04275,-0.128241 -0.04275,-0.267168 z"
         style="text-align:center;text-anchor:middle;stroke-width:0.08905605"
         id="path4649" />
      <path
         d="m 50.61323,11.530979 q 0,-0.128241 0.06412,-0.356224 0.06768,-0.227984 0.17455,-0.498714 0.106867,-0.270731 0.242233,-0.559272 0.135365,-0.288542 0.27073,-0.537899 0.138927,-0.249357 0.263606,-0.4310313 0.128241,-0.1816744 0.217297,-0.2457948 0.04987,0.00356 0.106867,0.042747 0.06056,0.039185 0.11043,0.096181 0.04987,0.053434 0.08193,0.1139918 0.03562,0.060558 0.03562,0.1104295 -0.160301,0.1282407 -0.327727,0.3312885 -0.163863,0.1994856 -0.313477,0.4417178 -0.149614,0.238671 -0.277855,0.509401 -0.124679,0.267168 -0.210172,0.527212 0.113991,-0.195923 0.23867,-0.356224 0.124678,-0.160301 0.249357,-0.274293 0.124678,-0.113992 0.242232,-0.17455 0.121117,-0.06412 0.227984,-0.06768 0.156739,0.113992 0.156739,0.302791 0,0.113992 -0.04631,0.231546 -0.04631,0.113992 -0.124678,0.213734 -0.07481,0.09618 -0.17455,0.167426 -0.09618,0.06768 -0.203048,0.08906 0.03562,0.124678 0.08906,0.252919 0.057,0.128241 0.131803,0.249357 0.07837,0.121116 0.17455,0.224421 0.09974,0.103305 0.224421,0.17455 -0.01781,0.03562 -0.05343,0.07124 -0.03562,0.03562 -0.08549,0.06056 -0.04987,0.0285 -0.11043,0.04275 -0.057,0.01781 -0.113991,0.01781 -0.09618,0 -0.181675,-0.09618 -0.08193,-0.09618 -0.149614,-0.277855 -0.05343,-0.146052 -0.103305,-0.3491 -0.04987,-0.203048 -0.08906,-0.423907 0.04987,-0.03206 0.124678,-0.09262 0.07481,-0.06412 0.156739,-0.146052 0.313477,-0.302791 0.313477,-0.52365 0,-0.0285 -0.03918,-0.0285 -0.07124,0.0036 -0.167426,0.06768 -0.09618,0.06412 -0.20661,0.178112 -0.106867,0.113992 -0.220859,0.267168 -0.110429,0.153177 -0.213734,0.331289 -0.04275,0.07124 -0.07837,0.163863 -0.03562,0.09262 -0.06412,0.192361 -0.02494,0.09618 -0.03918,0.192361 -0.01425,0.09618 -0.01425,0.178112 0,0.04987 0.01069,0.08193 -0.110429,-0.01069 -0.135365,-0.057 -0.0285,-0.04275 -0.04987,-0.07125 -0.01781,-0.02494 -0.03918,-0.04275 -0.03206,-0.02493 -0.05343,-0.106867 -0.02137,-0.08193 -0.02137,-0.20661 z"
         style="text-align:center;text-anchor:middle;stroke-width:0.08905605"
         id="path4651" />
      <path
         d="m 52.542632,12.001195 q -0.057,-0.0071 -0.121116,-0.04987 -0.06056,-0.03918 -0.07837,-0.08906 0,-0.04275 0.01069,-0.110429 0.01425,-0.06768 0.03206,-0.135365 0.01781,-0.07124 0.03562,-0.131803 0.01781,-0.06412 0.02494,-0.09618 0.04275,0 0.106867,0.02137 0.06768,0.02137 0.135365,0.06056 0.07124,0.03562 0.131803,0.08549 0.06412,0.04631 0.09618,0.09618 -0.03206,0.07125 -0.08193,0.135365 -0.04987,0.06412 -0.106867,0.11043 -0.05343,0.04987 -0.103305,0.07481 -0.04987,0.0285 -0.08193,0.0285 z"
         style="text-align:center;text-anchor:middle;stroke-width:0.08905605"
         id="path4653" />
    </g>
  </g>
</svg>
